PretendardJP.glyphspackage
{
color = (204,240,242,1);
glyphname = dollar;
kernLeft = S;
kernRight = S;
layers = (
{
guides = (
{
pos = (-148,2280);
},
{
pos = (-148,764);
}
);
layerId = "5C20EF92-B63D-42A8-8878-93C2863E0093";
shapes = (
{
closed = 1;
nodes = (
(1044,-256,l),
(1044,2304,l),
(880,2304,l),
(880,-256,l)
);
},
{
ref = S;
}
);
width = 1876;
},
{
layerId = "B1F27B51-9973-4381-9301-4FE46FE1CA59";
shapes = (
{
closed = 1;
nodes = (
(864,-256,l),
(864,2304,l),
(800,2304,l),
(800,-256,l)
);
},
{
alignment = -1;
ref = S;
}
);
width = 1660;
},
{
layerId = "CD0E3B44-F66A-4791-B84C-A1128DC61275";
shapes = (
{
closed = 1;
nodes = (
(960,-256,l),
(960,2304,l),
(796,2304,l),
(796,-256,l)
);
},
{
alignment = -1;
ref = S;
}
);
width = 1758;
}
);
metricLeft = S;
metricRight = S;
unicode = 36;
userData = {
"interface.width-adjustments" = (
-16
);
};
}
{
glyphname = ampersand;
layers = (
{
layerId = "5C20EF92-B63D-42A8-8878-93C2863E0093";
shapes = (
{
closed = 1;
nodes = (
(972,-32,o),
(1156,7,o),
(1320,112,c),
(1376,140,o),
(1428,164,o),
(1484,192,c),
(1752,380,o),
(1856,712,o),
(1856,1068,c),
(1420,1068,l),
(1420,680,o),
(1112,400,o),
(840,400,cs),
(705,400,o),
(620,468,o),
(620,584,c),
(620,677,o),
(675,730,o),
(740,776,cs),
(1164,1076,ls),
(1339,1200,o),
(1436,1369,o),
(1436,1560,c),
(1436,1844,o),
(1224,2080,o),
(880,2080,cs),
(520,2080,o),
(280,1824,o),
(280,1512,cs),
(280,1232,o),
(473,1010,o),
(596,880,cs),
(1428,0,l),
(1980,0,l),
(988,1092,l),
(840,1268,o),
(728,1385,o),
(728,1504,cs),
(728,1590,o),
(786,1643,o),
(880,1644,cs),
(981,1645,o),
(1028,1585,o),
(1028,1520,cs),
(1028,1470,o),
(1001,1402,o),
(908,1344,cs),
(444,1056,l),
(232,912,o),
(92,774,o),
(92,544,c),
(92,227,o),
(359,-32,o),
(800,-32,c)
);
}
);
width = 1964;
},
{
layerId = "B1F27B51-9973-4381-9301-4FE46FE1CA59";
shapes = (
{
closed = 1;
nodes = (
(924,-28,o),
(1128,60,o),
(1264,204,cs),
(1281,222,o),
(1297,242,o),
(1312,264,cs),
(1400,388,o),
(1472,564,o),
(1500,736,c),
(1436,744,l),
(1366,331,o),
(1124,45,o),
(724,36,cs),
(436,40,o),
(212,248,o),
(212,512,cs),
(212,676,o),
(296,792,o),
(540,980,cs),
(840,1204,ls),
(1048,1368,o),
(1132,1496,o),
(1132,1660,cs),
(1132,1900,o),
(960,2076,o),
(728,2076,cs),
(492,2076,o),
(292,1876,o),
(292,1644,cs),
(292,1488,o),
(392,1368,o),
(580,1132,cs),
(1476,0,l),
(1556,0,l),
(628,1172,ls),
(440,1408,o),
(356,1512,o),
(356,1644,cs),
(356,1840,o),
(528,2012,o),
(728,2012,cs),
(924,2012,o),
(1068,1864,o),
(1068,1660,cs),
(1068,1515,o),
(993,1406,o),
(800,1256,cs),
(500,1032,ls),
(240,832,o),
(148,696,o),
(148,512,cs),
(148,212,o),
(400,-28,o),
(724,-28,cs)
);
}
);
width = 1580;
},
{
associatedMasterId = "B1F27B51-9973-4381-9301-4FE46FE1CA59";
background = {
shapes = (
{
closed = 1;
nodes = (
(320,956,o),
(144,800,o),
(144,544,c),
(144,212,o),
(392,-28,o),
(796,-28,c),
(992,-28,o),
(1212,44,o),
(1344,192,c),
(1388,252,l),
(1460,323,o),
(1636,488,o),
(1636,896,c),
(1408,896,l),
(1408,456,o),
(1096,180,o),
(788,180,cs),
(544,180,o),
(384,352,o),
(384,544,c),
(384,600,o),
(436,744,o),
(620,880,cs),
(1028,1184,ls),
(1196,1308,o),
(1300,1444,o),
(1300,1640,c),
(1300,1868,o),
(1112,2068,o),
(804,2068,cs),
(504,2068,o),
(308,1880,o),
(308,1604,cs),
(308,1364,o),
(480,1196,o),
(696,936,cs),
(1472,0,l),
(1756,0,l),
(816,1148,ls),
(684,1308,o),
(548,1456,o),
(548,1600,cs),
(548,1728,o),
(656,1864,o),
(812,1864,cs),
(960,1864,o),
(1060,1744,o),
(1060,1640,c),
(1060,1500,o),
(984,1424,o),
(868,1348,c),
(572,1128,l)
);
}
);
};
layerId = "BC7DB698-6657-4284-AE4C-FB553159B532";
name = "Dec 27 18, 14:19";
shapes = (
{
closed = 0;
nodes = (
(1528,892,l),
(1528,658,o),
(1427,398,o),
(1292,252,cs),
(1169,118,o),
(979,40,o),
(796,40,cs),
(482,40,o),
(268,270,o),
(268,528,cs),
(268,714,o),
(379,840,o),
(600,1004,cs),
(888,1224,ls),
(1107,1395,o),
(1160,1513,o),
(1160,1640,cs),
(1160,1866,o),
(996,2012,o),
(800,2012,cs),
(571,2012,o),
(408,1814,o),
(408,1624,cs),
(408,1484,o),
(496,1378,o),
(680,1148,cs),
(1620,-40,l)
);
}
);
width = 1702;
},
{
associatedMasterId = "B1F27B51-9973-4381-9301-4FE46FE1CA59";
background = {
shapes = (
{
closed = 1;
nodes = (
(320,956,o),
(144,800,o),
(144,544,c),
(144,212,o),
(392,-28,o),
(796,-28,c),
(992,-28,o),
(1212,44,o),
(1344,192,c),
(1388,252,l),
(1460,323,o),
(1636,488,o),
(1636,896,c),
(1408,896,l),
(1408,456,o),
(1096,180,o),
(788,180,cs),
(544,180,o),
(384,352,o),
(384,544,c),
(384,600,o),
(436,744,o),
(620,880,cs),
(1028,1184,ls),
(1196,1308,o),
(1300,1444,o),
(1300,1640,c),
(1300,1868,o),
(1112,2068,o),
(804,2068,cs),
(504,2068,o),
(308,1880,o),
(308,1604,cs),
(308,1364,o),
(480,1196,o),
(696,936,cs),
(1472,0,l),
(1756,0,l),
(816,1148,ls),
(684,1308,o),
(548,1456,o),
(548,1600,cs),
(548,1728,o),
(656,1864,o),
(812,1864,cs),
(960,1864,o),
(1060,1744,o),
(1060,1640,c),
(1060,1500,o),
(984,1424,o),
(868,1348,c),
(572,1128,l)
);
}
);
};
layerId = "297194E9-A452-4483-B058-5B7B44144A90";
name = "Dec 27 18, 14:20";
shapes = (
{
closed = 0;
nodes = (
(1536,740,l),
(1504,544,o),
(1416,344,o),
(1308,224,cs),
(1177,88,o),
(982,6,o),
(792,4,cs),
(468,6,o),
(247,244,o),
(248,512,cs),
(247,703,o),
(362,833,o),
(588,1004,cs),
(888,1228,ls),
(1114,1407,o),
(1168,1528,o),
(1168,1660,cs),
(1168,1893,o),
(999,2044,o),
(796,2044,cs),
(560,2044,o),
(391,1839,o),
(392,1644,cs),
(391,1499,o),
(483,1389,o),
(672,1152,cs),
(1644,-76,l)
);
}
);
width = 1704;
},
{
layerId = "CD0E3B44-F66A-4791-B84C-A1128DC61275";
shapes = (
{
closed = 1;
nodes = (
(972,-28,o),
(1190,44,o),
(1324,190,c),
(1340,210,o),
(1354,230,o),
(1370,250,c),
(1448,324,o),
(1622,494,o),
(1622,900,c),
(1388,900,l),
(1388,462,o),
(1076,186,o),
(770,186,cs),
(528,186,o),
(370,354,o),
(370,544,c),
(370,602,o),
(422,744,o),
(604,878,cs),
(1012,1182,ls),
(1180,1306,o),
(1284,1442,o),
(1284,1638,c),
(1284,1868,o),
(1094,2068,o),
(786,2068,cs),
(484,2068,o),
(288,1878,o),
(288,1602,cs),
(288,1360,o),
(460,1192,o),
(674,934,cs),
(1452,0,l),
(1742,0,l),
(800,1146,ls),
(668,1308,o),
(532,1454,o),
(532,1598,cs),
(532,1724,o),
(640,1858,o),
(794,1858,cs),
(940,1858,o),
(1040,1740,o),
(1040,1638,c),
(1040,1500,o),
(964,1424,o),
(850,1348,c),
(550,1126,l),
(298,954,o),
(122,800,o),
(122,544,c),
(122,212,o),
(372,-28,o),
(776,-28,c)
);
}
);
width = 1764;
}
);
metricLeft = d;
unicode = 38;
userData = {
"interface.width-adjustments" = (
-16
);
};
}
{
glyphname = quotesingle;
kernLeft = quotedbl;
kernRight = quotedbl;
layers = (
{
guides = (
{
pos = (-140,1240);
},
{
pos = (-140,764);
}
);
layerId = "5C20EF92-B63D-42A8-8878-93C2863E0093";
shapes = (
{
closed = 1;
nodes = (
(100,2048,l),
(100,1220,l),
(460,1220,l),
(460,2048,l)
);
}
);
width = 564;
},
{
layerId = "B1F27B51-9973-4381-9301-4FE46FE1CA59";
shapes = (
{
closed = 1;
nodes = (
(224,2048,l),
(224,1408,l),
(288,1408,l),
(288,2048,l)
);
}
);
width = 512;
},
{
layerId = "CD0E3B44-F66A-4791-B84C-A1128DC61275";
shapes = (
{
closed = 1;
nodes = (
(178,2048,l),
(178,1340,l),
(402,1340,l),
(402,2048,l)
);
}
);
width = 584;
}
);
unicode = 39;
userData = {
"interface.width-adjustments" = (
-16
);
};
}
{
glyphname = asterisk;
kernLeft = asciicircum;
kernRight = asciicircum;
layers = (
{
associatedMasterId = "5C20EF92-B63D-42A8-8878-93C2863E0093";
guides = (
{
pos = (0,1238.875);
},
{
pos = (0,763.125);
},
{
orientation = center;
pos = (832,1472);
showMeasurement = 1;
},
{
orientation = center;
angle = 90;
pos = (876,1472);
},
{
angle = -30;
pos = (832,1472);
},
{
angle = 30;
pos = (832,1472);
}
);
layerId = "97A0723D-7FBB-4E7F-A62E-E3A1A7C6FCDB";
name = _base;
shapes = (
{
closed = 1;
nodes = (
(-72,1028,l),
(64,1264,l),
(-248,1432,l),
(64,1604,l),
(-72,1844,l),
(-360,1668,l),
(-336,1984,l),
(-660,1984,l),
(-636,1668,l),
(-928,1844,l),
(-1060,1604,l),
(-748,1432,l),
(-1060,1264,l),
(-928,1028,l),
(-636,1200,l),
(-660,884,l),
(-336,884,l),
(-360,1200,l)
);
},
{
closed = 1;
nodes = (
(672,896,l),
(992,896,l),
(992,2048,l),
(672,2048,l)
);
},
{
closed = 1;
nodes = (
(252,1324,l),
(412,1044,l),
(1412,1620,l),
(1252,1900,l)
);
},
{
closed = 1;
nodes = (
(412,1900,l),
(252,1620,l),
(1252,1044,l),
(1412,1324,l)
);
}
);
width = 1664;
},
{
associatedMasterId = "5C20EF92-B63D-42A8-8878-93C2863E0093";
background = {
shapes = (
{
closed = 1;
nodes = (
(955,1248,o),
(1056,1349,o),
(1056,1472,cs),
(1056,1595,o),
(955,1696,o),
(832,1696,cs),
(709,1696,o),
(608,1595,o),
(608,1472,cs),
(608,1349,o),
(709,1248,o),
(832,1248,cs)
);
}
);
};
guides = (
{
pos = (0,1238.875);
},
{
pos = (0,763.125);
},
{
orientation = center;
angle = 90;
pos = (876,1752);
},
{
angle = -30;
pos = (832,1472);
},
{
angle = 30;
pos = (832,1472);
},
{
angle = 60;
pos = (832,1472);
},
{
angle = -60;
pos = (832,1472);
}
);
layerId = "6C5AA80E-891B-45F3-A4F8-A8296CFF1D53";
name = "Sep 11 18, 18:19";
shapes = (
{
closed = 1;
nodes = (
(412,1044,l),
(720,1276,l),
(672,896,l),
(992,896,l),
(944,1276,l),
(1252,1044,l),
(1412,1324,l),
(1056,1472,l),
(1412,1620,l),
(1252,1900,l),
(944,1668,l),
(992,2048,l),
(672,2048,l),
(720,1668,l),
(412,1900,l),
(252,1620,l),
(608,1472,l),
(252,1324,l)
);
}
);
width = 1664;
},
{
background = {
shapes = (
{
closed = 1;
nodes = (
(998,1216,o),
(1113,1331,o),
(1112,1472,cs),
(1113,1613,o),
(998,1728,o),
(856,1728,cs),
(716,1728,o),
(601,1613,o),
(600,1472,cs),
(601,1331,o),
(716,1216,o),
(856,1216,cs)
);
}
);
};
guides = (
{
pos = (-124,1240);
},
{
pos = (-124,764);
},
{
orientation = center;
angle = 90;
pos = (752,1752);
},
{
angle = -30;
pos = (708,1472);
},
{
angle = 30;
pos = (708,1472);
},
{
angle = 60;
pos = (708,1472);
},
{
angle = -60;
pos = (708,1472);
}
);
layerId = "5C20EF92-B63D-42A8-8878-93C2863E0093";
shapes = (
{
closed = 1;
nodes = (
(984,1252,l),
(1276,1045,l),
(1436,1323,l),
(1114,1472,l),
(1436,1621,l),
(1276,1899,l),
(984,1694,l),
(1016,2048,l),
(696,2048,l),
(728,1694,l),
(436,1899,l),
(276,1621,l),
(600,1472,l),
(276,1323,l),
(436,1045,l),
(728,1252,l),
(696,896,l),
(1016,896,l)
);
}
);
width = 1712;
},
{
guides = (
{
angle = 30;
pos = (568,2056);
},
{
orientation = center;
pos = (648,2056);
},
{
angle = -30;
pos = (568,2056);
}
);
layerId = "B1F27B51-9973-4381-9301-4FE46FE1CA59";
shapes = (
{
closed = 1;
nodes = (
(704,1418,l),
(1156,1156,l),
(1188,1212,l),
(736,1472,l),
(1188,1732,l),
(1156,1788,l),
(704,1528,l),
(704,2048,l),
(640,2048,l),
(640,1528,l),
(188,1788,l),
(156,1732,l),
(608,1472,l),
(156,1212,l),
(188,1156,l),
(640,1418,l),
(640,896,l),
(704,896,l)
);
}
);
width = 1344;
},
{
associatedMasterId = "B1F27B51-9973-4381-9301-4FE46FE1CA59";
background = {
shapes = (
{
closed = 1;
nodes = (
(800,896,l),
(784,1336,l),
(1156,1100,l),
(1252,1268,l),
(860,1472,l),
(1252,1676,l),
(1156,1844,l),
(784,1608,l),
(800,2048,l),
(608,2048,l),
(624,1608,l),
(252,1844,l),
(156,1676,l),
(548,1472,l),
(156,1268,l),
(252,1100,l),
(624,1336,l),
(608,896,l)
);
}
);
};
guides = (
{
angle = 30;
pos = (704,1472);
},
{
orientation = center;
pos = (784,1472);
},
{
angle = -30;
pos = (704,1472);
}
);
layerId = "F49FED06-13CF-4C84-978D-8F5A7D370851";
name = "Dec 27 18, 16:33";
shapes = (
{
closed = 0;
nodes = (
(704,2048,l),
(704,896,l)
);
},
{
closed = 0;
nodes = (
(1204,1760,l),
(204,1184,l)
);
},
{
closed = 0;
nodes = (
(1204,1184,l),
(204,1760,l)
);
}
);
width = 1408;
},
{
layerId = "CD0E3B44-F66A-4791-B84C-A1128DC61275";
shapes = (
{
closed = 1;
nodes = (
(762,1334,l),
(1134,1101,l),
(1230,1267,l),
(842,1472,l),
(1230,1677,l),
(1134,1843,l),
(762,1610,l),
(778,2048,l),
(586,2048,l),
(602,1610,l),
(230,1843,l),
(134,1677,l),
(522,1472,l),
(134,1267,l),
(230,1101,l),
(602,1334,l),
(586,896,l),
(778,896,l)
);
}
);
width = 1364;
},
{
associatedMasterId = "5C20EF92-B63D-42A8-8878-93C2863E0093";
background = {
shapes = (
{
closed = 1;
nodes = (
(998,1216,o),
(1113,1331,o),
(1112,1472,cs),
(1113,1613,o),
(998,1728,o),
(856,1728,cs),
(716,1728,o),
(601,1613,o),
(600,1472,cs),
(601,1331,o),
(716,1216,o),
(856,1216,cs)
);
}
);
};
guides = (
{
pos = (-124,1240);
},
{
pos = (-124,764);
},
{
orientation = center;
angle = 90;
pos = (752,1752);
},
{
angle = -30;
pos = (708,1472);
},
{
angle = 30;
pos = (708,1472);
},
{
angle = 60;
pos = (708,1472);
},
{
angle = -60;
pos = (708,1472);
}
);
layerId = "F478E060-EE76-43A9-8CE9-02494EF44C3A";
name = "Apr 10, 22 15:37";
shapes = (
{
closed = 1;
nodes = (
(1016,896,l),
(984,1248,l),
(1276,1044,l),
(1436,1324,l),
(1116,1472,l),
(1436,1620,l),
(1276,1900,l),
(984,1696,l),
(1016,2048,l),
(696,2048,l),
(728,1696,l),
(436,1900,l),
(276,1620,l),
(596,1472,l),
(276,1324,l),
(436,1044,l),
(728,1248,l),
(696,896,l)
);
}
);
width = 1712;
}
);
note = "hexagonal angle: 30 deg";
unicode = 42;
userData = {
com.typemytype.robofont.guideline.magnetic.x5LXEmmtln = 5;
"interface.width-adjustments" = (
-16
);
};
}
{
glyphname = one;
kernLeft = one;
kernRight = one;
layers = (
{
guides = (
{
pos = (-92,1240);
},
{
pos = (-92,764);
}
);
layerId = "5C20EF92-B63D-42A8-8878-93C2863E0093";
shapes = (
{
closed = 1;
nodes = (
(628,2048,l),
(124,1740,l),
(124,1268,l),
(572,1536,l),
(584,1536,l),
(584,0,l),
(1140,0,l),
(1140,2048,l)
);
}
);
width = 1424;
},
{
layerId = "B1F27B51-9973-4381-9301-4FE46FE1CA59";
shapes = (
{
closed = 1;
nodes = (
(608,2048,l),
(166,1764,l),
(166,1688,l),
(620,1980,l),
(630,1980,l),
(630,0,l),
(696,0,l),
(696,2048,l)
);
}
);
width = 1096;
},
{
associatedMasterId = "B1F27B51-9973-4381-9301-4FE46FE1CA59";
layerId = "6F6789DD-1646-44FE-9FBB-C71ED2C14E05";
name = "May 22, 21 14:05";
shapes = (
{
closed = 1;
nodes = (
(596,2048,l),
(168,1764,l),
(168,1688,l),
(608,1980,l),
(620,1980,l),
(620,0,l),
(684,0,l),
(684,2048,l)
);
}
);
width = 1084;
},
{
layerId = "CD0E3B44-F66A-4791-B84C-A1128DC61275";
shapes = (
{
closed = 1;
nodes = (
(660,2048,l),
(150,1708,l),
(150,1452,l),
(648,1782,l),
(660,1782,l),
(660,0,l),
(916,0,l),
(916,2048,l)
);
}
);
width = 1270;
}
);
unicode = 49;
}
{
color = (227,245,235,1);
glyphname = four;
kernLeft = four;
kernRight = four;
layers = (
{
anchors = (
{
name = _symbol;
pos = (1048,1024);
}
);
background = {
shapes = (
{
pos = (-28,0);
ref = A;
}
);
};
guides = (
{
pos = (-44,320);
},
{
pos = (-44,752);
}
);
layerId = "5C20EF92-B63D-42A8-8878-93C2863E0093";
shapes = (
{
closed = 1;
nodes = (
(1880,320,l),
(1880,752,l),
(664,752,l),
(664,768,l),
(1108,1472,l),
(1332,1472,l),
(1332,2048,l),
(940,2048,l),
(116,752,l),
(116,320,l)
);
},
{
closed = 1;
nodes = (
(1644,0,l),
(1644,2048,l),
(1124,2048,l),
(1124,640,l),
(1112,452,l),
(1112,0,l)
);
}
);
width = 1976;
},
{
anchors = (
{
name = _symbol;
pos = (886,1024);
}
);
layerId = "B1F27B51-9973-4381-9301-4FE46FE1CA59";
shapes = (
{
closed = 1;
nodes = (
(1474,480,l),
(1474,544,l),
(270,544,l),
(270,552,l),
(1136,1916,l),
(1184,1916,l),
(1184,2048,l),
(1144,2048,l),
(176,528,l),
(176,480,l)
);
},
{
closed = 1;
nodes = (
(1210,0,l),
(1210,2048,l),
(1146,2048,l),
(1146,520,l),
(1146,500,l),
(1146,0,l)
);
}
);
width = 1650;
},
{
anchors = (
{
name = _symbol;
pos = (806,1024);
}
);
associatedMasterId = "B1F27B51-9973-4381-9301-4FE46FE1CA59";
layerId = "71FF67DD-AAE1-4F96-912A-D80263530103";
name = "May 22, 21 14:06";
shapes = (
{
closed = 1;
nodes = (
(1436,480,l),
(1436,544,l),
(268,544,l),
(268,552,l),
(1108,1916,l),
(1156,1916,l),
(1156,2048,l),
(1116,2048,l),
(176,528,l),
(176,480,l)
);
},
{
closed = 1;
nodes = (
(1180,0,l),
(1180,2048,l),
(1116,2048,l),
(1116,520,l),
(1116,500,l),
(1116,0,l)
);
}
);
width = 1612;
},
{
anchors = (
{
name = _symbol;
pos = (964,1024);
}
);
layerId = "CD0E3B44-F66A-4791-B84C-A1128DC61275";
shapes = (
{
closed = 1;
nodes = (
(1664,418,l),
(1664,642,l),
(416,642,l),
(416,658,l),
(1110,1726,l),
(1216,1726,l),
(1216,2048,l),
(1064,2048,l),
(142,628,l),
(142,418,l)
);
},
{
closed = 1;
nodes = (
(1376,0,l),
(1376,2048,l),
(1134,2048,l),
(1134,580,l),
(1134,482,l),
(1134,0,l)
);
}
);
width = 1806;
}
);
unicode = 52;
}
{
color = (204,240,242,1);
glyphname = less;
layers = (
{
anchors = (
{
name = _symbol;
pos = (1056,832);
}
);
background = {
guides = (
{
orientation = center;
pos = (408,832);
}
);
shapes = (
{
closed = 1;
nodes = (
(888,32,l),
(1336,32,l),
(1336,1504,l),
(888,1504,l)
);
}
);
};
guides = (
{
orientation = center;
pos = (260,832);
}
);
layerId = "5C20EF92-B63D-42A8-8878-93C2863E0093";
shapes = (
{
closed = 1;
nodes = (
(1720,-4,l),
(1720,500,l),
(772,828,l),
(788,804,l),
(788,860,l),
(772,836,l),
(1720,1164,l),
(1720,1668,l),
(232,1072,l),
(232,592,l)
);
}
);
width = 1952;
},
{
anchors = (
{
name = _symbol;
pos = (702,896);
}
);
associatedMasterId = "5C20EF92-B63D-42A8-8878-93C2863E0093";
guides = (
{
pos = (12,1240);
},
{
pos = (268,896);
},
{
angle = 90;
pos = (1048,1620);
}
);
layerId = "C60C402B-F6E4-41D5-9289-ACC0313E7250";
name = "Nov 24 18, 10:58";
shapes = (
{
closed = 1;
nodes = (
(740,892,l),
(740,900,l),
(1268,1340,l),
(956,1620,l),
(112,896,l),
(956,172,l),
(1268,452,l)
);
}
);
width = 1404;
},
{
anchors = (
{
name = _symbol;
pos = (976,832);
}
);
associatedMasterId = "5C20EF92-B63D-42A8-8878-93C2863E0093";
background = {
guides = (
{
orientation = center;
pos = (408,832);
}
);
shapes = (
{
closed = 1;
nodes = (
(888,32,l),
(1336,32,l),
(1336,1504,l),
(888,1504,l)
);
}
);
};
guides = (
{
orientation = center;
pos = (408,832);
}
);
layerId = "323ECA97-198F-4297-957F-EC3DABE1457E";
name = "recipe 1";
shapes = (
{
closed = 1;
nodes = (
(204,1072,l),
(364,720,l),
(1692,1124,l),
(1692,1668,l)
);
},
{
closed = 1;
nodes = (
(204,592,l),
(500,592,l),
(500,1072,l),
(204,1072,l)
);
},
{
closed = 1;
nodes = (
(688,816,l),
(760,816,l),
(760,848,l),
(688,848,l)
);
},
{
closed = 1;
nodes = (
(1692,540,l),
(364,944,l),
(204,592,l),
(1692,-4,l)
);
}
);
width = 1952;
},
{
anchors = (
{
name = _symbol;
pos = (964,800);
}
);
guides = (
{
orientation = center;
pos = (132,1384);
}
);
layerId = "B1F27B51-9973-4381-9301-4FE46FE1CA59";
shapes = (
{
closed = 1;
nodes = (
(1412,56,l),
(1412,132,l),
(376,804,l),
(388,784,l),
(388,816,l),
(376,796,l),
(1412,1468,l),
(1412,1544,l),
(316,832,l),
(316,768,l)
);
}
);
width = 1728;
},
{
anchors = (
{
name = _symbol;
pos = (896,800);
}
);
associatedMasterId = "B1F27B51-9973-4381-9301-4FE46FE1CA59";
guides = (
{
orientation = center;
pos = (268,800);
}
);
layerId = "F4F49379-65DA-4D24-8FD9-467723384620";
name = "Dec 27 18, 15:52";
shapes = (
{
closed = 0;
nodes = (
(1600,1568,l),
(412,800,l),
(1600,32,l)
);
}
);
width = 1792;
},
{
anchors = (
{
name = _symbol;
pos = (988,802);
}
);
layerId = "CD0E3B44-F66A-4791-B84C-A1128DC61275";
shapes = (
{
closed = 1;
nodes = (
(1556,62,l),
(1556,324,l),
(568,796,l),
(578,780,l),
(578,820,l),
(568,804,l),
(1556,1278,l),
(1556,1540,l),
(262,884,l),
(262,716,l)
);
}
);
width = 1816;
}
);
metricWidth = plus;
note = "Recipe: Make rect and rotate 63deg (regular) or 69deg (black)";
unicode = 60;
userData = {
com.typemytype.robofont.guideline.magnetic.UCqMAsbNEX = 5;
com.typemytype.robofont.guideline.magnetic.abdyNxiJ0X = 5;
com.typemytype.robofont.guideline.magnetic.hl7wBCA74H = 5;
com.typemytype.robofont.guideline.magnetic.o3FB2ulJxh = 5;
com.typemytype.robofont.guideline.magnetic.oUvmdsbOwf = 5;
"interface.width-adjustments" = (
-16
);
};
}
{
color = (219,235,247,1);
glyphname = B;
kernLeft = B;
kernRight = B;
layers = (
{
anchors = (
{
name = bottom;
pos = (912,0);
},
{
name = top;
pos = (916,2304);
}
);
guides = (
{
orientation = center;
angle = 90;
pos = (612,716);
}
);
layerId = "5C20EF92-B63D-42A8-8878-93C2863E0093";
shapes = (
{
closed = 1;
nodes = (
(1096,0,ls),
(1541,0,o),
(1816,243,o),
(1816,580,cs),
(1816,869,o),
(1603,1058,o),
(1340,1068,c),
(1340,1088,l),
(1577,1135,o),
(1736,1310,o),
(1736,1536,cs),
(1736,1848,o),
(1488,2048,o),
(1020,2048,cs),
(132,2048,l),
(132,0,l)
);
},
{
closed = 1;
nodes = (
(688,876,l),
(956,876,ls),
(1125,876,o),
(1228,796,o),
(1228,652,cs),
(1228,515,o),
(1135,444,o),
(948,444,cs),
(688,444,l)
);
},
{
closed = 1;
nodes = (
(688,1612,l),
(924,1612,ls),
(1062,1612,o),
(1164,1542,o),
(1164,1416,cs),
(1164,1290,o),
(1062,1220,o),
(916,1220,cs),
(688,1220,l)
);
}
);
width = 1880;
},
{
anchors = (
{
name = bottom;
pos = (844,0);
},
{
name = top;
pos = (820,2304);
}
);
guides = (
{
orientation = center;
angle = 180;
pos = (808,1624);
}
);
layerId = "B1F27B51-9973-4381-9301-4FE46FE1CA59";
shapes = (
{
closed = 1;
nodes = (
(996,0,ls),
(1348,0,o),
(1556,208,o),
(1556,524,cs),
(1556,809,o),
(1386,1017,o),
(1164,1036,c),
(1164,1044,l),
(1362,1094,o),
(1476,1287,o),
(1476,1528,cs),
(1476,1851,o),
(1272,2048,o),
(928,2048,cs),
(288,2048,l),
(288,0,l)
);
},
{
closed = 1;
nodes = (
(352,1008,l),
(996,1008,ls),
(1285,1008,o),
(1492,808,o),
(1492,524,cs),
(1492,248,o),
(1296,64,o),
(996,64,cs),
(352,64,l)
);
},
{
closed = 1;
nodes = (
(352,1984,l),
(928,1984,ls),
(1226,1984,o),
(1412,1819,o),
(1412,1528,cs),
(1412,1284,o),
(1275,1072,o),
(996,1072,cs),
(352,1072,l)
);
}
);
width = 1740;
},
{
anchors = (
{
name = bottom;
pos = (868,0);
},
{
name = top;
pos = (858,2304);
}
);
layerId = "CD0E3B44-F66A-4791-B84C-A1128DC61275";
shapes = (
{
closed = 1;
nodes = (
(970,0,ls),
(1454,0,o),
(1656,236,o),
(1656,544,cs),
(1656,868,o),
(1432,1044,o),
(1242,1056,c),
(1242,1076,l),
(1420,1124,o),
(1576,1242,o),
(1576,1504,cs),
(1576,1806,o),
(1374,2048,o),
(946,2048,cs),
(226,2048,l),
(226,0,l)
);
},
{
closed = 1;
nodes = (
(480,930,l),
(980,930,ls),
(1244,930,o),
(1412,754,o),
(1412,546,cs),
(1412,368,o),
(1288,226,o),
(968,226,cs),
(480,226,l)
);
},
{
closed = 1;
nodes = (
(480,1822,l),
(944,1822,ls),
(1212,1822,o),
(1332,1680,o),
(1332,1502,cs),
(1332,1288,o),
(1158,1150,o),
(936,1150,cs),
(480,1150,l)
);
}
);
width = 1794;
}
);
metricLeft = H;
unicode = 66;
userData = {
com.typemytype.robofont.guideline.magnetic.olHMUUD5VH = 5;
com.typemytype.robofont.guideline.magnetic.rWKPWS6RQH = 5;
"interface.width-adjustments" = (
-16
);
};
}
{
color = (219,235,247,1);
glyphname = D;
kernLeft = B;
kernRight = D;
layers = (
{
anchors = (
{
name = _symbol;
pos = (952,1024);
},
{
name = bottom;
pos = (928,0);
},
{
name = cross;
pos = (408,1084);
},
{
name = top;
pos = (816,2304);
}
);
guides = (
{
pos = (1772,1024);
},
{
pos = (-136,764);
},
{
pos = (-136,1548);
},
{
pos = (1736,1696);
},
{
pos = (1736,348);
},
{
pos = (1272,1480);
},
{
pos = (1336,560);
}
);
layerId = "5C20EF92-B63D-42A8-8878-93C2863E0093";
shapes = (
{
closed = 1;
nodes = (
(1544,0,o),
(1940,384,o),
(1940,1024,c),
(1940,1664,o),
(1544,2048,o),
(912,2048,c),
(352,2048,l),
(352,1576,l),
(884,1576,l),
(1204,1576,o),
(1380,1452,o),
(1380,1024,c),
(1380,596,o),
(1204,472,o),
(900,472,c),
(360,472,l),
(360,0,l),
(920,0,l)
);
},
{
closed = 1;
nodes = (
(132,2048,l),
(132,0,l),
(688,0,l),
(688,2048,l)
);
}
);
width = 2064;
},
{
anchors = (
{
name = _symbol;
pos = (914,1024);
},
{
name = bottom;
pos = (780,0);
},
{
name = cross;
pos = (320,1040);
},
{
name = top;
pos = (836,2304);
}
);
layerId = "B1F27B51-9973-4381-9301-4FE46FE1CA59";
shapes = (
{
closed = 1;
nodes = (
(1425,0,o),
(1774,378,o),
(1776,1032,cs),
(1777,1669,o),
(1441,2048,o),
(876,2048,cs),
(320,2048,l),
(320,1984,l),
(876,1984,ls),
(1407,1984,o),
(1710,1629,o),
(1712,1032,cs),
(1714,425,o),
(1392,64,o),
(824,64,cs),
(320,64,l),
(320,0,l),
(824,0,ls)
);
},
{
closed = 1;
nodes = (
(288,2048,l),
(288,0,l),
(352,0,l),
(352,2048,l)
);
}
);
width = 1948;
},
{
anchors = (
{
name = _symbol;
pos = (892,1024);
},
{
name = bottom;
pos = (838,0);
},
{
name = cross;
pos = (354,1056);
},
{
name = top;
pos = (828,2304);
}
);
layerId = "CD0E3B44-F66A-4791-B84C-A1128DC61275";
shapes = (
{
closed = 1;
nodes = (
(1486,0,o),
(1838,388,o),
(1838,1028,cs),
(1838,1664,o),
(1486,2048,o),
(888,2048,cs),
(356,2048,l),
(356,1822,l),
(872,1822,ls),
(1348,1822,o),
(1590,1522,o),
(1590,1028,cs),
(1590,530,o),
(1348,226,o),
(846,226,cs),
(368,226,l),
(368,0,l),
(862,0,ls)
);
},
{
closed = 1;
nodes = (
(226,2048,l),
(226,0,l),
(480,0,l),
(480,2048,l)
);
}
);
width = 1984;
}
);
metricLeft = H;
metricRight = O;
note = "!post:RemoveOverlap";
unicode = 68;
userData = {
"interface.width-adjustments" = (
-16
);
};
}
{
color = (219,235,247,1);
glyphname = F;
kernLeft = B;
kernRight = F;
layers = (
{
anchors = (
{
name = _symbol;
pos = (822,1024);
},
{
name = bottom;
pos = (884,16);
},
{
name = cross;
pos = (408,344);
},
{
name = top;
pos = (856,2304);
}
);
background = {
shapes = (
{
ref = E;
}
);
};
guides = (
{
pos = (-136,1320);
}
);
layerId = "5C20EF92-B63D-42A8-8878-93C2863E0093";
shapes = (
{
closed = 1;
nodes = (
(688,0,l),
(688,800,l),
(1484,800,l),
(1484,1248,l),
(688,1248,l),
(688,1600,l),
(1572,1600,l),
(1572,2048,l),
(132,2048,l),
(132,0,l)
);
}
);
width = 1644;
},
{
anchors = (
{
name = _symbol;
pos = (792,1024);
},
{
name = bottom;
pos = (668,16);
},
{
name = cross;
pos = (320,564);
},
{
name = top;
pos = (840,2304);
}
);
guides = (
{
angle = 90;
pos = (736,2804);
}
);
layerId = "B1F27B51-9973-4381-9301-4FE46FE1CA59";
shapes = (
{
closed = 1;
nodes = (
(352,0,l),
(352,992,l),
(1292,992,l),
(1292,1056,l),
(352,1056,l),
(352,1984,l),
(1388,1984,l),
(1388,2048,l),
(288,2048,l),
(288,0,l)
);
}
);
width = 1584;
},
{
anchors = (
{
name = _symbol;
pos = (806,1024);
},
{
name = bottom;
pos = (752,16);
},
{
name = cross;
pos = (354,476);
},
{
name = top;
pos = (868,2304);
}
);
layerId = "CD0E3B44-F66A-4791-B84C-A1128DC61275";
shapes = (
{
closed = 1;
nodes = (
(480,0,l),
(480,914,l),
(1366,914,l),
(1366,1138,l),
(480,1138,l),
(480,1822,l),
(1458,1822,l),
(1458,2048,l),
(226,2048,l),
(226,0,l)
);
}
);
width = 1612;
}
);
metricLeft = H;
unicode = 70;
userData = {
"interface.width-adjustments" = (
-16
);
};
}
{
color = (219,235,247,1);
glyphname = S;
kernLeft = S;
kernRight = S;
layers = (
{
anchors = (
{
name = bottom;
pos = (948,0);
},
{
name = cedilla;
pos = (944,0);
},
{
name = top;
pos = (940,2304);
}
);
guides = (
{
pos = (-136,764);
},
{
pos = (-136,1552);
},
{
orientation = center;
angle = 90;
pos = (1024,-132);
}
);
layerId = "5C20EF92-B63D-42A8-8878-93C2863E0093";
shapes = (
{
closed = 1;
nodes = (
(1768,1408,l),
(1766,1810,o),
(1456,2076,o),
(960,2076,cs),
(473,2076,o),
(129,1814,o),
(132,1424,cs),
(131,1104,o),
(353,926,o),
(716,848,cs),
(920,804,ls),
(1148,754,o),
(1226,697,o),
(1228,604,cs,{
name = hr00;
}),
(1226,503,o),
(1134,432,o),
(956,432,cs),
(743,432,o),
(617,532,o),
(608,720,c),
(80,720,l),
(82,206,o),
(430,-24,o),
(964,-24,cs),
(1483,-24,o),
(1794,200,o),
(1796,604,cs),
(1794,916,o),
(1608,1135,o),
(1156,1232,cs),
(988,1268,ls),
(794,1309,o),
(707,1366,o),
(712,1464,cs),
(713,1554,o),
(788,1620,o),
(960,1620,cs),
(1140,1620,o),
(1225,1541,o),
(1236,1408,c)
);
}
);
width = 1876;
},
{
anchors = (
{
name = bottom;
pos = (832,-32);
},
{
name = cedilla;
pos = (832,0);
},
{
name = top;
pos = (832,2304);
}
);
layerId = "B1F27B51-9973-4381-9301-4FE46FE1CA59";
shapes = (
{
closed = 1;
nodes = (
(1448,1536,l),
(1428,1852,o),
(1191,2080,o),
(840,2080,cs),
(490,2080,o),
(232,1854,o),
(232,1552,cs),
(232,1315,o),
(390,1149,o),
(712,1048,cs),
(944,976,ls),
(1275,873,o),
(1412,740,o),
(1412,520,cs),
(1412,230,o),
(1176,32,o),
(824,32,cs),
(486,32,o),
(268,215,o),
(248,480,c),
(184,480,l),
(204,179,o),
(450,-32,o),
(824,-32,cs),
(1212,-32,o),
(1476,199,o),
(1476,520,cs),
(1476,772,o),
(1314,931,o),
(960,1040,cs),
(728,1112,ls),
(434,1202,o),
(296,1344,o),
(296,1552,cs),
(296,1821,o),
(527,2016,o),
(840,2016,cs),
(1157,2016,o),
(1364,1816,o),
(1384,1536,c)
);
}
);
width = 1660;
},
{
anchors = (
{
name = bottom;
pos = (872,-60);
},
{
name = cedilla;
pos = (876,0);
},
{
name = top;
pos = (872,2380);
}
);
associatedMasterId = "B1F27B51-9973-4381-9301-4FE46FE1CA59";
background = {
shapes = (
{
closed = 1;
nodes = (
(1512,1612,l),
(1496,1866,o),
(1226,2076,o),
(892,2076,cs),
(555,2076,o),
(268,1868,o),
(268,1552,cs),
(267,1302,o),
(454,1147,o),
(748,1048,cs),
(1028,960,ls),
(1238,892,o),
(1498,804,o),
(1496,536,cs,{
name = hr00;
}),
(1498,236,o),
(1208,42,o),
(860,44,cs),
(597,42,o),
(327,154,o),
(300,412,c),
(208,412,l),
(245,184,o),
(472,-43,o),
(856,-44,cs),
(1299,-43,o),
(1541,238,o),
(1540,528,cs),
(1541,954,o),
(1070,1021,o),
(1004,1052,cs),
(772,1120,ls),
(644,1160,o),
(305,1254,o),
(304,1548,cs),
(302,1807,o),
(545,1998,o),
(876,2000,cs),
(1166,1998,o),
(1415,1856,o),
(1448,1612,c)
);
}
);
};
layerId = "9C280ED6-539A-47A5-81A9-2BEBEE9FA0FB";
name = "Nov 25 18, 13:19";
shapes = (
{
closed = 0;
nodes = (
(1460,1540,l),
(1442,1794,o),
(1205,1969,o),
(884,1968,cs),
(551,1969,o),
(307,1783,o),
(308,1512,cs),
(307,1265,o),
(529,1143,o),
(764,1076,cs),
(996,1012,ls),
(1209,955,o),
(1487,855,o),
(1488,560,cs),
(1487,283,o),
(1245,79,o),
(868,80,cs),
(525,79,o),
(281,247,o),
(260,532,c)
);
}
);
width = 1748;
},
{
anchors = (
{
name = bottom;
pos = (872,-60);
},
{
name = cedilla;
pos = (876,0);
},
{
name = top;
pos = (872,2380);
}
);
associatedMasterId = "B1F27B51-9973-4381-9301-4FE46FE1CA59";
background = {
shapes = (
{
closed = 1;
nodes = (
(1512,1612,l),
(1496,1866,o),
(1226,2076,o),
(892,2076,cs),
(555,2076,o),
(268,1868,o),
(268,1552,cs),
(267,1302,o),
(454,1147,o),
(748,1048,cs),
(1028,960,ls),
(1238,892,o),
(1498,804,o),
(1496,536,cs,{
name = hr00;
}),
(1498,236,o),
(1208,42,o),
(860,44,cs),
(597,42,o),
(327,154,o),
(300,412,c),
(208,412,l),
(245,184,o),
(472,-43,o),
(856,-44,cs),
(1299,-43,o),
(1541,238,o),
(1540,528,cs),
(1541,954,o),
(1070,1021,o),
(1004,1052,cs),
(772,1120,ls),
(644,1160,o),
(305,1254,o),
(304,1548,cs),
(302,1807,o),
(545,1998,o),
(876,2000,cs),
(1166,1998,o),
(1415,1856,o),
(1448,1612,c)
);
}
);
};
layerId = "48736875-43E9-423A-93EA-8ACE2815DF1A";
name = "Nov 25 18, 13:23";
shapes = (
{
closed = 0;
nodes = (
(1460,1536,l),
(1460,1584,l),
(1442,1858,o),
(1205,2044,o),
(884,2044,cs),
(551,2044,o),
(307,1846,o),
(308,1556,cs),
(307,1294,o),
(529,1164,o),
(764,1092,cs),
(996,1024,ls),
(1209,965,o),
(1487,858,o),
(1488,544,cs),
(1487,249,o),
(1245,32,o),
(868,32,cs),
(525,32,o),
(281,211,o),
(260,512,c),
(260,528,l)
);
}
);
width = 1748;
},
{
anchors = (
{
name = bottom;
pos = (882,-36);
},
{
name = cedilla;
pos = (882,0);
},
{
name = top;
pos = (878,2304);
}
);
layerId = "CD0E3B44-F66A-4791-B84C-A1128DC61275";
shapes = (
{
closed = 1;
nodes = (
(1592,1532,l),
(1582,1844,o),
(1296,2076,o),
(898,2076,cs),
(502,2076,o),
(194,1848,o),
(194,1502,cs),
(194,1224,o),
(394,1060,o),
(716,968,cs),
(966,898,ls),
(1182,838,o),
(1372,762,o),
(1372,562,cs),
(1372,340,o),
(1160,194,o),
(878,194,cs),
(634,194,o),
(420,302,o),
(400,532,c),
(138,532,l),
(162,192,o),
(436,-36,o),
(878,-36,cs),
(1352,-36,o),
(1620,224,o),
(1620,558,cs),
(1620,940,o),
(1260,1066,o),
(1042,1122,cs),
(836,1178,ls),
(682,1218,o),
(442,1298,o),
(442,1514,cs),
(442,1708,o),
(620,1850,o),
(890,1850,cs),
(1136,1850,o),
(1322,1734,o),
(1344,1532,c)
);
}
);
width = 1758;
}
);
note = "recipe: use stroke + offset curve filter with 32, no autostroke";
unicode = 83;
userData = {
com.typemytype.robofont.guideline.magnetic.yXeOBXqbc8 = 5;
"interface.width-adjustments" = (
-16
);
};
}
{
color = (219,235,247,1);
glyphname = V;
kernLeft = V;
kernRight = V;
layers = (
{
anchors = (
{
name = bottom;
pos = (1120,0);
},
{
name = top;
pos = (1120,2304);
}
);
guides = (
{
orientation = center;
angle = 90;
pos = (892,1048);
}
);
layerId = "5C20EF92-B63D-42A8-8878-93C2863E0093";
shapes = (
{
closed = 1;
nodes = (
(64,2048,l),
(740,0,l),
(1500,0,l),
(2176,2048,l),
(1548,2048,l),
(1128,604,l),
(1112,604,l),
(692,2048,l)
);
}
);
width = 2240;
},
{
anchors = (
{
name = bottom;
pos = (1116,0);
},
{
name = top;
pos = (1116,2180);
}
);
associatedMasterId = "5C20EF92-B63D-42A8-8878-93C2863E0093";
guides = (
{
orientation = center;
angle = 90;
pos = (1040,1048);
}
);
layerId = "B0E2023B-B6D1-4711-B977-6B7F091C03CB";
name = "Oct 2 18, 14:43";
shapes = (
{
closed = 1;
nodes = (
(64,2048,l),
(760,0,l),
(1472,0,l),
(2168,2048,l),
(1552,2048,l),
(1128,684,l),
(1104,684,l),
(680,2048,l)
);
}
);
width = 2232;
},
{
anchors = (
{
name = bottom;
pos = (836,0);
},
{
name = top;
pos = (836,2304);
}
);
layerId = "B1F27B51-9973-4381-9301-4FE46FE1CA59";
shapes = (
{
closed = 1;
nodes = (
(60,2048,l),
(792,0,l),
(880,0,l),
(1612,2048,l),
(1544,2048,l),
(840,80,l),
(832,80,l),
(128,2048,l)
);
}
);
width = 1672;
},
{
anchors = (
{
name = bottom;
pos = (934,0);
},
{
name = top;
pos = (934,2304);
}
);
layerId = "CD0E3B44-F66A-4791-B84C-A1128DC61275";
shapes = (
{
closed = 1;
nodes = (
(50,2048,l),
(800,0,l),
(1068,0,l),
(1818,2048,l),
(1550,2048,l),
(946,330,l),
(922,330,l),
(320,2048,l)
);
}
);
width = 1868;
}
);
metricLeft = A;
metricRight = A;
unicode = 86;
userData = {
com.typemytype.robofont.guideline.magnetic.IJvllllLzF = 5;
com.typemytype.robofont.guideline.magnetic.KeOP4W9VuQ = 5;
com.typemytype.robofont.guideline.magnetic.yHrbtxZ5FX = 5;
"interface.width-adjustments" = (
-16
);
};
}
{
color = (219,235,247,1);
glyphname = Y;
kernLeft = Y;
kernRight = Y;
layers = (
{
anchors = (
{
name = _symbol;
pos = (1076,1024);
},
{
name = bottom;
pos = (1076,0);
},
{
name = cross;
pos = (1076,764);
},
{
name = ogonek;
pos = (1352,0);
},
{
name = tonos;
pos = (-96,2048);
},
{
name = top;
pos = (1076,2304);
}
);
guides = (
{
orientation = center;
angle = 90;
pos = (832,1724);
}
);
layerId = "5C20EF92-B63D-42A8-8878-93C2863E0093";
shapes = (
{
closed = 1;
nodes = (
(800,644,l),
(800,0,l),
(1352,0,l),
(1352,644,l),
(2104,2048,l),
(1484,2048,l),
(1084,1216,l),
(1068,1216,l),
(668,2048,l),
(48,2048,l)
);
}
);
width = 2152;
},
{
anchors = (
{
name = _symbol;
pos = (832,1024);
},
{
name = bottom;
pos = (828,0);
},
{
name = cross;
pos = (832,832);
},
{
name = ogonek;
pos = (864,0);
},
{
name = tonos;
pos = (28,2048);
},
{
name = top;
pos = (832,2304);
}
);
layerId = "B1F27B51-9973-4381-9301-4FE46FE1CA59";
shapes = (
{
closed = 1;
nodes = (
(800,972,l),
(800,0,l),
(864,0,l),
(864,972,l),
(1600,2048,l),
(1520,2048,l),
(836,1044,l),
(828,1044,l),
(144,2048,l),
(64,2048,l)
);
}
);
width = 1664;
},
{
anchors = (
{
name = _symbol;
pos = (840,1024);
},
{
name = bottom;
pos = (840,0);
},
{
name = cross;
pos = (840,848);
},
{
name = tonos;
pos = (40,2048);
},
{
name = top;
pos = (840,2304);
}
);
associatedMasterId = "B1F27B51-9973-4381-9301-4FE46FE1CA59";
background = {
shapes = (
{
closed = 1;
nodes = (
(808,964,l),
(808,0,l),
(872,0,l),
(872,964,l),
(1604,2048,l),
(1524,2048,l),
(852,1020,l),
(824,1020,l),
(156,2048,l),
(72,2048,l)
);
}
);
};
layerId = "519B55C8-6087-452D-A6A5-C177CD7F711A";
name = "Nov 25 18, 15:20";
shapes = (
{
closed = 1;
nodes = (
(808,972,l),
(872,972,l),
(1608,2048,l),
(1528,2048,l),
(844,1044,l),
(836,1044,l),
(152,2048,l),
(72,2048,l)
);
},
{
closed = 1;
nodes = (
(808,0,l),
(872,0,l),
(872,1012,l),
(808,1012,l)
);
}
);
width = 1680;
},
{
anchors = (
{
name = _symbol;
pos = (918,1024);
},
{
name = bottom;
pos = (918,0);
},
{
name = cross;
pos = (918,814);
},
{
name = ogonek;
pos = (1046,0);
},
{
name = tonos;
pos = (-28,2048);
},
{
name = top;
pos = (918,2304);
}
);
layerId = "CD0E3B44-F66A-4791-B84C-A1128DC61275";
shapes = (
{
closed = 1;
nodes = (
(790,840,l),
(790,0,l),
(1046,0,l),
(1046,840,l),
(1786,2048,l),
(1494,2048,l),
(930,1096,l),
(906,1096,l),
(342,2048,l),
(50,2048,l)
);
}
);
width = 1836;
}
);
unicode = 89;
userData = {
com.typemytype.robofont.guideline.magnetic.KceIXUepDd = 5;
com.typemytype.robofont.guideline.magnetic.TWkdg41wEI = 5;
com.typemytype.robofont.guideline.magnetic.o5DXjGQkF9 = 5;
"interface.width-adjustments" = (
-16
);
};
}
{
color = (219,235,247,1);
glyphname = c;
kernLeft = c;
kernRight = c;
layers = (
{
anchors = (
{
name = _symbol;
pos = (854,764);
},
{
name = cedilla;
pos = (884,0);
},
{
name = top;
pos = (884,1792);
}
);
background = {
shapes = (
{
pos = (-8,0);
ref = o;
}
);
};
guides = (
{
pos = (936,896);
},
{
angle = 90;
pos = (736,744);
},
{
pos = (936,768);
},
{
pos = (936,640);
}
);
layerId = "5C20EF92-B63D-42A8-8878-93C2863E0093";
shapes = (
{
closed = 1;
nodes = (
(1335,-28,o),
(1614,233,o),
(1620,640,c),
(1108,640,l),
(1096,479,o),
(1009,392,o),
(888,392,cs),
(743,392,o),
(648,516,o),
(648,768,cs),
(648,1020,o),
(743,1144,o),
(888,1144,cs),
(1010,1144,o),
(1093,1057,o),
(1108,896,c),
(1620,896,l),
(1617,1296,o),
(1332,1556,o),
(880,1556,cs),
(380,1556,o),
(84,1236,o),
(84,764,cs),
(84,292,o),
(380,-28,o),
(880,-28,cs)
);
}
);
width = 1708;
},
{
anchors = (
{
name = _symbol;
pos = (828,764);
},
{
name = bottom_dd;
pos = (1608,-560);
},
{
name = cedilla;
pos = (840,0);
},
{
name = marktop;
pos = (840,1768);
},
{
name = top;
pos = (840,1768);
},
{
name = top0315;
pos = (1596,1776);
},
{
name = top_dd;
pos = (1608,2200);
}
);
associatedMasterId = "5C20EF92-B63D-42A8-8878-93C2863E0093";
background = {
shapes = (
{
pos = (8,0);
ref = o;
}
);
};
guides = (
{
pos = (1100,896);
},
{
angle = 90;
pos = (840,744);
},
{
pos = (1100,768);
},
{
pos = (1100,640);
}
);
layerId = "2B3DB753-D8C7-4815-88D6-30EE8E924DF3";
name = "Oct 6 18, 11:04";
shapes = (
{
closed = 1;
nodes = (
(1284,-28,o),
(1566,236,o),
(1568,640,c),
(1076,640,l),
(1062,485,o),
(988,404,o),
(860,404,cs),
(716,404,o),
(624,540,o),
(624,768,cs),
(624,996,o),
(716,1132,o),
(860,1132,cs),
(988,1132,o),
(1062,1051,o),
(1076,896,c),
(1568,896,l),
(1568,1296,o),
(1280,1556,o),
(848,1556,cs),
(372,1556,o),
(92,1240,o),
(92,764,cs),
(92,288,o),
(372,-28,o),
(848,-28,cs)
);
}
);
width = 1656;
},
{
anchors = (
{
name = _symbol;
pos = (746,764);
},
{
name = cedilla;
pos = (776,0);
},
{
name = top;
pos = (776,1792);
}
);
guides = (
{
angle = 90;
pos = (672,2200);
}
);
layerId = "B1F27B51-9973-4381-9301-4FE46FE1CA59";
shapes = (
{
closed = 1;
nodes = (
(1072,-32,o),
(1299,158,o),
(1344,448,c),
(1276,448,l),
(1239,197,o),
(1037,32,o),
(792,32,cs),
(450,32,o),
(212,355,o),
(212,764,cs),
(212,1184,o),
(461,1496,o),
(792,1496,cs),
(1034,1496,o),
(1231,1329,o),
(1272,1088,c),
(1340,1088,l),
(1293,1368,o),
(1067,1560,o),
(792,1560,cs),
(417,1560,o),
(148,1214,o),
(148,764,cs),
(148,310,o),
(419,-32,o),
(792,-32,cs)
);
}
);
width = 1492;
},
{
anchors = (
{
name = _symbol;
pos = (767,762);
},
{
name = cedilla;
pos = (814,0);
},
{
name = top;
pos = (814,1792);
}
);
layerId = "CD0E3B44-F66A-4791-B84C-A1128DC61275";
shapes = (
{
closed = 1;
nodes = (
(1164,-32,o),
(1390,178,o),
(1428,452,c),
(1186,452,l),
(1142,284,o),
(1004,186,o),
(822,186,cs),
(544,186,o),
(366,414,o),
(366,768,cs),
(366,1114,o),
(548,1340,o),
(822,1340,cs),
(1028,1340,o),
(1150,1212,o),
(1186,1072,c),
(1428,1072,l),
(1390,1362,o),
(1144,1556,o),
(818,1556,cs),
(400,1556,o),
(122,1228,o),
(122,760,cs),
(122,300,o),
(388,-32,o),
(822,-32,cs)
);
}
);
width = 1534;
}
);
metricLeft = o;
unicode = 99;
userData = {
com.typemytype.robofont.guideline.magnetic.woLfa0Gzpt = 5;
"interface.width-adjustments" = (
-16
);
};
}
{
color = (219,235,247,1);
glyphname = k;
kernLeft = B;
kernRight = k;
layers = (
{
anchors = (
{
name = _symbol;
pos = (854,1024);
},
{
name = bottom;
pos = (864,0);
},
{
name = top;
pos = (416,2304);
}
);
guides = (
{
angle = 90;
pos = (268,1952);
}
);
layerId = "5C20EF92-B63D-42A8-8878-93C2863E0093";
shapes = (
{
closed = 1;
nodes = (
(924,732,l),
(1080,732,l),
(1704,1536,l),
(1084,1536,l),
(712,1020,l),
(640,1020,l),
(636,364,l)
);
},
{
closed = 1;
nodes = (
(692,0,l),
(692,2048,l),
(140,2048,l),
(140,0,l)
);
},
{
closed = 1;
nodes = (
(1720,0,l),
(1096,1000,l),
(736,608,l),
(1088,0,l)
);
}
);
width = 1708;
},
{
anchors = (
{
name = _symbol;
pos = (654,1024);
},
{
name = bottom;
pos = (708,0);
},
{
name = top;
pos = (272,2304);
}
);
guides = (
{
angle = 90;
pos = (168,2408);
}
);
layerId = "B1F27B51-9973-4381-9301-4FE46FE1CA59";
shapes = (
{
closed = 1;
nodes = (
(512,840,l),
(520,848,l),
(1220,1536,l),
(1128,1536,l),
(312,736,l),
(288,736,l),
(288,620,l)
);
},
{
closed = 1;
nodes = (
(304,0,l),
(304,2048,l),
(240,2048,l),
(240,0,l)
);
},
{
closed = 1;
nodes = (
(1244,0,l),
(536,888,l),
(488,848,l),
(1160,0,l)
);
}
);
width = 1308;
},
{
anchors = (
{
name = _symbol;
pos = (748,1024);
},
{
name = bottom;
pos = (774,0);
},
{
name = top;
pos = (318,2304);
}
);
layerId = "CD0E3B44-F66A-4791-B84C-A1128DC61275";
shapes = (
{
closed = 1;
nodes = (
(694,810,l),
(716,810,l),
(1430,1536,l),
(1130,1536,l),
(466,856,l),
(418,856,l),
(422,556,l)
);
},
{
closed = 1;
nodes = (
(438,0,l),
(438,2048,l),
(194,2048,l),
(194,0,l)
);
},
{
closed = 1;
nodes = (
(1478,0,l),
(748,926,l),
(576,756,l),
(1170,0,l)
);
}
);
width = 1496;
}
);
metricLeft = h;
unicode = 107;
userData = {
"interface.width-adjustments" = (
-16
);
};
}
{
color = (219,235,247,1);
glyphname = o;
kernLeft = c;
kernRight = b;
layers = (
{
anchors = (
{
name = _symbol;
pos = (880,764);
},
{
name = bottom;
pos = (880,0);
},
{
name = ogonek;
pos = (1108,0);
},
{
name = top;
pos = (880,1792);
}
);
guides = (
{
pos = (-188,2860);
},
{
pos = (584,768);
},
{
angle = 90;
orientation = center;
pos = (696,768);
}
);
layerId = "5C20EF92-B63D-42A8-8878-93C2863E0093";
shapes = (
{
closed = 1;
nodes = (
(1380,-28,o),
(1676,292,o),
(1676,764,cs),
(1676,1236,o),
(1380,1556,o),
(880,1556,cs),
(380,1556,o),
(84,1236,o),
(84,764,cs),
(84,292,o),
(380,-28,o),
(880,-28,cs)
);
},
{
closed = 1;
nodes = (
(736,380,o),
(648,527,o),
(648,768,cs),
(648,1009,o),
(736,1156,o),
(884,1156,cs),
(1024,1156,o),
(1112,1009,o),
(1112,768,cs),
(1112,527,o),
(1024,380,o),
(884,380,cs)
);
}
);
width = 1760;
},
{
anchors = (
{
name = _symbol;
pos = (784,764);
},
{
name = bottom;
pos = (784,0);
},
{
name = ogonek;
pos = (852,0);
},
{
name = top;
pos = (784,1792);
}
);
background = {
shapes = (
{
closed = 1;
nodes = (
(1199,-24,o),
(1463,280,o),
(1462,760,cs),
(1462,762,ls),
(1463,1243,o),
(1199,1546,o),
(784,1546,cs),
(370,1546,o),
(106,1243,o),
(106,762,cs),
(106,760,ls),
(106,280,o),
(370,-24,o),
(784,-24,cs)
);
},
{
closed = 1;
nodes = (
(437,76,o),
(218,342,o),
(218,760,cs),
(218,762,ls),
(218,1181,o),
(437,1447,o),
(784,1448,cs),
(1131,1447,o),
(1352,1179,o),
(1352,762,cs),
(1352,760,ls),
(1352,344,o),
(1131,76,o),
(784,76,cs)
);
}
);
};
layerId = "B1F27B51-9973-4381-9301-4FE46FE1CA59";
shapes = (
{
closed = 1;
nodes = (
(1146,-32,o),
(1420,311,o),
(1420,764,cs),
(1420,1216,o),
(1145,1560,o),
(784,1560,cs),
(422,1560,o),
(148,1217,o),
(148,764,cs),
(148,311,o),
(422,-32,o),
(784,-32,cs)
);
},
{
closed = 1;
nodes = (
(458,32,o),
(212,347,o),
(212,764,cs),
(212,1179,o),
(460,1496,o),
(784,1496,cs),
(1109,1496,o),
(1356,1180,o),
(1356,764,cs),
(1356,347,o),
(1110,32,o),
(784,32,cs)
);
}
);
width = 1568;
},
{
anchors = (
{
name = _symbol;
pos = (784,764);
},
{
name = bottom;
pos = (784,0);
},
{
name = ogonek;
pos = (852,0);
},
{
name = top;
pos = (784,1792);
}
);
associatedMasterId = "B1F27B51-9973-4381-9301-4FE46FE1CA59";
layerId = "4863AE5E-D65E-4E41-86E3-27B2714317A6";
name = "May 22, 21 14:08";
shapes = (
{
closed = 1;
nodes = (
(1146,-32,o),
(1420,311,o),
(1420,764,cs),
(1420,1216,o),
(1145,1560,o),
(784,1560,cs),
(422,1560,o),
(148,1217,o),
(148,764,cs),
(148,311,o),
(422,-32,o),
(784,-32,cs)
);
},
{
closed = 1;
nodes = (
(458,32,o),
(212,347,o),
(212,764,cs),
(212,1179,o),
(460,1496,o),
(784,1496,cs),
(1109,1496,o),
(1356,1180,o),
(1356,764,cs),
(1356,347,o),
(1110,32,o),
(784,32,cs)
);
}
);
width = 1568;
},
{
anchors = (
{
name = _symbol;
pos = (821,762);
},
{
name = bottom;
pos = (822,0);
},
{
name = ogonek;
pos = (998,0);
},
{
name = top;
pos = (822,1792);
}
);
layerId = "CD0E3B44-F66A-4791-B84C-A1128DC61275";
shapes = (
{
closed = 1;
nodes = (
(1240,-32,o),
(1520,284,o),
(1520,760,cs),
(1520,1240,o),
(1240,1556,o),
(822,1556,cs),
(404,1556,o),
(122,1240,o),
(122,760,cs),
(122,284,o),
(404,-32,o),
(822,-32,cs)
);
},
{
closed = 1;
nodes = (
(510,184,o),
(366,454,o),
(366,760,cs),
(366,1066,o),
(510,1340,o),
(822,1340,cs),
(1132,1340,o),
(1276,1066,o),
(1276,760,cs),
(1276,454,o),
(1132,184,o),
(822,184,cs)
);
}
);
width = 1642;
}
);
unicode = 111;
userData = {
com.typemytype.robofont.guideline.magnetic.k4vPhVkDP6 = 5;
"interface.width-adjustments" = (
-16
);
};
}
{
color = (219,235,247,1);
glyphname = p;
kernLeft = m;
kernRight = b;
layers = (
{
anchors = (
{
name = _symbol;
pos = (912,570);
},
{
name = bottom;
pos = (420,-552);
},
{
name = bottom0315;
pos = (1908,-656);
},
{
name = cross;
pos = (412,-224);
},
{
name = top;
pos = (1000,1792);
}
);
layerId = "5C20EF92-B63D-42A8-8878-93C2863E0093";
shapes = (
{
closed = 1;
nodes = (
(692,-576,l),
(692,252,l),
(700,252,l),
(764,96,o),
(912,-20,o),
(1128,-20,cs),
(1456,-20,o),
(1732,236,o),
(1732,768,c),
(1732,1324,o),
(1436,1556,o),
(1132,1556,cs),
(904,1556,o),
(760,1424,o),
(700,1268,c),
(688,1268,l),
(688,1536,l),
(140,1536,l),
(140,-576,l)
);
},
{
closed = 1;
nodes = (
(680,996,o),
(772,1132,o),
(924,1132,cs),
(1076,1132,o),
(1164,996,o),
(1164,768,cs),
(1164,540,o),
(1076,404,o),
(924,404,cs),
(772,404,o),
(680,544,o),
(680,768,c)
);
}
);
width = 1824;
},
{
anchors = (
{
name = _symbol;
pos = (786,572);
},
{
name = bottom;
pos = (272,-576);
},
{
name = bottom0315;
pos = (1552,-696);
},
{
name = cross;
pos = (272,-224);
},
{
name = top;
pos = (832,1792);
}
);
guides = (
{
angle = 90;
pos = (728,2252);
}
);
layerId = "B1F27B51-9973-4381-9301-4FE46FE1CA59";
metricRight = "=e";
shapes = (
{
closed = 1;
nodes = (
(304,-576,l),
(304,384,l),
(312,384,l),
(392,128,o),
(588,-32,o),
(832,-32,cs),
(1192,-32,o),
(1424,312,o),
(1424,764,cs),
(1424,1218,o),
(1195,1560,o),
(832,1560,cs),
(585,1560,o),
(395,1399,o),
(312,1144,c),
(304,1144,l),
(304,1536,l),
(240,1536,l),
(240,-576,l)
);
},
{
closed = 1;
nodes = (
(304,1180,o),
(506,1496,o),
(832,1496,cs),
(1158,1496,o),
(1360,1180,o),
(1360,764,cs),
(1360,348,o),
(1156,32,o),
(832,32,cs),
(508,32,o),
(304,348,o),
(304,764,cs)
);
}
);
width = 1572;
},
{
anchors = (
{
name = _symbol;
pos = (912,490);
},
{
name = bottom;
pos = (420,-552);
},
{
name = bottom0315;
pos = (1908,-656);
},
{
name = cross;
pos = (412,-224);
},
{
name = marktop;
pos = (1200,1748);
},
{
name = top;
pos = (1200,1748);
}
);
associatedMasterId = "5C20EF92-B63D-42A8-8878-93C2863E0093";
layerId = "03ED4DD9-A7BA-43D3-AC1E-00F08725DEBE";
name = "Nov 25 18, 18:34";
shapes = (
{
closed = 1;
nodes = (
(1457,-20,o),
(1733,236,o),
(1732,768,cs),
(1733,1324,o),
(1437,1556,o),
(1132,1556,cs),
(905,1556,o),
(761,1424,o),
(700,1268,c),
(472,1268,l),
(472,252,l),
(700,252,l),
(763,95,o),
(910,-20,o),
(1128,-20,cs)
);
},
{
closed = 1;
nodes = (
(692,-576,l),
(692,344,l),
(568,768,l),
(688,1184,l),
(688,1536,l),
(140,1536,l),
(140,-576,l)
);
},
{
closed = 1;
nodes = (
(772,404,o),
(681,542,o),
(680,768,cs),
(681,994,o),
(772,1132,o),
(924,1132,cs),
(1076,1132,o),
(1165,997,o),
(1164,768,cs),
(1165,538,o),
(1076,404,o),
(924,404,cs)
);
}
);
width = 1824;
},
{
anchors = (
{
name = _symbol;
pos = (840,570);
},
{
name = bottom;
pos = (314,-576);
},
{
name = bottom0315;
pos = (1686,-680);
},
{
name = cross;
pos = (318,-224);
},
{
name = top;
pos = (886,1792);
}
);
layerId = "CD0E3B44-F66A-4791-B84C-A1128DC61275";
shapes = (
{
closed = 1;
nodes = (
(438,-576,l),
(438,236,l),
(458,236,l),
(510,150,o),
(612,-32,o),
(906,-32,cs),
(1288,-32,o),
(1556,276,o),
(1556,764,cs),
(1556,1250,o),
(1288,1556,o),
(902,1556,cs),
(604,1556,o),
(510,1374,o),
(458,1292,c),
(430,1292,l),
(430,1536,l),
(194,1536,l),
(194,-576,l)
);
},
{
closed = 1;
nodes = (
(434,1110,o),
(584,1338,o),
(870,1338,cs),
(1166,1338,o),
(1312,1090,o),
(1312,768,cs),
(1312,442,o),
(1162,186,o),
(870,186,cs),
(588,186,o),
(434,424,o),
(434,768,cs)
);
}
);
width = 1678;
}
);
metricLeft = m;
unicode = 112;
userData = {
"interface.width-adjustments" = (
-16
);
};
}
{
color = (219,235,247,1);
glyphname = w;
kernLeft = w;
kernRight = w;
layers = (
{
anchors = (
{
name = bottom;
pos = (1220,0);
},
{
name = top;
pos = (1232,1792);
}
);
layerId = "5C20EF92-B63D-42A8-8878-93C2863E0093";
shapes = (
{
closed = 1;
nodes = (
(1008,0,l),
(1224,824,l),
(1240,824,l),
(1456,0,l),
(2052,0,l),
(2436,1536,l),
(1884,1536,l),
(1716,608,l),
(1704,608,l),
(1500,1536,l),
(964,1536,l),
(768,600,l),
(756,600,l),
(580,1536,l),
(28,1536,l),
(412,0,l)
);
}
);
width = 2464;
},
{
anchors = (
{
name = bottom;
pos = (1080,0);
},
{
name = top;
pos = (1080,1792);
}
);
guides = (
{
angle = 90;
pos = (508,548);
},
{
angle = 90;
pos = (1428,568);
}
);
layerId = "B1F27B51-9973-4381-9301-4FE46FE1CA59";
shapes = (
{
closed = 1;
nodes = (
(656,0,l),
(1076,1416,l),
(1084,1416,l),
(1504,0,l),
(1592,0,l),
(2048,1536,l),
(1980,1536,l),
(1552,88,l),
(1544,88,l),
(1112,1536,l),
(1048,1536,l),
(616,88,l),
(608,88,l),
(180,1536,l),
(112,1536,l),
(568,0,l)
);
}
);
width = 2160;
},
{
anchors = (
{
name = bottom;
pos = (1100,0);
},
{
name = marktop;
pos = (1100,1808);
},
{
name = top;
pos = (1092,1808);
}
);
associatedMasterId = "B1F27B51-9973-4381-9301-4FE46FE1CA59";
guides = (
{
angle = 90;
pos = (644,-36);
},
{
angle = 90;
pos = (1564,-16);
}
);
layerId = "D94C3CF8-A275-4D40-AB34-4BDBB3527ECB";
name = "Nov 29 18, 21:37";
shapes = (
{
closed = 1;
nodes = (
(1080,1536,l),
(648,88,l),
(640,88,l),
(212,1536,l),
(144,1536,l),
(600,0,l),
(688,0,l),
(1144,1536,l)
);
},
{
closed = 1;
nodes = (
(1536,0,l),
(1624,0,l),
(2080,1536,l),
(2012,1536,l),
(1584,88,l),
(1576,88,l),
(1144,1536,l),
(1080,1536,l)
);
},
{
closed = 1;
nodes = (
(1100,1416,l),
(1124,1416,l),
(1124,1440,l),
(1100,1440,l)
);
}
);
width = 2224;
},
{
anchors = (
{
name = bottom;
pos = (1126,0);
},
{
name = top;
pos = (1126,1792);
}
);
layerId = "CD0E3B44-F66A-4791-B84C-A1128DC61275";
shapes = (
{
closed = 1;
nodes = (
(782,0,l),
(1114,1172,l),
(1138,1172,l),
(1472,0,l),
(1712,0,l),
(2178,1536,l),
(1922,1536,l),
(1594,370,l),
(1578,370,l),
(1258,1536,l),
(998,1536,l),
(674,366,l),
(658,366,l),
(330,1536,l),
(74,1536,l),
(540,0,l)
);
}
);
width = 2252;
}
);
unicode = 119;
userData = {
com.typemytype.robofont.guideline.magnetic.p3iasCA57f = 5;
"interface.width-adjustments" = (
-16
);
};
}
{
color = (219,235,247,1);
glyphname = x;
kernLeft = x;
kernRight = x;
layers = (
{
anchors = (
{
name = _symbol;
pos = (672,768);
},
{
name = bottom;
pos = (672,0);
},
{
name = cross;
pos = (672,768);
},
{
name = cyrtic;
pos = (1192,8);
},
{
name = right;
pos = (1048,0);
},
{
name = top;
pos = (672,1792);
}
);
layerId = "B1F27B51-9973-4381-9301-4FE46FE1CA59";
shapes = (
{
closed = 1;
nodes = (
(144,1536,l),
(634,768,l),
(144,0,l),
(220,0,l),
(672,710,l),
(1124,0,l),
(1200,0,l),
(710,768,l),
(1200,1536,l),
(1124,1536,l),
(672,826,l),
(220,1536,l)
);
}
);
width = 1344;
},
{
anchors = (
{
name = _symbol;
pos = (704,749);
},
{
name = bottom;
pos = (704,0);
},
{
name = cross;
pos = (704,768);
},
{
name = cyrtic;
pos = (1224,8);
},
{
name = right;
pos = (1080,0);
},
{
name = top;
pos = (704,1808);
}
);
associatedMasterId = "B1F27B51-9973-4381-9301-4FE46FE1CA59";
background = {
shapes = (
{
closed = 1;
nodes = (
(196,1536,l),
(664,800,l),
(156,0,l),
(232,0,l),
(700,740,l),
(1168,0,l),
(1244,0,l),
(736,800,l),
(1204,1536,l),
(1128,1536,l),
(700,860,l),
(272,1536,l)
);
}
);
};
layerId = "78F98701-1DBB-4B7B-83A9-2AB1692D6715";
name = wire;
shapes = (
{
closed = 0;
nodes = (
(1224,1582,l),
(160,-84,l)
);
},
{
closed = 0;
nodes = (
(184,1582,l),
(1248,-84,l)
);
}
);
width = 1408;
},
{
anchors = (
{
name = _symbol;
pos = (712,764);
},
{
name = bottom;
pos = (712,0);
},
{
name = cross;
pos = (712,768);
},
{
name = cyrtic;
pos = (1232,8);
},
{
name = right;
pos = (1088,0);
},
{
name = top;
pos = (712,1808);
}
);
associatedMasterId = "B1F27B51-9973-4381-9301-4FE46FE1CA59";
background = {
shapes = (
{
closed = 1;
nodes = (
(120,1536,l),
(608,768,l),
(120,0,l),
(392,0,l),
(760,596,l),
(1128,0,l),
(1400,0,l),
(904,768,l),
(1400,1536,l),
(1128,1536,l),
(760,908,l),
(392,1536,l)
);
}
);
};
layerId = "6128E19C-94ED-4BED-B5FD-2112784C3FDC";
name = "Nov 29 18, 21:50";
shapes = (
{
closed = 0;
nodes = (
(1264,1580,l),
(224,-52,l)
);
},
{
closed = 0;
nodes = (
(268,1580,l),
(1308,-52,l)
);
}
);
width = 1424;
},
{
anchors = (
{
name = _symbol;
pos = (700,768);
},
{
name = bottom;
pos = (700,0);
},
{
name = cross;
pos = (700,800);
},
{
name = cyrtic;
pos = (1236,48);
},
{
name = right;
pos = (1184,0);
},
{
name = top;
pos = (700,1792);
}
);
associatedMasterId = "B1F27B51-9973-4381-9301-4FE46FE1CA59";
layerId = "226692CE-6A37-4EA2-965D-8359C597724D";
name = "Mar 31 19, 11:39";
shapes = (
{
closed = 1;
nodes = (
(196,1536,l),
(664,800,l),
(156,0,l),
(232,0,l),
(700,740,l),
(1168,0,l),
(1244,0,l),
(736,800,l),
(1204,1536,l),
(1128,1536,l),
(700,860,l),
(272,1536,l)
);
}
);
width = 1400;
},
{
anchors = (
{
name = _symbol;
pos = (840,768);
},
{
name = bottom;
pos = (840,0);
},
{
name = cross;
pos = (840,768);
},
{
name = cyrtic;
pos = (1572,224);
},
{
name = right;
pos = (1344,0);
},
{
name = top;
pos = (840,1792);
}
);
layerId = "5C20EF92-B63D-42A8-8878-93C2863E0093";
shapes = (
{
closed = 1;
nodes = (
(64,1536,l),
(472,768,l),
(36,0,l),
(588,0,l),
(840,488,l),
(1100,0,l),
(1644,0,l),
(1212,768,l),
(1624,1536,l),
(1076,1536,l),
(840,1060,l),
(616,1536,l)
);
}
);
width = 1680;
},
{
anchors = (
{
name = _symbol;
pos = (742,768);
},
{
name = bottom;
pos = (742,0);
},
{
name = cross;
pos = (742,768);
},
{
name = cyrtic;
pos = (1346,92);
},
{
name = right;
pos = (1168,0);
},
{
name = top;
pos = (742,1792);
}
);
layerId = "CD0E3B44-F66A-4791-B84C-A1128DC61275";
shapes = (
{
closed = 1;
nodes = (
(98,1536,l),
(584,768,l),
(98,0,l),
(378,0,l),
(742,594,l),
(1108,0,l),
(1386,0,l),
(892,768,l),
(1386,1536,l),
(1106,1536,l),
(742,912,l),
(378,1536,l)
);
}
);
width = 1484;
}
);
unicode = 120;
userData = {
com.typemytype.robofont.guideline.magnetic.lFaJLQuFPv = 5;
"interface.width-adjustments" = (
-16
);
};
}
{
color = (219,235,247,1);
glyphname = y;
kernLeft = v;
kernRight = v;
layers = (
{
anchors = (
{
name = bottom;
pos = (1390,0);
},
{
name = ogonek;
pos = (1114,-576);
},
{
name = top;
pos = (848,1792);
}
);
background = {
shapes = (
{
ref = v;
}
);
};
layerId = "5C20EF92-B63D-42A8-8878-93C2863E0093";
shapes = (
{
closed = 1;
nodes = (
(862,-576,o),
(1043,-382,o),
(1128,-128,cs),
(1688,1536,l),
(1108,1536,l),
(856,472,l),
(840,472,l),
(592,1536,l),
(16,1536,l),
(556,-68,l),
(546,-92,ls),
(519,-156,o),
(465,-164,o),
(392,-164,cs),
(330,-164,o),
(260,-164,o),
(184,-158,c),
(184,-568,l),
(257,-574,o),
(352,-576,o),
(456,-576,cs)
);
}
);
width = 1704;
},
{
anchors = (
{
name = bottom;
pos = (984,-118);
},
{
name = ogonek;
pos = (738,-576);
},
{
name = top;
pos = (704,1792);
}
);
layerId = "B1F27B51-9973-4381-9301-4FE46FE1CA59";
shapes = (
{
closed = 1;
nodes = (
(460,-576,o),
(581,-473,o),
(650,-280,cs),
(1296,1536,l),
(1228,1536,l),
(708,80,l),
(700,80,l),
(180,1536,l),
(112,1536,l),
(672,-28,l),
(590,-256,ls),
(509,-481,o),
(372,-514,o),
(270,-514,cs),
(258,-514,o),
(248,-512,o),
(242,-512,c),
(242,-576,l),
(248,-576,o),
(260,-576,o),
(270,-576,cs)
);
}
);
width = 1408;
},
{
anchors = (
{
name = bottom;
pos = (984,-118);
},
{
name = ogonek;
pos = (738,-576);
},
{
name = top;
pos = (704,1792);
}
);
associatedMasterId = "B1F27B51-9973-4381-9301-4FE46FE1CA59";
layerId = "51A87224-F0C5-4E35-85DD-F4B2F787A5EE";
name = "May 15, 21 16:47";
shapes = (
{
closed = 1;
nodes = (
(460,-576,o),
(581,-473,o),
(650,-280,cs),
(1296,1536,l),
(1228,1536,l),
(708,80,l),
(700,80,l),
(180,1536,l),
(112,1536,l),
(672,-28,l),
(590,-256,ls),
(507,-486,o),
(360,-565,o),
(162,-480,c),
(138,-536,l),
(198,-562,o),
(258,-576,o),
(310,-576,cs)
);
}
);
width = 1408;
},
{
anchors = (
{
name = bottom;
pos = (1414,0);
},
{
name = ogonek;
pos = (1138,-576);
},
{
name = top;
pos = (872,1792);
}
);
associatedMasterId = "5C20EF92-B63D-42A8-8878-93C2863E0093";
background = {
shapes = (
{
ref = v;
}
);
};
layerId = "D2B36FD0-9DC2-4147-9A0F-945C8392DE10";
name = "May 15, 21 16:47";
shapes = (
{
closed = 1;
nodes = (
(886,-576,o),
(1067,-382,o),
(1152,-128,cs),
(1712,1536,l),
(1132,1536,l),
(880,472,l),
(864,472,l),
(616,1536,l),
(40,1536,l),
(580,-68,l),
(568,-96,ls),
(531,-181,o),
(424,-178,o),
(288,-130,c),
(168,-522,l),
(254,-556,o),
(373,-576,o),
(500,-576,cs)
);
}
);
width = 1752;
},
{
anchors = (
{
name = bottom;
pos = (1150,-66);
},
{
name = ogonek;
pos = (978,-576);
},
{
name = top;
pos = (766,1792);
}
);
layerId = "CD0E3B44-F66A-4791-B84C-A1128DC61275";
shapes = (
{
closed = 1;
nodes = (
(568,-576,o),
(718,-462,o),
(808,-222,cs),
(1458,1536,l),
(1194,1536,l),
(774,316,l),
(758,316,l),
(338,1536,l),
(74,1536,l),
(642,-10,l),
(598,-128,ls),
(516,-352,o),
(432,-358,o),
(334,-358,cs),
(296,-358,o),
(240,-356,o),
(216,-354,c),
(214,-570,l),
(246,-574,o),
(298,-576,o),
(350,-576,cs)
);
}
);
width = 1532;
}
);
metricLeft = v;
metricRight = v;
unicode = 121;
userData = {
com.typemytype.robofont.guideline.magnetic.lsCjxlYELh = 5;
"interface.width-adjustments" = (
-16
);
};
}
{
color = (219,235,247,1);
glyphname = z;
kernLeft = z;
kernRight = z;
layers = (
{
anchors = (
{
name = bottom;
pos = (840,0);
},
{
name = cross;
pos = (828,768);
},
{
name = top;
pos = (832,1792);
}
);
guides = (
{
angle = 51.5719;
pos = (964,736);
},
{
angle = 90;
pos = (1356,484);
},
{
angle = 51.5719;
pos = (372,740);
},
{
angle = 90;
pos = (8,484);
}
);
layerId = "5C20EF92-B63D-42A8-8878-93C2863E0093";
shapes = (
{
closed = 1;
nodes = (
(1504,0,l),
(1504,420,l),
(868,420,l),
(868,428,l),
(1480,1200,l),
(1480,1536,l),
(180,1536,l),
(180,1116,l),
(828,1116,l),
(828,1108,l),
(156,304,l),
(156,0,l)
);
}
);
width = 1668;
},
{
anchors = (
{
name = bottom;
pos = (660,0);
},
{
name = cross;
pos = (684,768);
},
{
name = top;
pos = (684,1792);
}
);
guides = (
{
angle = 90;
pos = (1080,2016);
},
{
angle = 90;
pos = (80,540);
}
);
layerId = "B1F27B51-9973-4381-9301-4FE46FE1CA59";
shapes = (
{
closed = 1;
nodes = (
(1224,0,l),
(1224,64,l),
(264,64,l),
(264,72,l),
(1184,1472,l),
(1184,1536,l),
(244,1536,l),
(244,1472,l),
(1104,1472,l),
(1104,1464,l),
(184,64,l),
(184,0,l)
);
}
);
width = 1368;
},
{
anchors = (
{
name = bottom;
pos = (732,0);
},
{
name = cross;
pos = (740,768);
},
{
name = top;
pos = (740,1792);
}
);
layerId = "CD0E3B44-F66A-4791-B84C-A1128DC61275";
shapes = (
{
closed = 1;
nodes = (
(1358,0,l),
(1358,224,l),
(488,224,l),
(488,240,l),
(1330,1344,l),
(1330,1536,l),
(178,1536,l),
(178,1312,l),
(1016,1312,l),
(1016,1296,l),
(150,184,l),
(150,0,l)
);
}
);
width = 1484;
}
);
unicode = 122;
userData = {
com.typemytype.robofont.guideline.magnetic.R2Ni5F405P = 5;
"interface.width-adjustments" = (
-16
);
};
}
{
color = (204,240,242,1);
glyphname = cent;
kernLeft = c;
kernRight = c;
layers = (
{
guides = (
{
angle = 90;
orientation = center;
pos = (1324,1372);
}
);
layerId = "5C20EF92-B63D-42A8-8878-93C2863E0093";
shapes = (
{
closed = 1;
nodes = (
(968,0,l),
(968,2048,l),
(804,2048,l),
(804,0,l)
);
},
{
pos = (0,260);
ref = c;
}
);
width = 1708;
},
{
layerId = "B1F27B51-9973-4381-9301-4FE46FE1CA59";
shapes = (
{
closed = 1;
nodes = (
(818,0,l),
(818,2048,l),
(754,2048,l),
(754,0,l)
);
},
{
alignment = -1;
pos = (0,260);
ref = c;
}
);
width = 1492;
},
{
layerId = "CD0E3B44-F66A-4791-B84C-A1128DC61275";
shapes = (
{
closed = 1;
nodes = (
(888,0,l),
(888,2048,l),
(724,2048,l),
(724,0,l)
);
},
{
alignment = -1;
pos = (0,262);
ref = c;
}
);
width = 1534;
}
);
metricLeft = c;
metricRight = c;
unicode = 162;
userData = {
com.typemytype.robofont.guideline.magnetic.Wyvc05k93r = 5;
"interface.width-adjustments" = (
-16
);
};
}
{
glyphname = sterling;
layers = (
{
layerId = "6A41ACB5-2AAC-465C-BCAE-24D3A04AB6EB";
shapes = (
{
closed = 1;
nodes = (
(1451,805,l),
(209,805,l),
(209,1232,l),
(1451,1232,l)
);
},
{
closed = 1;
nodes = (
(1802,0,l),
(209,0,l),
(209,441,l),
(1802,441,l)
);
},
{
closed = 1;
nodes = (
(1282,1450,l),
(1285,1470,o),
(1287,1488,o),
(1287,1510,cs),
(1287,1636,o),
(1233,1694,o),
(1114,1694,cs),
(1027,1694,o),
(982,1630,o),
(987,1519,cs),
(1000,1235,o),
(1029,926,o),
(1029,644,cs),
(1029,472,o),
(932,374,o),
(662,274,c),
(365,441,l),
(432,457,o),
(453,493,o),
(453,593,cs),
(453,910,o),
(427,1228,o),
(427,1546,cs),
(427,1910,o),
(685,2135,o),
(1103,2135,cs),
(1544,2135,o),
(1818,1895,o),
(1818,1510,cs),
(1818,1489,o),
(1816,1469,o),
(1813,1450,c)
);
}
);
width = 2025;
},
{
layerId = "28A177B5-0956-42F8-BAED-12F27A5BC12D";
shapes = (
{
closed = 1;
nodes = (
(1177,908,l),
(181,908,l),
(181,1143,l),
(1177,1143,l)
);
},
{
closed = 1;
nodes = (
(1663,0,l),
(189,0,l),
(189,235,l),
(1663,235,l)
);
},
{
closed = 1;
nodes = (
(1366,1524,l),
(1368,1541,o),
(1369,1556,o),
(1369,1584,cs),
(1369,1771,o),
(1224,1898,o),
(1004,1898,cs),
(798,1898,o),
(628,1720,o),
(636,1513,cs),
(648,1190,o),
(670,863,o),
(670,540,cs),
(670,330,o),
(635,215,o),
(554,156,c),
(291,235,l),
(363,253,o),
(419,396,o),
(419,562,cs),
(419,885,o),
(390,1209,o),
(390,1533,cs),
(390,1890,o),
(652,2135,o),
(1032,2135,cs),
(1394,2135,o),
(1621,1923,o),
(1621,1584,cs),
(1621,1552,o),
(1620,1536,o),
(1618,1524,c)
);
}
);
width = 1827;
},
{
layerId = "8671969F-3A1F-498B-820E-7B92451713B1";
shapes = (
{
closed = 1;
nodes = (
(1120,994,l),
(229,994,l),
(229,1059,l),
(1120,1059,l)
);
},
{
closed = 1;
nodes = (
(1513,0,l),
(229,0,l),
(229,65,l),
(1513,65,l)
);
},
{
closed = 1;
nodes = (
(1485,1632,l),
(1490,1660,o),
(1493,1684,o),
(1493,1705,cs),
(1493,1907,o),
(1297,2070,o),
(1052,2070,cs),
(769,2070,o),
(577,1868,o),
(577,1571,cs),
(577,1176,o),
(605,781,o),
(605,386,cs),
(605,158,o),
(518,20,o),
(362,3,c),
(337,65,l),
(464,67,o),
(540,188,o),
(540,386,cs),
(540,779,o),
(509,1172,o),
(509,1564,cs),
(509,1902,o),
(730,2135,o),
(1052,2135,cs),
(1331,2135,o),
(1560,1941,o),
(1560,1704,cs),
(1560,1677,o),
(1558,1654,o),
(1553,1632,c)
);
}
);
width = 1827;
}
);
unicode = 163;
}
{
color = (204,240,242,1);
glyphname = brokenbar;
layers = (
{
guides = (
{
pos = (680,1092);
},
{
pos = (716,576);
}
);
layerId = "5C20EF92-B63D-42A8-8878-93C2863E0093";
shapes = (
{
closed = 1;
nodes = (
(300,-288,l),
(840,-288,l),
(840,776,l),
(300,776,l)
);
},
{
closed = 1;
nodes = (
(300,2336,l),
(300,1276,l),
(840,1276,l),
(840,2336,l)
);
}
);
width = 1140;
},
{
layerId = "B1F27B51-9973-4381-9301-4FE46FE1CA59";
shapes = (
{
closed = 1;
nodes = (
(320,-288,l),
(384,-288,l),
(384,776,l),
(320,776,l)
);
},
{
closed = 1;
nodes = (
(320,2336,l),
(320,1276,l),
(384,1276,l),
(384,2336,l)
);
}
);
width = 704;
},
{
layerId = "CD0E3B44-F66A-4791-B84C-A1128DC61275";
shapes = (
{
closed = 1;
nodes = (
(338,-288,l),
(546,-288,l),
(546,776,l),
(338,776,l)
);
},
{
closed = 1;
nodes = (
(338,2336,l),
(338,1276,l),
(546,1276,l),
(546,2336,l)
);
}
);
width = 884;
},
{
associatedMasterId = "5C20EF92-B63D-42A8-8878-93C2863E0093";
guides = (
{
pos = (680,1092);
},
{
pos = (716,576);
}
);
layerId = "E7E52D30-7B52-46F2-A490-99D5FA503719";
name = "Jun 16, 21 23:13";
shapes = (
{
closed = 1;
nodes = (
(316,-384,l),
(804,-384,l),
(804,584,l),
(316,584,l)
);
},
{
closed = 1;
nodes = (
(316,2048,l),
(316,1084,l),
(804,1084,l),
(804,2048,l)
);
}
);
width = 1120;
},
{
associatedMasterId = "B1F27B51-9973-4381-9301-4FE46FE1CA59";
layerId = "A0F997F1-CA4B-4672-A8EA-686A285B918B";
name = "Jun 16, 21 23:13";
shapes = (
{
closed = 1;
nodes = (
(198,-384,l),
(262,-384,l),
(262,532,l),
(198,532,l)
);
},
{
closed = 1;
nodes = (
(198,2048,l),
(198,1136,l),
(262,1136,l),
(262,2048,l)
);
}
);
width = 462;
}
);
metricLeft = bar;
metricRight = bar;
unicode = 166;
userData = {
com.typemytype.robofont.guideline.magnetic.7XIyiEEc60 = 5;
com.typemytype.robofont.guideline.magnetic.MxvJVkfsW3 = 5;
com.typemytype.robofont.guideline.magnetic.YQqXyZ7Bm4 = 5;
interface.gridadjust.original = "{'width': 690, 'leftMargin': 199, 'rightMargin': 216}";
"interface.width-adjustments" = (
-16
);
};
}
{
glyphname = section;
layers = (
{
guides = (
{
pos = (-132,2372);
},
{
pos = (-132,860);
},
{
angle = 90;
pos = (1544,0);
},
{
angle = 90;
pos = (88,0);
}
);
layerId = "5C20EF92-B63D-42A8-8878-93C2863E0093";
shapes = (
{
closed = 1;
nodes = (
(1491,1840,o),
(1231,2076,o),
(852,2076,c),
(479,2076,o),
(219,1844,o),
(220,1532,c),
(219,1360,o),
(295,1232,o),
(408,1124,c),
(408,1124,l),
(347,1108,o),
(195,1084,o),
(172,900,cs),
(131,576,o),
(395,460,o),
(508,420,cs),
(888,280,ls),
(947,256,o),
(1051,204,o),
(1052,132,cs),
(1051,68,o),
(963,48,o),
(892,44,cs),
(751,32,o),
(679,80,o),
(680,160,c),
(208,160,l),
(207,-184,o),
(479,-412,o),
(884,-412,cs),
(1267,-412,o),
(1531,-196,o),
(1532,132,cs),
(1531,300,o),
(1463,428,o),
(1340,536,c),
(1348,540,l),
(1395,552,o),
(1555,584,o),
(1580,764,cs),
(1623,1084,o),
(1355,1200,o),
(1248,1240,cs),
(868,1384,l),
(799,1400,o),
(695,1452,o),
(696,1532,cs),
(695,1624,o),
(795,1624,o),
(852,1624,cs),
(959,1624,o),
(1019,1580,o),
(1020,1524,c),
(1492,1524,l)
);
},
{
closed = 1;
nodes = (
(1127,696,o),
(1103,688,o),
(1056,704,cs),
(748,808,ls),
(627,848,o),
(587,904,o),
(604,936,c),
(619,964,o),
(643,976,o),
(704,956,cs),
(1000,856,ls),
(1127,812,o),
(1159,764,o),
(1144,728,cs)
);
}
);
width = 1748;
},
{
layerId = "B1F27B51-9973-4381-9301-4FE46FE1CA59";
shapes = (
{
closed = 1;
nodes = (
(1144,1892,o),
(976,2076,o),
(716,2076,cs),
(456,2076,o),
(272,1884,o),
(272,1648,cs),
(272,1488,o),
(356,1388,o),
(496,1292,c),
(496,1284,l),
(284,1296,o),
(152,1152,o),
(152,968,cs),
(152,788,o),
(280,676,o),
(624,476,cs),
(796,376,ls),
(1068,216,o),
(1132,132,o),
(1132,0,cs),
(1132,-220,o),
(948,-352,o),
(712,-352,cs),
(460,-352,o),
(292,-196,o),
(276,32,c),
(212,32,l),
(228,-236,o),
(432,-416,o),
(712,-416,cs),
(992,-416,o),
(1196,-256,o),
(1196,0,cs),
(1196,132,o),
(1140,228,o),
(924,372,c),
(924,376,l),
(1118,376,o),
(1276,504,o),
(1276,684,cs),
(1276,920,o),
(1036,1040,o),
(816,1172,cs),
(648,1272,ls),
(480,1372,o),
(336,1452,o),
(336,1648,cs),
(336,1848,o),
(488,2012,o),
(716,2012,cs),
(948,2012,o),
(1084,1844,o),
(1096,1636,c),
(1160,1636,l)
);
},
{
closed = 1;
nodes = (
(1212,504,o),
(1028,416,o),
(828,432,c),
(648,536,ls),
(348,709,o),
(216,812,o),
(216,976,cs),
(216,1132,o),
(332,1252,o),
(584,1236,c),
(792,1112,ls),
(988,996,o),
(1212,880,o),
(1212,684,cs)
);
}
);
width = 1428;
},
{
associatedMasterId = "B1F27B51-9973-4381-9301-4FE46FE1CA59";
background = {
shapes = (
{
closed = 0;
nodes = (
(1092,1636,l),
(1089,1888,o),
(935,2045,o),
(700,2044,cs),
(480,2043,o),
(329,1904,o),
(332,1716,cs),
(334,1572,o),
(425,1448,o),
(604,1340,c),
(992,1112,l),
(1161,1010,o),
(1239,899,o),
(1240,748,cs),
(1242,557,o),
(1120,332,o),
(788,400,c)
);
},
{
closed = 0;
nodes = (
(676,1300,l),
(288,1312,o),
(192,1122,o),
(192,924,cs),
(192,771,o),
(249,688,o),
(412,600,c),
(852,368,l),
(1071,254,o),
(1149,177,o),
(1148,28,cs),
(1147,-195,o),
(970,-382,o),
(704,-384,cs),
(452,-386,o),
(263,-220,o),
(260,28,c)
);
}
);
};
layerId = "CDD19325-36E6-4FBE-ACF0-A8DA4E3CFEE2";
name = "Dec 29 18, 22:46";
shapes = (
{
closed = 1;
nodes = (
(932,1276,o),
(1104,1448,o),
(1104,1660,cs),
(1104,1872,o),
(932,2044,o),
(720,2044,cs),
(508,2044,o),
(336,1872,o),
(336,1660,cs),
(336,1448,o),
(508,1276,o),
(720,1276,cs)
);
},
{
closed = 1;
nodes = (
(784,524,o),
(956,696,o),
(956,908,cs),
(956,1120,o),
(784,1292,o),
(572,1292,cs),
(360,1292,o),
(188,1120,o),
(188,908,cs),
(188,696,o),
(360,524,o),
(572,524,cs)
);
},
{
closed = 1;
nodes = (
(1080,364,o),
(1252,536,o),
(1252,748,cs),
(1252,959,o),
(1081,1132,o),
(868,1132,cs),
(656,1132,o),
(484,960,o),
(484,748,cs),
(484,536,o),
(656,364,o),
(868,364,cs)
);
},
{
closed = 1;
nodes = (
(954,-392,o),
(1144,-220,o),
(1144,-8,cs),
(1144,204,o),
(954,376,o),
(720,376,cs),
(486,376,o),
(296,204,o),
(296,-8,cs),
(296,-220,o),
(486,-392,o),
(720,-392,cs)
);
}
);
width = 1440;
},
{
associatedMasterId = "B1F27B51-9973-4381-9301-4FE46FE1CA59";
background = {
shapes = (
{
closed = 1;
nodes = (
(1036,388,l),
(1224,452,o),
(1340,612,o),
(1340,812,cs),
(1340,1032,o),
(1192,1152,o),
(956,1236,cs),
(792,1296,ls),
(608,1364,o),
(480,1464,o),
(480,1648,cs),
(480,1860,o),
(644,2016,o),
(868,2016,cs),
(1104,2016,o),
(1244,1844,o),
(1256,1636,c),
(1320,1636,l),
(1304,1892,o),
(1128,2076,o),
(868,2076,cs),
(608,2076,o),
(416,1892,o),
(416,1648,cs),
(416,1452,o),
(536,1316,o),
(768,1236,cs),
(940,1176,ls),
(1164,1100,o),
(1276,992,o),
(1276,812,cs),
(1276,616,o),
(1152,468,o),
(952,432,c)
);
}
);
};
layerId = "DE9F3623-6C7B-4A2F-8AC9-128063D9F6D8";
name = "Dec 29 18, 22:54";
shapes = (
{
closed = 1;
nodes = (
(740,1284,l),
(548,1236,o),
(416,1147,o),
(416,952,cs),
(416,751,o),
(556,624,o),
(768,500,cs),
(940,400,ls),
(1144,281,o),
(1276,228,o),
(1276,36,cs),
(1276,-180,o),
(1115,-352,o),
(856,-352,cs),
(619,-352,o),
(460,-208,o),
(444,4,c),
(380,4,l),
(396,-252,o),
(589,-416,o),
(856,-416,cs),
(1145,-416,o),
(1340,-212,o),
(1340,36,cs),
(1340,268,o),
(1170,330,o),
(956,460,cs),
(792,560,ls),
(625,662,o),
(480,760,o),
(480,952,cs),
(480,1137,o),
(615,1211,o),
(808,1236,c)
);
},
{
closed = 1;
nodes = (
(1036,388,l),
(1224,452,o),
(1340,582,o),
(1340,772,cs),
(1340,1002,o),
(1170,1066,o),
(956,1196,cs),
(792,1296,ls),
(625,1398,o),
(480,1456,o),
(480,1648,cs),
(480,1852,o),
(641,2016,o),
(868,2016,cs),
(1101,2016,o),
(1244,1844,o),
(1256,1636,c),
(1320,1636,l),
(1304,1892,o),
(1128,2076,o),
(868,2076,cs),
(608,2076,o),
(416,1885,o),
(416,1648,cs),
(416,1445,o),
(556,1359,o),
(768,1236,cs),
(940,1136,ls),
(1144,1017,o),
(1276,963,o),
(1276,772,cs),
(1276,587,o),
(1152,468,o),
(952,432,c)
);
}
);
width = 1724;
},
{
associatedMasterId = "B1F27B51-9973-4381-9301-4FE46FE1CA59";
background = {
shapes = (
{
closed = 1;
nodes = (
(1036,388,l),
(1224,452,o),
(1340,612,o),
(1340,812,cs),
(1340,1032,o),
(1192,1152,o),
(956,1236,cs),
(792,1296,ls),
(608,1364,o),
(480,1464,o),
(480,1648,cs),
(480,1860,o),
(644,2016,o),
(868,2016,cs),
(1104,2016,o),
(1244,1844,o),
(1256,1636,c),
(1320,1636,l),
(1304,1892,o),
(1128,2076,o),
(868,2076,cs),
(608,2076,o),
(416,1892,o),
(416,1648,cs),
(416,1452,o),
(536,1316,o),
(768,1236,cs),
(940,1176,ls),
(1164,1100,o),
(1276,992,o),
(1276,812,cs),
(1276,616,o),
(1152,468,o),
(952,432,c)
);
}
);
};
layerId = "C7FED7E7-F050-4E10-91F7-924DF53D261D";
name = "Dec 29 18, 22:56";
shapes = (
{
closed = 1;
nodes = (
(740,1284,l),
(548,1236,o),
(416,1147,o),
(416,952,cs),
(416,751,o),
(556,624,o),
(768,500,cs),
(940,400,ls),
(1144,281,o),
(1276,228,o),
(1276,36,cs),
(1276,-180,o),
(1115,-352,o),
(856,-352,cs),
(619,-352,o),
(460,-208,o),
(444,4,c),
(380,4,l),
(396,-252,o),
(589,-416,o),
(856,-416,cs),
(1145,-416,o),
(1340,-212,o),
(1340,36,cs),
(1340,268,o),
(1170,330,o),
(956,460,cs),
(792,560,ls),
(625,662,o),
(480,760,o),
(480,952,cs),
(480,1137,o),
(615,1211,o),
(808,1236,c)
);
},
{
closed = 1;
nodes = (
(1036,388,l),
(1224,452,o),
(1340,582,o),
(1340,772,cs),
(1340,1002,o),
(1170,1066,o),
(956,1196,cs),
(792,1296,ls),
(625,1398,o),
(480,1456,o),
(480,1648,cs),
(480,1852,o),
(641,2016,o),
(868,2016,cs),
(1101,2016,o),
(1244,1844,o),
(1256,1636,c),
(1320,1636,l),
(1304,1892,o),
(1128,2076,o),
(868,2076,cs),
(608,2076,o),
(416,1885,o),
(416,1648,cs),
(416,1445,o),
(556,1359,o),
(768,1236,cs),
(940,1136,ls),
(1144,1017,o),
(1276,963,o),
(1276,772,cs),
(1276,587,o),
(1152,468,o),
(952,432,c)
);
},
{
closed = 1;
nodes = (
(692,1260,l),
(720,1260,l),
(720,1288,l),
(692,1288,l)
);
},
{
closed = 1;
nodes = (
(1044,384,l),
(1072,384,l),
(1072,412,l),
(1044,412,l)
);
}
);
width = 1724;
},
{
associatedMasterId = "B1F27B51-9973-4381-9301-4FE46FE1CA59";
layerId = "50E48C11-64E1-46AC-8142-BF16B6DB8345";
name = "Dec 29 18, 23:05";
shapes = (
{
closed = 1;
nodes = (
(1108,1892,o),
(932,2076,o),
(672,2076,cs),
(412,2076,o),
(220,1884,o),
(220,1648,cs),
(220,1472,o),
(328,1384,o),
(496,1280,c),
(496,1272,l),
(332,1220,o),
(220,1132,o),
(220,952,cs),
(220,752,o),
(360,624,o),
(572,500,cs),
(744,400,ls),
(948,280,o),
(1080,228,o),
(1080,36,cs),
(1080,-180,o),
(920,-352,o),
(660,-352,cs),
(424,-352,o),
(264,-208,o),
(248,4,c),
(184,4,l),
(200,-252,o),
(392,-416,o),
(660,-416,cs),
(948,-416,o),
(1144,-212,o),
(1144,36,cs),
(1144,224,o),
(1032,300,o),
(876,392,c),
(876,400,l),
(1044,468,o),
(1144,596,o),
(1144,772,cs),
(1144,1004,o),
(976,1068,o),
(760,1196,cs),
(596,1296,ls),
(428,1400,o),
(284,1456,o),
(284,1648,cs),
(284,1852,o),
(444,2016,o),
(672,2016,cs),
(904,2016,o),
(1048,1844,o),
(1060,1636,c),
(1124,1636,l)
);
},
{
closed = 1;
nodes = (
(1080,600,o),
(972,484,o),
(792,440,c),
(596,560,ls),
(428,664,o),
(284,760,o),
(284,952,cs),
(284,1128,o),
(404,1204,o),
(580,1232,c),
(744,1136,ls),
(948,1016,o),
(1080,964,o),
(1080,772,cs)
);
}
);
width = 1328;
},
{
associatedMasterId = "B1F27B51-9973-4381-9301-4FE46FE1CA59";
layerId = "337EE5BE-555D-459D-AAD8-E5BAB50C380C";
name = "Dec 29 18, 23:24";
shapes = (
{
closed = 1;
nodes = (
(460,1284,l),
(237,1301,o),
(100,1157,o),
(100,968,cs),
(100,787,o),
(227,677,o),
(572,476,cs),
(744,376,ls),
(1016,217,o),
(1080,131,o),
(1080,0,cs),
(1080,-218,o),
(894,-352,o),
(660,-352,cs),
(409,-352,o),
(241,-197,o),
(224,32,c),
(160,32,l),
(176,-234,o),
(379,-416,o),
(660,-416,cs),
(940,-416,o),
(1144,-256,o),
(1144,0,cs),
(1144,152,o),
(1072,256,o),
(772,432,cs),
(596,536,ls),
(284,719,o),
(164,808,o),
(164,968,cs),
(164,1131,o),
(281,1252,o),
(536,1236,c)
);
},
{
closed = 1;
nodes = (
(856,380,l),
(1060,363,o),
(1224,499,o),
(1224,684,cs),
(1224,919,o),
(985,1040,o),
(764,1172,cs),
(596,1272,ls),
(428,1372,o),
(284,1453,o),
(284,1648,cs),
(284,1849,o),
(436,2016,o),
(664,2016,cs),
(896,2016,o),
(1032,1844,o),
(1044,1636,c),
(1108,1636,l),
(1092,1892,o),
(922,2076,o),
(664,2076,cs),
(402,2076,o),
(220,1882,o),
(220,1648,cs),
(220,1442,o),
(361,1337,o),
(572,1212,cs),
(740,1112,ls),
(936,995,o),
(1160,880,o),
(1160,684,cs),
(1160,504,o),
(977,412,o),
(776,428,c)
);
},
{
closed = 1;
nodes = (
(444,1276,l),
(472,1276,l),
(472,1304,l),
(444,1304,l)
);
},
{
closed = 1;
nodes = (
(844,360,l),
(872,360,l),
(872,388,l),
(844,388,l)
);
}
);
width = 1328;
},
{
layerId = "CD0E3B44-F66A-4791-B84C-A1128DC61275";
shapes = (
{
closed = 1;
nodes = (
(1256,1864,o),
(1062,2076,o),
(752,2076,cs),
(466,2076,o),
(260,1894,o),
(260,1646,cs),
(260,1516,o),
(318,1412,o),
(402,1326,c),
(402,1320,l),
(240,1272,o),
(124,1104,o),
(122,958,cs),
(122,708,o),
(312,574,o),
(416,514,cs),
(804,292,ls),
(898,236,o),
(1018,168,o),
(1018,18,cs),
(1018,-128,o),
(888,-198,o),
(742,-198,cs),
(562,-198,o),
(432,-92,o),
(432,102,c),
(194,102,l),
(194,-220,o),
(424,-416,o),
(742,-416,cs),
(1008,-416,o),
(1252,-278,o),
(1252,18,cs),
(1252,148,o),
(1208,260,o),
(1112,344,c),
(1112,348,l),
(1262,396,o),
(1390,556,o),
(1390,706,cs),
(1392,956,o),
(1202,1086,o),
(1098,1146,cs),
(710,1372,ls),
(614,1428,o),
(494,1526,o),
(494,1646,cs),
(494,1744,o),
(576,1858,o),
(752,1858,cs),
(938,1858,o),
(1022,1732,o),
(1022,1564,c),
(1256,1564,l)
);
},
{
closed = 1;
nodes = (
(1164,544,o),
(992,438,o),
(910,486,cs),
(538,698,ls),
(438,758,o),
(348,834,o),
(348,960,cs),
(348,1124,o),
(502,1238,o),
(588,1186,cs),
(978,962,ls),
(1074,906,o),
(1166,818,o),
(1166,704,c)
);
}
);
width = 1512;
}
);
note = "composed of \"S\" scaled down with RMX Tuner in temporary duplicate file";
unicode = 167;
userData = {
interface.gridadjust.original = "{'width': 1733, 'leftMargin': 121, 'rightMargin': 150}";
"interface.width-adjustments" = (
-16
);
};
}
{
color = (204,240,242,1);
glyphname = dieresis;
layers = (
{
anchors = (
{
name = _top;
pos = (700,1792);
},
{
name = top;
pos = (700,2304);
}
);
guides = (
{
angle = 90;
orientation = center;
pos = (536,1892);
},
{
pos = (508,1948);
}
);
layerId = "5C20EF92-B63D-42A8-8878-93C2863E0093";
shapes = (
{
closed = 1;
nodes = (
(516,1716,o),
(624,1820,o),
(624,1948,cs),
(624,2076,o),
(516,2180,o),
(384,2180,cs),
(248,2180,o),
(140,2076,o),
(140,1948,cs),
(140,1820,o),
(248,1716,o),
(384,1716,cs)
);
},
{
closed = 1;
nodes = (
(1152,1716,o),
(1260,1820,o),
(1260,1948,cs),
(1260,2076,o),
(1152,2180,o),
(1020,2180,cs),
(884,2180,o),
(776,2076,o),
(776,1948,cs),
(776,1820,o),
(884,1716,o),
(1020,1716,cs)
);
}
);
width = 1400;
},
{
anchors = (
{
name = _top;
pos = (896,1792);
},
{
name = top;
pos = (896,2304);
}
);
guides = (
{
pos = (616,2464);
}
);
layerId = "B1F27B51-9973-4381-9301-4FE46FE1CA59";
shapes = (
{
closed = 1;
nodes = (
(739,1816,o),
(768,1845,o),
(768,1880,cs),
(768,1915,o),
(739,1944,o),
(704,1944,cs),
(669,1944,o),
(640,1915,o),
(640,1880,cs),
(640,1845,o),
(669,1816,o),
(704,1816,cs)
);
},
{
closed = 1;
nodes = (
(1123,1816,o),
(1152,1845,o),
(1152,1880,cs),
(1152,1915,o),
(1123,1944,o),
(1088,1944,cs),
(1053,1944,o),
(1024,1915,o),
(1024,1880,cs),
(1024,1845,o),
(1053,1816,o),
(1088,1816,cs)
);
}
);
width = 1792;
},
{
anchors = (
{
name = _top;
pos = (812,1792);
},
{
name = top;
pos = (812,2304);
}
);
layerId = "CD0E3B44-F66A-4791-B84C-A1128DC61275";
shapes = (
{
closed = 1;
nodes = (
(618,1790,o),
(686,1866,o),
(686,1952,cs),
(686,2044,o),
(618,2114,o),
(524,2114,cs),
(438,2114,o),
(362,2044,o),
(362,1952,cs),
(362,1866,o),
(438,1790,o),
(524,1790,cs)
);
},
{
closed = 1;
nodes = (
(1194,1790,o),
(1264,1866,o),
(1264,1952,cs),
(1264,2044,o),
(1194,2114,o),
(1102,2114,cs),
(1016,2114,o),
(940,2044,o),
(940,1952,cs),
(940,1866,o),
(1016,1790,o),
(1102,1790,cs)
);
}
);
width = 1626;
}
);
unicode = 168;
userData = {
"interface.width-adjustments" = (
-16
);
};
}
{
color = (204,240,242,1);
glyphname = copyright;
kernLeft = C;
kernRight = D;
layers = (
{
background = {
shapes = (
{
closed = 1;
nodes = (
(1285,481,o),
(1529,723,o),
(1530,1024,cs),
(1531,1323,o),
(1285,1567,o),
(986,1568,cs),
(685,1569,o),
(441,1323,o),
(442,1024,cs),
(443,723,o),
(685,479,o),
(986,480,cs)
);
}
);
};
guides = (
{
pos = (-430,1240);
},
{
pos = (-430,764);
}
);
layerId = "5C20EF92-B63D-42A8-8878-93C2863E0093";
shapes = (
{
closed = 1;
nodes = (
(642,724,o),
(886,480,o),
(1186,480,cs),
(1452,480,o),
(1676,674,o),
(1702,928,c),
(1368,928,l),
(1352,852,o),
(1275,800,o),
(1186,800,cs),
(1063,800,o),
(962,902,o),
(962,1026,cs),
(962,1150,o),
(1063,1248,o),
(1186,1248,cs),
(1275,1248,o),
(1352,1196,o),
(1368,1120,c),
(1702,1120,l),
(1676,1374,o),
(1452,1568,o),
(1186,1568,cs),
(886,1568,o),
(642,1324,o),
(642,1024,cs)
);
},
{
closed = 1;
nodes = (
(1765,-32,o),
(2238,441,o),
(2236,1024,cs),
(2234,1607,o),
(1765,2080,o),
(1180,2080,cs),
(599,2080,o),
(126,1607,o),
(124,1024,cs),
(122,441,o),
(599,-32,o),
(1180,-32,cs)
);
},
{
closed = 1;
nodes = (
(818,368,o),
(523,663,o),
(524,1024,cs),
(525,1385,o),
(820,1680,o),
(1180,1680,cs),
(1543,1680,o),
(1835,1387,o),
(1836,1024,cs),
(1837,661,o),
(1544,368,o),
(1180,368,cs)
);
}
);
width = 2360;
},
{
layerId = "B1F27B51-9973-4381-9301-4FE46FE1CA59";
shapes = (
{
closed = 1;
nodes = (
(662,696,o),
(928,430,o),
(1256,430,cs),
(1492,430,o),
(1676,568,o),
(1752,768,c),
(1680,768,l),
(1610,604,o),
(1456,494,o),
(1256,494,cs),
(964,494,o),
(726,732,o),
(726,1024,cs),
(726,1318,o),
(964,1554,o),
(1256,1554,cs),
(1456,1554,o),
(1610,1444,o),
(1680,1280,c),
(1752,1280,l),
(1676,1480,o),
(1492,1618,o),
(1256,1618,cs),
(928,1618,o),
(662,1352,o),
(662,1024,cs)
);
},
{
closed = 1;
nodes = (
(1813,-32,o),
(2286,441,o),
(2284,1024,cs),
(2282,1607,o),
(1813,2080,o),
(1228,2080,cs),
(647,2080,o),
(174,1607,o),
(172,1024,cs),
(170,441,o),
(647,-32,o),
(1228,-32,cs)
);
},
{
closed = 1;
nodes = (
(680,32,o),
(234,478,o),
(236,1024,cs),
(238,1571,o),
(682,2016,o),
(1228,2016,cs),
(1776,2016,o),
(2218,1573,o),
(2220,1024,cs),
(2222,476,o),
(1778,32,o),
(1228,32,cs)
);
}
);
width = 2456;
},
{
layerId = "CD0E3B44-F66A-4791-B84C-A1128DC61275";
shapes = (
{
closed = 1;
nodes = (
(620,696,o),
(884,432,o),
(1212,432,cs),
(1496,432,o),
(1714,632,o),
(1752,896,c),
(1508,896,l),
(1480,762,o),
(1364,666,o),
(1212,666,cs),
(1014,666,o),
(854,826,o),
(854,1024,cs),
(854,1222,o),
(1014,1382,o),
(1212,1382,cs),
(1364,1382,o),
(1500,1286,o),
(1526,1152,c),
(1772,1152,l),
(1734,1416,o),
(1496,1616,o),
(1212,1616,cs),
(884,1616,o),
(620,1352,o),
(620,1024,cs)
);
},
{
closed = 1;
nodes = (
(1788,-32,o),
(2260,442,o),
(2258,1024,cs),
(2256,1608,o),
(1788,2080,o),
(1202,2080,cs),
(622,2080,o),
(148,1608,o),
(146,1024,cs),
(144,442,o),
(622,-32,o),
(1202,-32,cs)
);
},
{
closed = 1;
nodes = (
(750,204,o),
(380,574,o),
(382,1024,cs),
(384,1476,o),
(752,1844,o),
(1202,1844,cs),
(1654,1844,o),
(2020,1478,o),
(2022,1024,cs),
(2024,572,o),
(1656,204,o),
(1202,204,cs)
);
}
);
width = 2404;
}
);
metricLeft = O;
metricRight = O;
note = "Stroke R: 116
Stroke B: 160";
unicode = 169;
userData = {
interface.gridadjust.original = "{'width': 2204, 'leftMargin': 121, 'rightMargin': 132}";
"interface.width-adjustments" = (
-16
);
};
}
{
color = (204,240,242,1);
glyphname = macron;
layers = (
{
anchors = (
{
name = _top;
pos = (904,1792);
}
);
layerId = "5C20EF92-B63D-42A8-8878-93C2863E0093";
shapes = (
{
closed = 1;
nodes = (
(404,2048,l),
(404,1796,l),
(1404,1796,l),
(1404,2048,l)
);
}
);
width = 1808;
},
{
anchors = (
{
name = _top;
pos = (380,1792);
}
);
guides = (
{
pos = (616,2464);
}
);
layerId = "B1F27B51-9973-4381-9301-4FE46FE1CA59";
shapes = (
{
closed = 1;
nodes = (
(60,1912,l),
(60,1848,l),
(700,1848,l),
(700,1912,l)
);
}
);
width = 760;
},
{
anchors = (
{
name = _top;
pos = (610,1792);
}
);
layerId = "CD0E3B44-F66A-4791-B84C-A1128DC61275";
shapes = (
{
closed = 1;
nodes = (
(142,2048,l),
(142,1846,l),
(1080,1846,l),
(1080,2048,l)
);
}
);
width = 1222;
}
);
unicode = 175;
userData = {
interface.gridadjust.original = "{'width': 1310, 'leftMargin': 198, 'rightMargin': 173}";
"interface.width-adjustments" = (
-16
);
};
}
{
color = 1;
glyphname = two.sups;
kernLeft = two.sups;
kernRight = two.sups;
layers = (
{
anchors = (
{
name = cross;
pos = (844,1704);
}
);
layerId = "5C20EF92-B63D-42A8-8878-93C2863E0093";
shapes = (
{
closed = 1;
nodes = (
(1124,1024,l),
(1124,1324,l),
(640,1324,l),
(640,1336,l),
(764,1404,ls),
(1012,1540,o),
(1124,1680,o),
(1124,1864,cs),
(1124,2088,o),
(924,2268,o),
(604,2268,cs),
(296,2268,o),
(76,2112,o),
(76,1836,c),
(428,1836,l),
(428,1936,o),
(496,1980,o),
(600,1980,cs),
(696,1980,o),
(776,1940,o),
(776,1860,cs),
(776,1776,o),
(704,1728,o),
(612,1660,cs),
(112,1288,l),
(112,1024,l)
);
}
);
userData = {
RMXScaler = {
height = 60;
verticalShift = 1024;
weight = -300;
width = 66.6;
};
};
width = 1200;
},
{
anchors = (
{
name = cross;
pos = (720,1644);
}
);
layerId = "B1F27B51-9973-4381-9301-4FE46FE1CA59";
shapes = (
{
closed = 1;
nodes = (
(964,1024,l),
(964,1084,l),
(228,1084,l),
(228,1088,l),
(616,1488,ls),
(832,1712,o),
(896,1812,o),
(896,1948,cs),
(896,2128,o),
(740,2268,o),
(528,2268,cs),
(312,2268,o),
(156,2124,o),
(156,1936,c),
(220,1936,l),
(220,2088,o),
(344,2212,o),
(528,2212,cs),
(704,2212,o),
(832,2100,o),
(832,1948,cs),
(832,1820,o),
(764,1728,o),
(576,1532,cs),
(136,1072,l),
(136,1024,l)
);
}
);
userData = {
RMXScaler = {
height = 60;
verticalShift = 1024;
width = 66.6;
};
};
width = 1096;
},
{
anchors = (
{
name = cross;
pos = (778,1676);
}
);
layerId = "CD0E3B44-F66A-4791-B84C-A1128DC61275";
shapes = (
{
closed = 1;
nodes = (
(1046,1024,l),
(1046,1204,l),
(436,1204,l),
(436,1212,l),
(694,1436,ls),
(914,1626,o),
(1010,1738,o),
(1010,1904,cs),
(1010,2112,o),
(830,2268,o),
(564,2268,cs),
(300,2268,o),
(110,2116,o),
(110,1886,c),
(322,1886,l),
(322,2010,o),
(418,2094,o),
(560,2094,cs),
(696,2094,o),
(800,2018,o),
(800,1900,cs),
(800,1796,o),
(728,1720,o),
(588,1598,cs),
(120,1182,l),
(120,1024,l)
);
}
);
userData = {
RMXScaler = {
height = 60;
verticalShift = 1024;
weight = -50;
width = 66.6;
};
};
width = 1144;
}
);
unicode = 178;
userData = {
RMXScaler = {
source = two;
};
};
}
{
glyphname = micro;
kernLeft = u;
kernRight = u;
layers = (
{
background = {
shapes = (
{
closed = 1;
nodes = (
(1269,520,o),
(1181,428,o),
(1044,428,cs),
(905,428,o),
(825,520,o),
(824,672,cs),
(824,1536,l),
(272,1536,l),
(272,556,ls),
(273,220,o),
(485,-20,o),
(808,-20,cs),
(1037,-20,o),
(1213,96,o),
(1280,292,c),
(1296,292,l),
(1296,0,l),
(1820,0,l),
(1820,1536,l),
(1268,1536,l),
(1268,672,ls)
);
}
);
};
guides = (
{
angle = 90;
orientation = center;
pos = (1012,668);
}
);
layerId = "5C20EF92-B63D-42A8-8878-93C2863E0093";
shapes = (
{
closed = 1;
nodes = (
(664,-544,l),
(664,212,l),
(676,212,l),
(723,98,o),
(838,28,o),
(980,28,cs),
(1122,28,o),
(1237,98,o),
(1284,212,c),
(1296,212,l),
(1296,0,l),
(1820,0,l),
(1820,1536,l),
(1268,1536,l),
(1268,672,ls),
(1269,529,o),
(1150,428,o),
(980,428,cs),
(812,428,o),
(693,529,o),
(692,672,cs),
(692,1536,l),
(140,1536,l),
(140,-544,l)
);
}
);
width = 1960;
},
{
layerId = "B1F27B51-9973-4381-9301-4FE46FE1CA59";
shapes = (
{
closed = 1;
nodes = (
(296,-596,l),
(296,244,l),
(304,244,l),
(376,84,o),
(552,-20,o),
(764,-20,cs),
(976,-20,o),
(1152,84,o),
(1224,244,c),
(1232,244,l),
(1232,0,l),
(1296,0,l),
(1296,1536,l),
(1232,1536,l),
(1232,504,ls),
(1232,236,o),
(1036,44,o),
(764,44,cs),
(492,44,o),
(296,236,o),
(296,504,cs),
(296,1536,l),
(232,1536,l),
(232,-596,l)
);
}
);
width = 1524;
},
{
layerId = "CD0E3B44-F66A-4791-B84C-A1128DC61275";
shapes = (
{
closed = 1;
nodes = (
(438,-576,l),
(438,228,l),
(450,228,l),
(532,66,o),
(688,-18,o),
(858,-18,cs),
(1030,-18,o),
(1186,66,o),
(1268,228,c),
(1280,228,l),
(1280,0,l),
(1524,0,l),
(1524,1536,l),
(1280,1536,l),
(1280,630,ls),
(1280,384,o),
(1112,214,o),
(858,214,cs),
(604,214,o),
(438,382,o),
(438,630,cs),
(438,1536,l),
(194,1536,l),
(194,-576,l)
);
}
);
width = 1718;
}
);
unicode = 181;
userData = {
com.typemytype.robofont.guideline.magnetic.8IeEFgbS4T = 5;
com.typemytype.robofont.guideline.magnetic.eXsOmptB9v = 5;
com.typemytype.robofont.guideline.magnetic.s5uJiJNNNn = 5;
interface.gridadjust.original = "{'width': 1796, 'leftMargin': 256, 'rightMargin': 292}";
"interface.width-adjustments" = (
-16
);
};
}
{
glyphname = paragraph;
kernLeft = nine.1;
kernRight = H;
layers = (
{
guides = (
{
pos = (-136,1240);
},
{
pos = (-136,764);
}
);
layerId = "5C20EF92-B63D-42A8-8878-93C2863E0093";
shapes = (
{
closed = 1;
nodes = (
(1292,2048,l),
(836,2048,ls),
(376,2048,o),
(128,1772,o),
(128,1404,cs),
(128,1032,o),
(376,760,o),
(836,760,cs),
(956,760,l),
(956,1648,l),
(1292,1648,l)
);
},
{
closed = 1;
nodes = (
(1604,0,l),
(1604,2048,l),
(1204,2048,l),
(1204,0,l)
);
}
);
width = 1736;
},
{
layerId = "B1F27B51-9973-4381-9301-4FE46FE1CA59";
shapes = (
{
closed = 1;
nodes = (
(1208,2048,l),
(836,2048,ls),
(400,2048,o),
(160,1772,o),
(160,1404,cs),
(160,1032,o),
(400,760,o),
(836,760,cs),
(952,760,l),
(952,1984,l),
(1208,1984,l)
);
},
{
closed = 1;
nodes = (
(1208,0,l),
(1208,2048,l),
(1144,2048,l),
(1144,0,l)
);
}
);
width = 1496;
},
{
layerId = "CD0E3B44-F66A-4791-B84C-A1128DC61275";
shapes = (
{
closed = 1;
nodes = (
(1414,2048,l),
(806,2048,ls),
(370,2048,o),
(130,1772,o),
(130,1404,cs),
(130,1032,o),
(370,760,o),
(806,760,cs),
(922,760,l),
(922,1824,l),
(1414,1824,l)
);
},
{
closed = 1;
nodes = (
(1422,0,l),
(1422,2048,l),
(1170,2048,l),
(1170,0,l)
);
}
);
width = 1648;
}
);
metricRight = H;
note = "aka PILCROW SIGN";
unicode = 182;
userData = {
interface.gridadjust.original = "{'width': 1386.0, 'leftMargin': 88, 'rightMargin': 231.0}";
"interface.width-adjustments" = (
-16
);
};
}
{
color = 1;
glyphname = one.sups;
kernLeft = one.sups;
kernRight = one.sups;
layers = (
{
background = {
shapes = (
{
closed = 1;
nodes = (
(378,2252,l),
(374,2152,o),
(258,2044,o),
(78,2048,c),
(78,1756,l),
(234,1752,o),
(326,1772,o),
(358,1816,c),
(370,1816,l),
(370,1024,l),
(730,1024,l),
(730,2252,l)
);
}
);
};
layerId = "5C20EF92-B63D-42A8-8878-93C2863E0093";
shapes = (
{
closed = 1;
nodes = (
(730,1024,l),
(730,2252,l),
(410,2252,l),
(96,2060,l),
(96,1764,l),
(376,1932,l),
(382,1932,l),
(382,1024,l)
);
}
);
userData = {
RMXScaler = {
height = 60;
verticalShift = 1024;
weight = -300;
width = 66.6;
};
};
width = 918;
},
{
layerId = "B1F27B51-9973-4381-9301-4FE46FE1CA59";
shapes = (
{
closed = 1;
nodes = (
(456,1024,l),
(456,2252,l),
(368,2252,l),
(94,2070,l),
(94,1994,l),
(380,2184,l),
(392,2184,l),
(392,1024,l)
);
}
);
userData = {
RMXScaler = {
height = 60;
verticalShift = 1024;
width = 66.6;
};
};
width = 704;
},
{
layerId = "CD0E3B44-F66A-4791-B84C-A1128DC61275";
shapes = (
{
closed = 1;
nodes = (
(626,1024,l),
(626,2252,l),
(416,2252,l),
(90,2036,l),
(90,1822,l),
(404,2032,l),
(414,2032,l),
(414,1024,l)
);
}
);
userData = {
RMXScaler = {
height = 60;
verticalShift = 1024;
weight = -50;
width = 66.6;
};
};
width = 840;
}
);
unicode = 185;
userData = {
RMXScaler = {
source = one;
};
};
}
{
glyphname = ordmasculine;
kernLeft = dagger;
kernRight = dagger;
layers = (
{
guides = (
{
pos = (-128,2716);
}
);
layerId = "5C20EF92-B63D-42A8-8878-93C2863E0093";
shapes = (
{
ref = o.sups;
}
);
width = 1172;
},
{
layerId = "B1F27B51-9973-4381-9301-4FE46FE1CA59";
shapes = (
{
ref = o.sups;
}
);
width = 1028;
},
{
layerId = "CD0E3B44-F66A-4791-B84C-A1128DC61275";
shapes = (
{
ref = o.sups;
}
);
width = 1086;
},
{
associatedMasterId = "B1F27B51-9973-4381-9301-4FE46FE1CA59";
layerId = "5CE540F7-BED5-4B52-A174-08FD43844F45";
name = "Jul 10, 21 13:28";
shapes = (
{
closed = 1;
nodes = (
(88,1133,o),
(247,955,o),
(516,956,cs),
(791,957,o),
(948,1132,o),
(948,1438,cs),
(948,1554,ls),
(948,1855,o),
(790,2032,o),
(520,2032,cs),
(247,2032,o),
(88,1856,o),
(88,1554,cs),
(88,1438,ls)
);
},
{
closed = 1;
nodes = (
(148,1815,o),
(287,1972,o),
(520,1972,cs),
(749,1972,o),
(888,1814,o),
(888,1554,cs),
(888,1438,ls),
(888,1172,o),
(750,1015,o),
(516,1016,cs),
(286,1017,o),
(148,1175,o),
(148,1438,cs),
(148,1554,ls)
);
}
);
width = 1036;
},
{
associatedMasterId = "5C20EF92-B63D-42A8-8878-93C2863E0093";
guides = (
{
pos = (-128,2716);
}
);
layerId = "B47BC627-7ABF-444C-99F1-6683F8652447";
name = "Jul 10, 21 13:28";
shapes = (
{
closed = 1;
nodes = (
(216,1152,o),
(408,948,o),
(720,948,cs),
(1028,948,o),
(1216,1152,o),
(1216,1436,c),
(1216,1540,l),
(1216,1828,o),
(1024,2032,o),
(716,2032,cs),
(412,2032,o),
(216,1828,o),
(216,1540,c),
(216,1436,l)
);
},
{
closed = 1;
nodes = (
(468,1700,o),
(552,1828,o),
(716,1828,cs),
(884,1828,o),
(964,1700,o),
(964,1540,c),
(964,1436,l),
(964,1272,o),
(884,1152,o),
(720,1152,cs),
(552,1152,o),
(468,1272,o),
(468,1436,c),
(468,1540,l)
);
}
);
width = 1432;
}
);
unicode = 186;
userData = {
interface.gridadjust.original = "{'width': 1284, 'leftMargin': 165, 'rightMargin': 166}";
"interface.width-adjustments" = (
-16
);
};
}
{
glyphname = Thorn;
kernLeft = B;
layers = (
{
guides = (
{
pos = (-136,1240);
},
{
pos = (-136,764);
}
);
layerId = "5C20EF92-B63D-42A8-8878-93C2863E0093";
shapes = (
{
closed = 1;
nodes = (
(136,0,l),
(692,0,l),
(692,2048,l),
(136,2048,l)
);
},
{
closed = 1;
nodes = (
(392,1292,l),
(928,1292,ls),
(1148,1292,o),
(1220,1160,o),
(1220,1048,cs),
(1220,940,o),
(1148,812,o),
(928,812,cs),
(392,812,l),
(392,404,l),
(928,404,ls),
(1460,404,o),
(1752,668,o),
(1752,1052,cs),
(1752,1436,o),
(1460,1704,o),
(928,1704,cs),
(392,1704,l)
);
}
);
width = 1964;
},
{
layerId = "B1F27B51-9973-4381-9301-4FE46FE1CA59";
shapes = (
{
closed = 1;
nodes = (
(260,0,l),
(320,0,l),
(320,2048,l),
(260,2048,l)
);
},
{
closed = 1;
nodes = (
(292,1492,l),
(812,1492,ls),
(1144,1492,o),
(1342,1318,o),
(1344,1024,cs),
(1342,729,o),
(1150,562,o),
(812,562,cs),
(292,562,l),
(292,498,l),
(812,498,ls),
(1186,498,o),
(1408,695,o),
(1408,1028,cs),
(1408,1353,o),
(1178,1556,o),
(812,1556,cs),
(292,1556,l)
);
}
);
width = 1600;
},
{
layerId = "CD0E3B44-F66A-4791-B84C-A1128DC61275";
shapes = (
{
closed = 1;
nodes = (
(210,0,l),
(466,0,l),
(466,2048,l),
(210,2048,l)
);
},
{
closed = 1;
nodes = (
(330,1402,l),
(858,1402,ls),
(1140,1402,o),
(1294,1262,o),
(1294,1032,cs),
(1294,804,o),
(1140,672,o),
(858,672,cs),
(330,672,l),
(330,446,l),
(858,446,ls),
(1296,446,o),
(1538,710,o),
(1538,1036,cs),
(1538,1362,o),
(1296,1626,o),
(858,1626,cs),
(330,1626,l)
);
}
);
width = 1740;
}
);
unicode = 222;
userData = {
interface.gridadjust.original = "{'width': 1662, 'leftMargin': 224, 'rightMargin': 119}";
"interface.width-adjustments" = (
-16
);
};
}
{
glyphname = kgreenlandic;
layers = (
{
layerId = "5C20EF92-B63D-42A8-8878-93C2863E0093";
shapes = (
{
closed = 1;
nodes = (
(176,1536,l),
(176,0,l),
(696,0,l),
(696,1536,l)
);
},
{
closed = 1;
nodes = (
(1144,1536,l),
(846,1018,l),
(580,1018,l),
(636,506,l),
(1124,506,l),
(1812,1536,l)
);
},
{
closed = 1;
nodes = (
(1788,0,l),
(1296,808,l),
(828,584,l),
(1124,0,l)
);
}
);
width = 1964;
},
{
layerId = "B1F27B51-9973-4381-9301-4FE46FE1CA59";
shapes = (
{
closed = 1;
nodes = (
(228,1536,l),
(228,0,l),
(292,0,l),
(292,1536,l)
);
},
{
closed = 1;
nodes = (
(1172,1536,l),
(450,808,l),
(252,808,l),
(252,744,l),
(478,742,l),
(1260,1536,l)
);
},
{
closed = 1;
nodes = (
(1268,0,l),
(472,774,l),
(398,758,l),
(1176,0,l)
);
}
);
width = 1516;
},
{
layerId = "CD0E3B44-F66A-4791-B84C-A1128DC61275";
shapes = (
{
closed = 1;
nodes = (
(218,1536,l),
(218,0,l),
(500,0,l),
(500,1536,l)
);
},
{
closed = 1;
nodes = (
(1180,1536,l),
(638,898,l),
(366,898,l),
(410,654,l),
(766,654,l),
(1522,1536,l)
);
},
{
closed = 1;
nodes = (
(1522,0,l),
(784,862,l),
(602,666,l),
(1166,0,l)
);
}
);
width = 1740;
}
);
unicode = 312;
userData = {
interface.gridadjust.original = "{'width': 1576, 'leftMargin': 210, 'rightMargin': 70}";
"interface.width-adjustments" = (
-16
);
};
}
{
glyphname = Bhook;
kernLeft = B;
kernRight = B;
layers = (
{
layerId = "5C20EF92-B63D-42A8-8878-93C2863E0093";
shapes = (
{
closed = 1;
nodes = (
(1144,2048,l),
(780,2048,ls),
(350,2048,o),
(74,1828,o),
(76,1440,cs),
(76,1196,l),
(564,1196,l),
(564,1344,ls),
(562,1464,o),
(610,1604,o),
(780,1604,cs),
(1144,1604,l,{
name = hr00;
})
);
},
{
pos = (680,0);
ref = B;
}
);
width = 2560;
},
{
layerId = "B1F27B51-9973-4381-9301-4FE46FE1CA59";
shapes = (
{
closed = 1;
nodes = (
(592,2048,l),
(412,2048,ls),
(236,2048,o),
(141,1947,o),
(140,1760,cs),
(140,1688,l),
(204,1688,l),
(204,1724,ls),
(204,1912,o),
(263,1984,o),
(416,1984,cs),
(592,1984,l,{
name = hr00;
})
);
},
{
alignment = -1;
pos = (276,0);
ref = B;
}
);
width = 2016;
},
{
layerId = "CD0E3B44-F66A-4791-B84C-A1128DC61275";
shapes = (
{
closed = 1;
nodes = (
(734,2048,l),
(530,2048,ls),
(262,2048,o),
(114,1864,o),
(114,1636,cs),
(114,1496,l),
(354,1496,l),
(354,1574,ls),
(352,1702,o),
(374,1822,o),
(534,1822,cs),
(734,1822,l)
);
},
{
alignment = -1;
pos = (436,0);
ref = B;
}
);
width = 2230;
}
);
metricLeft = T;
metricRight = B;
unicode = 385;
userData = {
interface.gridadjust.original = "{'width': 2046.0, 'leftMargin': 41, 'rightMargin': 100.0}";
"interface.width-adjustments" = (
-16
);
};
}
{
glyphname = Tonesix;
kernLeft = T;
layers = (
{
layerId = "5C20EF92-B63D-42A8-8878-93C2863E0093";
shapes = (
{
closed = 1;
nodes = (
(76,2048,l),
(76,1600,l),
(1136,1600,l),
(1136,2048,l)
);
},
{
closed = 1;
nodes = (
(920,936,l),
(1344,936,l),
(1544,936,o),
(1652,832,o),
(1652,692,c),
(1652,544,o),
(1544,436,o),
(1344,436,c),
(1136,436,l),
(1136,2048,l),
(580,2048,l),
(580,0,l),
(1344,0,l),
(1860,0,o),
(2204,280,o),
(2204,688,c),
(2204,1096,o),
(1860,1360,o),
(1344,1360,c),
(920,1360,l)
);
}
);
width = 2296;
},
{
layerId = "B1F27B51-9973-4381-9301-4FE46FE1CA59";
shapes = (
{
closed = 1;
nodes = (
(140,2048,l),
(140,1984,l),
(670,1984,l),
(670,2048,l)
);
},
{
closed = 1;
nodes = (
(642,1004,l),
(1374,1004,ls),
(1682,1004,o),
(1883,828,o),
(1882,560,cs),
(1881,247,o),
(1694,64,o),
(1374,64,cs),
(670,64,l),
(670,2048,l),
(606,2048,l),
(606,0,l),
(1374,0,ls),
(1727,0,o),
(1946,213,o),
(1946,556,cs),
(1946,867,o),
(1721,1068,o),
(1374,1068,cs),
(642,1068,l)
);
}
);
width = 2094;
},
{
layerId = "CD0E3B44-F66A-4791-B84C-A1128DC61275";
shapes = (
{
closed = 1;
nodes = (
(114,2048,l),
(114,1822,l),
(850,1822,l),
(850,2048,l)
);
},
{
closed = 1;
nodes = (
(782,968,l),
(1362,968,l),
(1640,968,o),
(1794,804,o),
(1794,610,c),
(1794,412,o),
(1640,222,o),
(1362,222,c),
(850,222,l),
(850,2048,l),
(594,2048,l),
(594,0,l),
(1362,0,l),
(1804,0,o),
(2046,248,o),
(2046,606,c),
(2046,964,o),
(1804,1192,o),
(1362,1192,c),
(782,1192,l)
);
}
);
width = 2168;
}
);
metricLeft = T;
metricRight = b;
unicode = 388;
userData = {
interface.gridadjust.original = "{'width': 1917, 'leftMargin': 136, 'rightMargin': 157}";
"interface.width-adjustments" = (
-16
);
};
}
{
glyphname = tonesix;
kernLeft = T;
layers = (
{
layerId = "5C20EF92-B63D-42A8-8878-93C2863E0093";
shapes = (
{
alignment = -1;
pos = (452,0);
ref = b;
},
{
closed = 1;
nodes = (
(76,2048,l),
(76,1600,l),
(1136,1600,l),
(1136,2048,l)
);
}
);
width = 2268;
},
{
layerId = "B1F27B51-9973-4381-9301-4FE46FE1CA59";
shapes = (
{
alignment = -1;
pos = (318,0);
ref = b;
},
{
closed = 1;
nodes = (
(140,2048,l),
(140,1984,l),
(670,1984,l),
(670,2048,l)
);
}
);
width = 1938;
},
{
layerId = "CD0E3B44-F66A-4791-B84C-A1128DC61275";
shapes = (
{
alignment = -1;
pos = (382,0);
ref = b;
},
{
closed = 1;
nodes = (
(114,2048,l),
(114,1822,l),
(850,1822,l),
(850,2048,l)
);
}
);
width = 2092;
}
);
metricLeft = T;
metricRight = b;
unicode = 389;
userData = {
interface.gridadjust.original = "{'width': 1759, 'leftMargin': 138, 'rightMargin': 50}";
"interface.width-adjustments" = (
-16
);
};
}
{
glyphname = Chook;
kernLeft = C;
kernRight = C;
layers = (
{
guides = (
{
angle = 90;
pos = (-1720,0);
}
);
layerId = "5C20EF92-B63D-42A8-8878-93C2863E0093";
shapes = (
{
closed = 1;
nodes = (
(2044,1396,ls),
(2044,1612,o),
(2228,1684,o),
(2356,1684,c),
(2392,1684,o),
(2468,1680,o),
(2508,1680,c),
(2508,2120,l),
(2412,2132,o),
(2344,2132,o),
(2260,2132,cs),
(1864,2132,o),
(1508,1908,o),
(1508,1488,cs),
(1508,1280,l),
(2044,1280,l,{
name = hr00;
})
);
},
{
ref = C;
}
);
width = 2484;
},
{
layerId = "B1F27B51-9973-4381-9301-4FE46FE1CA59";
shapes = (
{
closed = 1;
nodes = (
(1804,1748,ls),
(1804,1916,o),
(1852,1980,o),
(1978,1980,cs),
(1997,1980,o),
(2015,1979,o),
(2028,1976,c),
(2028,2040,l),
(2016,2043,o),
(1998,2044,o),
(1978,2044,cs),
(1815,2044,o),
(1740,1951,o),
(1740,1748,cs),
(1740,1408,l),
(1804,1408,l,{
name = hr00;
})
);
},
{
alignment = -1;
ref = C;
}
);
width = 1922;
},
{
layerId = "CD0E3B44-F66A-4791-B84C-A1128DC61275";
shapes = (
{
closed = 1;
nodes = (
(1878,1658,ls),
(1878,1818,o),
(1976,1868,o),
(2104,1868,cs),
(2132,1868,o),
(2162,1864,o),
(2182,1860,c),
(2182,2066,l),
(2144,2078,o),
(2092,2078,o),
(2044,2078,cs),
(1814,2078,o),
(1634,1928,o),
(1634,1660,cs),
(1634,1404,l),
(1878,1404,l)
);
},
{
alignment = -1;
ref = C;
}
);
width = 2136;
}
);
metricLeft = C;
unicode = 391;
userData = {
interface.gridadjust.original = "{'width': 1998, 'leftMargin': 256, 'rightMargin': -44}";
};
}
{
glyphname = chook;
kernLeft = c;
kernRight = c;
layers = (
{
layerId = "5C20EF92-B63D-42A8-8878-93C2863E0093";
shapes = (
{
closed = 1;
nodes = (
(1628,1148,ls),
(1628,1276,o),
(1665,1332,o),
(1780,1332,cs),
(1825,1332,o),
(1861,1324,o),
(1904,1320,c),
(1904,1652,l),
(1829,1672,o),
(1765,1684,o),
(1700,1684,cs),
(1373,1684,o),
(1128,1492,o),
(1128,1152,cs),
(1128,896,l),
(1628,896,l)
);
},
{
ref = c;
}
);
width = 1872;
},
{
layerId = "B1F27B51-9973-4381-9301-4FE46FE1CA59";
shapes = (
{
closed = 1;
nodes = (
(1340,1324,ls),
(1340,1493,o),
(1389,1556,o),
(1530,1556,cs),
(1556,1556,o),
(1593,1554,o),
(1628,1550,c),
(1628,1614,l),
(1594,1618,o),
(1557,1620,o),
(1530,1620,cs),
(1354,1620,o),
(1276,1531,o),
(1276,1324,cs),
(1276,1088,l),
(1340,1088,l,{
name = hr00;
})
);
},
{
alignment = -1;
ref = c;
}
);
width = 1566;
},
{
layerId = "CD0E3B44-F66A-4791-B84C-A1128DC61275";
shapes = (
{
closed = 1;
nodes = (
(1426,1272,ls),
(1426,1432,o),
(1522,1480,o),
(1648,1480,cs),
(1678,1480,o),
(1706,1476,o),
(1726,1472,c),
(1726,1676,l),
(1690,1688,o),
(1636,1688,o),
(1588,1688,cs),
(1362,1688,o),
(1184,1538,o),
(1184,1272,cs),
(1184,1072,l),
(1426,1072,l)
);
},
{
alignment = -1;
ref = c;
}
);
width = 1680;
}
);
metricLeft = c;
unicode = 392;
userData = {
interface.gridadjust.original = "{'width': 1701, 'leftMargin': 256, 'rightMargin': 28}";
"interface.width-adjustments" = (
-16
);
};
}
{
glyphname = Dtopbar;
layers = (
{
layerId = "5C20EF92-B63D-42A8-8878-93C2863E0093";
shapes = (
{
closed = 1;
nodes = (
(1796,2064,l),
(356,2064,l),
(356,1628,l),
(1260,1628,l),
(1260,1360,l),
(1032,1360,ls),
(516,1360,o),
(172,1092,o),
(172,688,cs),
(172,284,o),
(516,0,o),
(1032,0,cs),
(1796,0,l)
);
},
{
closed = 1;
nodes = (
(1032,428,ls),
(828,428,o),
(708,544,o),
(708,692,cs),
(708,832,o),
(828,936,o),
(1032,936,cs),
(1260,936,l),
(1260,428,l)
);
}
);
width = 1964;
},
{
layerId = "B1F27B51-9973-4381-9301-4FE46FE1CA59";
shapes = (
{
closed = 1;
nodes = (
(1470,2048,l),
(358,2048,l),
(358,1984,l),
(1406,1984,l),
(1406,1068,l),
(702,1068,ls),
(355,1068,o),
(130,867,o),
(130,556,cs),
(130,213,o),
(349,0,o),
(702,0,cs),
(1470,0,l)
);
},
{
closed = 1;
nodes = (
(702,64,ls),
(382,64,o),
(195,247,o),
(194,560,cs),
(193,828,o),
(394,1004,o),
(702,1004,cs),
(1406,1004,l),
(1406,64,l)
);
}
);
width = 1600;
},
{
layerId = "CD0E3B44-F66A-4791-B84C-A1128DC61275";
shapes = (
{
closed = 1;
nodes = (
(1594,2006,l),
(358,2006,l),
(358,1768,l),
(1304,1768,l),
(1304,1200,l),
(830,1200,ls),
(388,1200,o),
(142,964,o),
(142,606,cs),
(142,248,o),
(388,0,o),
(830,0,cs),
(1594,0,l)
);
},
{
closed = 1;
nodes = (
(830,232,ls),
(548,232,o),
(436,412,o),
(436,610,cs),
(436,804,o),
(548,964,o),
(830,964,cs),
(1304,964,l),
(1304,232,l)
);
}
);
width = 1736;
}
);
unicode = 395;
userData = {
interface.gridadjust.original = "{'width': 1777, 'leftMargin': 109, 'rightMargin': 219}";
"interface.width-adjustments" = (
-16
);
};
}
{
glyphname = dtopbar;
kernLeft = c;
kernRight = H;
layers = (
{
anchors = (
{
name = bottom;
pos = (948,0);
},
{
name = cross;
pos = (1412,1760);
},
{
name = top;
pos = (672,1792);
}
);
layerId = "5C20EF92-B63D-42A8-8878-93C2863E0093";
shapes = (
{
closed = 1;
nodes = (
(320,1684,l),
(1404,1684,l),
(1404,2048,l),
(320,2048,l,{
name = hr00;
})
);
},
{
closed = 1;
nodes = (
(1684,2048,l),
(1132,2048,l),
(1132,1268,l),
(1124,1268,l),
(1064,1424,o),
(920,1556,o),
(692,1556,cs),
(388,1556,o),
(92,1324,o),
(92,768,c),
(92,236,o),
(368,-20,o),
(696,-20,cs),
(912,-20,o),
(1060,96,o),
(1124,252,c),
(1136,252,l),
(1136,0,l),
(1684,0,l)
);
},
{
closed = 1;
nodes = (
(1144,544,o),
(1052,404,o),
(900,404,cs),
(748,404,o),
(660,540,o),
(660,768,cs),
(660,996,o),
(748,1132,o),
(900,1132,cs),
(1052,1132,o),
(1144,996,o),
(1144,768,c)
);
}
);
width = 1816;
},
{
anchors = (
{
name = bottom;
pos = (740,0);
},
{
name = cross;
pos = (1300,1760);
},
{
name = top;
pos = (740,1792);
}
);
layerId = "B1F27B51-9973-4381-9301-4FE46FE1CA59";
shapes = (
{
closed = 1;
nodes = (
(308,1984,l),
(1300,1984,l),
(1300,2048,l),
(308,2048,l,{
name = hr00;
})
);
},
{
closed = 1;
nodes = (
(1332,2048,l),
(1268,2048,l),
(1268,1144,l),
(1260,1144,l),
(1180,1400,o),
(984,1560,o),
(740,1560,cs),
(380,1560,o),
(148,1216,o),
(148,764,cs),
(148,310,o),
(377,-32,o),
(740,-32,cs),
(987,-32,o),
(1177,129,o),
(1260,384,c),
(1268,384,l),
(1268,0,l),
(1332,0,l)
);
},
{
closed = 1;
nodes = (
(1268,348,o),
(1066,32,o),
(740,32,cs),
(414,32,o),
(212,348,o),
(212,764,cs),
(212,1180,o),
(416,1496,o),
(740,1496,cs),
(1064,1496,o),
(1268,1180,o),
(1268,764,cs)
);
}
);
width = 1620;
},
{
anchors = (
{
name = bottom;
pos = (784,0);
},
{
name = cross;
pos = (1360,1760);
},
{
name = top;
pos = (780,1792);
}
);
layerId = "CD0E3B44-F66A-4791-B84C-A1128DC61275";
shapes = (
{
closed = 1;
nodes = (
(328,1824,l),
(1278,1824,l),
(1278,2048,l),
(328,2048,l)
);
},
{
closed = 1;
nodes = (
(1484,2048,l),
(1240,2048,l),
(1240,1292,l),
(1222,1292,l),
(1170,1374,o),
(1076,1556,o),
(778,1556,cs),
(392,1556,o),
(122,1250,o),
(122,764,cs),
(122,276,o),
(392,-32,o),
(774,-32,cs),
(1068,-32,o),
(1168,150,o),
(1222,236,c),
(1248,236,l),
(1248,0,l),
(1484,0,l)
);
},
{
closed = 1;
nodes = (
(1246,424,o),
(1090,186,o),
(810,186,cs),
(518,186,o),
(368,442,o),
(368,768,cs),
(368,1090,o),
(514,1338,o),
(810,1338,cs),
(1094,1338,o),
(1246,1110,o),
(1246,768,cs)
);
}
);
width = 1710;
}
);
metricLeft = d;
metricRight = d;
note = "mirror of btopbar (decomposed for italics)";
unicode = 396;
userData = {
interface.gridadjust.original = "{'width': 1594, 'leftMargin': 256, 'rightMargin': 58}";
"interface.width-adjustments" = (
-16
);
};
}
{
glyphname = Fhook;
kernLeft = jdotless;
kernRight = F;
layers = (
{
layerId = "5C20EF92-B63D-42A8-8878-93C2863E0093";
shapes = (
{
closed = 1;
nodes = (
(236,-48,ls),
(236,-140,o),
(130,-160,o),
(28,-160,c),
(6,-160,o),
(-34,-164,o),
(-64,-160,c),
(-64,-568,l),
(-6,-576,o),
(122,-576,o),
(176,-576,c),
(466,-576,o),
(792,-532,o),
(792,-48,cs),
(792,0,l),
(236,0,l)
);
},
{
pos = (104,0);
ref = F;
}
);
width = 1748;
},
{
layerId = "B1F27B51-9973-4381-9301-4FE46FE1CA59";
shapes = (
{
closed = 1;
nodes = (
(224,-232,ls),
(224,-418,o),
(154,-508,o),
(10,-508,cs),
(-20,-508,o),
(-44,-505,o),
(-62,-500,c),
(-62,-564,l),
(-43,-569,o),
(-14,-572,o),
(16,-572,cs),
(192,-572,o),
(288,-452,o),
(288,-232,cs),
(288,0,l),
(224,0,l)
);
},
{
alignment = -1;
pos = (-64,0);
ref = F;
}
);
width = 1520;
},
{
associatedMasterId = "B1F27B51-9973-4381-9301-4FE46FE1CA59";
layerId = "B08EE6A4-275D-4A05-9DD6-ADCA275F0D13";
name = "Dec 29 18, 23:39";
shapes = (
{
closed = 0;
nodes = (
(-36,-524,l),
(-16,-536,o),
(-2,-540,o),
(32,-540,cs),
(204,-540,o),
(288,-436,o),
(288,-232,cs),
(288,0,l)
);
},
{
alignment = -1;
pos = (-64,0);
ref = F;
}
);
width = 1594;
},
{
layerId = "CD0E3B44-F66A-4791-B84C-A1128DC61275";
shapes = (
{
closed = 1;
nodes = (
(226,-158,ls),
(226,-316,o),
(134,-362,o),
(6,-362,cs),
(-22,-362,o),
(-50,-360,o),
(-70,-356,c),
(-70,-564,l),
(-10,-576,o),
(-8,-576,o),
(10,-576,cs),
(318,-576,o),
(482,-430,o),
(482,-162,cs),
(482,0,l),
(226,0,l)
);
},
{
alignment = -1;
pos = (2,0);
ref = F;
}
);
width = 1614;
}
);
metricRight = F;
unicode = 401;
userData = {
interface.gridadjust.original = "{'width': 1645, 'leftMargin': 0, 'rightMargin': 31}";
"interface.width-adjustments" = (
-16
);
};
}
{
glyphname = Ghook;
kernLeft = C;
kernRight = G;
layers = (
{
guides = (
{
angle = 90;
pos = (1724,996);
}
);
layerId = "5C20EF92-B63D-42A8-8878-93C2863E0093";
shapes = (
{
closed = 1;
nodes = (
(2024,1748,ls),
(2024,1920,o),
(2168,1944,o),
(2316,1944,cs),
(2364,1944,o),
(2412,1936,o),
(2464,1932,c),
(2464,2364,l),
(2372,2384,o),
(2300,2396,o),
(2220,2396,cs),
(1832,2396,o),
(1448,2168,o),
(1452,1748,cs),
(1456,1372,l),
(2024,1372,l)
);
},
{
ref = G;
}
);
width = 2464;
},
{
layerId = "B1F27B51-9973-4381-9301-4FE46FE1CA59";
shapes = (
{
closed = 1;
nodes = (
(1804,1640,ls),
(1804,1809,o),
(1853,1872,o),
(1994,1872,cs),
(2020,1872,o),
(2057,1870,o),
(2092,1866,c),
(2092,1930,l),
(2058,1934,o),
(2021,1936,o),
(1994,1936,cs),
(1818,1936,o),
(1740,1847,o),
(1740,1640,cs),
(1740,1408,l),
(1804,1408,l,{
name = hr00;
})
);
},
{
alignment = -1;
ref = G;
}
);
width = 1940;
},
{
layerId = "CD0E3B44-F66A-4791-B84C-A1128DC61275";
shapes = (
{
closed = 1;
nodes = (
(1882,1628,ls),
(1882,1788,o),
(1978,1834,o),
(2106,1834,cs),
(2136,1834,o),
(2164,1830,o),
(2184,1826,c),
(2184,2032,l),
(2148,2044,o),
(2094,2044,o),
(2046,2044,cs),
(1786,2044,o),
(1648,1894,o),
(1634,1628,cs),
(1622,1408,l),
(1882,1408,l)
);
},
{
alignment = -1;
ref = G;
}
);
width = 2138;
}
);
metricLeft = G;
unicode = 403;
userData = {
interface.gridadjust.original = "{'width': 1998, 'leftMargin': 256, 'rightMargin': -45}";
};
}
{
glyphname = lambdabar;
layers = (
{
background = {
shapes = (
{
closed = 1;
nodes = (
(304,1592,l),
(304,1292,l),
(1196,1552,l),
(1196,1844,l)
);
},
{
closed = 1;
nodes = (
(1064,1544,l),
(708,1540,l),
(148,0,l),
(700,0,l),
(972,832,l,{
name = hr00;
})
);
},
{
closed = 1;
nodes = (
(530,2160,o),
(390,2148,o),
(304,2124,c),
(320,1740,l),
(366,1744,o),
(390,1744,o),
(416,1744,cs),
(530,1744,o),
(594,1700,o),
(624,1628,cs),
(780,1300,l),
(1136,308,ls),
(1198,144,o),
(1346,-28,o),
(1624,-28,cs),
(1702,-28,o),
(1762,-32,o),
(1812,-24,c),
(1816,380,l),
(1806,380,o),
(1790,380,o),
(1768,380,cs),
(1682,380,o),
(1634,492,o),
(1604,560,cs),
(1020,1916,ls),
(954,2072,o),
(814,2160,o),
(604,2160,c)
);
}
);
};
layerId = "5C20EF92-B63D-42A8-8878-93C2863E0093";
shapes = (
{
closed = 1;
nodes = (
(304,1592,l),
(304,1292,l),
(1296,1592,l),
(1296,1884,l)
);
},
{
closed = 1;
nodes = (
(1064,1544,l),
(708,1540,l),
(148,0,l),
(700,0,l),
(972,832,l,{
name = hr00;
})
);
},
{
closed = 1;
nodes = (
(538,2140,o),
(398,2128,o),
(312,2104,c),
(328,1720,l),
(374,1724,o),
(398,1724,o),
(424,1724,cs),
(538,1724,o),
(598,1678,o),
(632,1608,cs),
(780,1300,l),
(1136,308,ls),
(1198,144,o),
(1346,-28,o),
(1624,-28,cs),
(1702,-28,o),
(1762,-32,o),
(1812,-24,c),
(1816,380,l),
(1806,380,o),
(1790,380,o),
(1768,380,cs),
(1682,380,o),
(1633,492,o),
(1604,560,cs),
(1028,1896,ls),
(961,2052,o),
(822,2140,o),
(612,2140,c)
);
}
);
width = 1952;
},
{
layerId = "B1F27B51-9973-4381-9301-4FE46FE1CA59";
shapes = (
{
closed = 1;
nodes = (
(220,1718,l),
(220,1648,l),
(764,1904,l),
(764,1974,l)
);
},
{
closed = 1;
nodes = (
(716,1490,l),
(678,1552,l),
(124,0,l),
(192,0,l),
(706,1448,l)
);
},
{
closed = 1;
nodes = (
(268,2077,o),
(221,2070,o),
(176,2058,c),
(200,1998,l),
(242,2008,o),
(279,2015,o),
(312,2014,cs),
(438,2010,o),
(512,1946,o),
(570,1784,cs),
(714,1382,l),
(1126,256,ls),
(1201,48,o),
(1260,-16,o),
(1368,-16,cs),
(1397,-16,o),
(1424,-12,o),
(1448,-4,c),
(1422,58,l),
(1399,52,o),
(1376,48,o),
(1360,48,cs),
(1290,48,o),
(1249,105,o),
(1174,312,cs),
(630,1804,ls),
(558,2001,o),
(472,2072,o),
(312,2076,cs)
);
}
);
width = 1626;
},
{
layerId = "CD0E3B44-F66A-4791-B84C-A1128DC61275";
shapes = (
{
closed = 1;
nodes = (
(248,1690,l),
(248,1456,l),
(930,1712,l),
(930,1950,l)
);
},
{
closed = 1;
nodes = (
(902,1504,l),
(706,1516,l),
(130,0,l),
(440,0,l),
(830,1082,l)
);
},
{
closed = 1;
nodes = (
(414,2078,o),
(340,2070,o),
(316,2062,c),
(316,1848,l),
(332,1852,o),
(364,1852,o),
(380,1852,cs),
(448,1852,o),
(498,1824,o),
(538,1726,cs),
(692,1342,l),
(1114,254,ls),
(1210,8,o),
(1298,-24,o),
(1466,-24,cs),
(1510,-24,o),
(1554,-16,o),
(1576,-8,c),
(1568,216,l),
(1556,216,o),
(1536,216,o),
(1520,216,cs),
(1460,216,o),
(1424,242,o),
(1392,330,cs),
(802,1850,ls),
(746,1994,o),
(658,2078,o),
(456,2078,c)
);
}
);
width = 1738;
}
);
unicode = 411;
userData = {
interface.gridadjust.original = "{'width': 1562.0, 'leftMargin': 176, 'rightMargin': -54.0}";
"interface.width-adjustments" = (
-16
);
};
}
{
glyphname = Nhook;
kernLeft = jdotless;
kernRight = H;
layers = (
{
layerId = "5C20EF92-B63D-42A8-8878-93C2863E0093";
shapes = (
{
closed = 1;
nodes = (
(204,-48,ls),
(204,-140,o),
(98,-160,o),
(-4,-160,c),
(-26,-160,o),
(-66,-164,o),
(-96,-160,c),
(-96,-568,l),
(-38,-576,o),
(90,-576,o),
(144,-576,c),
(434,-576,o),
(760,-532,o),
(760,-48,cs),
(760,0,l),
(204,0,l)
);
},
{
pos = (72,0);
ref = N;
}
);
width = 2108;
},
{
layerId = "B1F27B51-9973-4381-9301-4FE46FE1CA59";
shapes = (
{
closed = 1;
nodes = (
(222,-232,ls),
(222,-418,o),
(152,-508,o),
(8,-508,cs),
(-22,-508,o),
(-46,-505,o),
(-64,-500,c),
(-64,-564,l),
(-45,-569,o),
(-16,-572,o),
(14,-572,cs),
(190,-572,o),
(286,-452,o),
(286,-232,cs),
(286,0,l),
(222,0,l)
);
},
{
alignment = -1;
pos = (-66,0);
ref = N;
}
);
width = 2046;
},
{
layerId = "CD0E3B44-F66A-4791-B84C-A1128DC61275";
shapes = (
{
closed = 1;
nodes = (
(238,-158,ls),
(238,-316,o),
(146,-362,o),
(20,-362,cs),
(-8,-362,o),
(-38,-360,o),
(-58,-356,c),
(-58,-564,l),
(-20,-576,o),
(34,-576,o),
(82,-576,cs),
(306,-576,o),
(494,-430,o),
(494,-162,cs),
(494,0,l),
(238,0,l)
);
},
{
alignment = -1;
pos = (16,0);
ref = N;
}
);
width = 2094;
}
);
metricLeft = j;
metricRight = H;
unicode = 413;
userData = {
interface.gridadjust.original = "{'width': 2104, 'leftMargin': 0, 'rightMargin': 218}";
"interface.width-adjustments" = (
-16
);
};
}
{
glyphname = tonetwo;
kernLeft = s;
kernRight = s;
layers = (
{
anchors = (
{
name = bottom;
pos = (824,0);
},
{
name = cedilla;
pos = (812,0);
},
{
name = top;
pos = (824,1792);
}
);
layerId = "5C20EF92-B63D-42A8-8878-93C2863E0093";
shapes = (
{
pos = (1656,0);
ref = s;
scale = (-1,1);
}
);
width = 1656;
},
{
anchors = (
{
name = bottom;
pos = (648,0);
},
{
name = cedilla;
pos = (652,0);
},
{
name = top;
pos = (644,1792);
}
);
layerId = "B1F27B51-9973-4381-9301-4FE46FE1CA59";
shapes = (
{
pos = (1324,0);
ref = s;
scale = (-1,1);
}
);
width = 1324;
},
{
anchors = (
{
name = bottom;
pos = (708,0);
},
{
name = cedilla;
pos = (712,0);
},
{
name = top;
pos = (700,1792);
}
);
layerId = "CD0E3B44-F66A-4791-B84C-A1128DC61275";
shapes = (
{
pos = (1436,0);
ref = s;
scale = (-1,1);
}
);
width = 1436;
},
{
anchors = (
{
name = bottom;
pos = (648,0);
},
{
name = cedilla;
pos = (652,0);
},
{
name = top;
pos = (644,1792);
}
);
associatedMasterId = "B1F27B51-9973-4381-9301-4FE46FE1CA59";
layerId = "5A86C80E-E491-421E-B4D6-B629EB02B2EC";
name = "Jul 10, 21 12:27";
shapes = (
{
closed = 1;
nodes = (
(228,1196,l),
(291,1396,o),
(425,1496,o),
(636,1496,cs),
(881,1496,o),
(1048,1360,o),
(1048,1156,cs),
(1048,995,o),
(945,884,o),
(736,832,cs),
(496,772,ls),
(271,716,o),
(152,577,o),
(152,388,cs),
(152,137,o),
(363,-32,o),
(664,-32,cs),
(937,-32,o),
(1116,107,o),
(1168,352,c),
(1104,368,l),
(1059,150,o),
(908,32,o),
(664,32,cs),
(397,32,o),
(216,174,o),
(216,388,cs),
(216,547,o),
(315,659,o),
(512,708,cs),
(752,768,ls),
(988,827,o),
(1112,964,o),
(1112,1156,cs),
(1112,1397,o),
(916,1560,o),
(636,1560,cs),
(399,1560,o),
(239,1442,o),
(164,1212,c)
);
}
);
width = 1320;
},
{
anchors = (
{
name = bottom;
pos = (824,0);
},
{
name = cedilla;
pos = (812,0);
},
{
name = top;
pos = (824,1792);
}
);
associatedMasterId = "5C20EF92-B63D-42A8-8878-93C2863E0093";
layerId = "86AF49A9-1AB9-497E-A08A-AA5D0A04D726";
name = "Jul 10, 21 12:27";
shapes = (
{
closed = 1;
nodes = (
(620,1036,l),
(628,1130,o),
(719,1188,o),
(828,1188,cs),
(923,1188,o),
(1002,1152,o),
(1000,1088,cs),
(1002,1043,o),
(969,1001,o),
(852,980,cs),
(540,924,ls),
(226,867,o),
(74,735,o),
(72,508,cs),
(74,179,o),
(387,-28,o),
(812,-28,cs),
(1282,-28,o),
(1554,181,o),
(1584,496,c),
(1036,496,l),
(1021,398,o),
(933,344,o),
(808,344,cs),
(707,344,o),
(634,380,o),
(632,444,cs),
(634,502,o),
(688,534,o),
(808,556,cs),
(1080,604,ls),
(1393,659,o),
(1550,814,o),
(1548,1056,cs),
(1550,1376,o),
(1279,1556,o),
(840,1556,cs),
(396,1556,o),
(126,1361,o),
(112,1036,c)
);
}
);
width = 1656;
}
);
metricLeft = s;
metricRight = s;
unicode = 424;
userData = {
interface.gridadjust.original = "{'width': 1459, 'leftMargin': 135, 'rightMargin': 129}";
"interface.width-adjustments" = (
-16
);
};
}
{
glyphname = Trthook;
kernLeft = T;
kernRight = T;
layers = (
{
layerId = "5C20EF92-B63D-42A8-8878-93C2863E0093";
shapes = (
{
closed = 1;
nodes = (
(692,0,l),
(692,-44,ls),
(692,-528,o),
(1002,-576,o),
(1296,-576,c),
(1536,-576,l),
(1536,-164,l),
(1444,-164,l),
(1346,-164,o),
(1240,-140,o),
(1240,-48,cs),
(1240,0,l)
);
},
{
ref = T;
}
);
width = 1932;
},
{
layerId = "B1F27B51-9973-4381-9301-4FE46FE1CA59";
shapes = (
{
closed = 1;
nodes = (
(800,0,l),
(800,-232,ls),
(800,-454,o),
(898,-572,o),
(1072,-572,c),
(1140,-572,l),
(1140,-508,l),
(1078,-508,l),
(936,-508,o),
(864,-420,o),
(864,-232,cs),
(864,0,l)
);
},
{
alignment = -1;
ref = T;
}
);
width = 1664;
},
{
layerId = "CD0E3B44-F66A-4791-B84C-A1128DC61275";
shapes = (
{
closed = 1;
nodes = (
(756,0,l),
(756,-164,ls),
(756,-434,o),
(962,-576,o),
(1188,-576,c),
(1326,-576,l),
(1326,-352,l),
(1250,-352,l),
(1124,-352,o),
(1012,-320,o),
(1012,-162,cs),
(1012,0,l)
);
},
{
alignment = -1;
ref = T;
}
);
width = 1770;
}
);
metricLeft = T;
metricRight = T;
unicode = 430;
userData = {
interface.gridadjust.original = "{'width': 1680, 'leftMargin': 67, 'rightMargin': 63}";
"interface.width-adjustments" = (
-16
);
};
}
{
glyphname = uhorn;
kernLeft = u;
kernRight = u;
layers = (
{
layerId = "5C20EF92-B63D-42A8-8878-93C2863E0093";
shapes = (
{
closed = 1;
nodes = (
(1922,1392,o),
(1874,1268,o),
(1576,1268,c),
(1576,1060,l),
(2038,1060,o),
(2194,1256,o),
(2196,1632,c),
(1924,1632,l)
);
},
{
pos = (16,0);
ref = u;
}
);
width = 2160;
},
{
layerId = "B1F27B51-9973-4381-9301-4FE46FE1CA59";
shapes = (
{
closed = 1;
nodes = (
(1472,1368,o),
(1404,1280,o),
(1236,1280,c),
(1236,1216,l),
(1442,1218,o),
(1536,1336,o),
(1536,1588,c),
(1472,1588,l)
);
},
{
alignment = -1;
pos = (-12,0);
ref = u;
}
);
width = 1444;
},
{
layerId = "CD0E3B44-F66A-4791-B84C-A1128DC61275";
shapes = (
{
closed = 1;
nodes = (
(1586,1396,o),
(1582,1308,o),
(1332,1308,c),
(1332,1142,l),
(1694,1142,o),
(1796,1298,o),
(1796,1604,c),
(1586,1604,l)
);
},
{
alignment = -1;
ref = u;
}
);
width = 1718;
}
);
unicode = 432;
userData = {
interface.gridadjust.original = "{'width': 1763, 'leftMargin': 256, 'rightMargin': -36}";
"interface.width-adjustments" = (
-16
);
};
}
{
glyphname = Yhook;
kernLeft = Y;
kernRight = Y;
layers = (
{
background = {
shapes = (
{
closed = 1;
nodes = (
(1924,1468,ls),
(2010,1616,o),
(2074,1656,o),
(2236,1612,c),
(2348,2020,l),
(2058,2120,o),
(1714,2096,o),
(1512,1744,cs),
(1432,1604,l),
(1888,1408,l)
);
},
{
closed = 1;
nodes = (
(1204,1168,l),
(1204,1216,l),
(1156,1216,l),
(1156,1168,l)
);
},
{
closed = 1;
nodes = (
(72,2048,l),
(904,756,l),
(904,0,l),
(1456,0,l),
(1456,756,l),
(1888,1408,l),
(1432,1604,l),
(1180,1196,l),
(668,2048,l)
);
}
);
};
guides = (
{
angle = 240.4178;
pos = (1036,1336);
},
{
angle = 238.4456;
pos = (1296,988);
}
);
layerId = "5C20EF92-B63D-42A8-8878-93C2863E0093";
shapes = (
{
closed = 1;
nodes = (
(1204,1168,l),
(1204,1216,l),
(1156,1216,l),
(1156,1168,l)
);
},
{
closed = 1;
nodes = (
(904,756,l),
(904,0,l),
(1456,0,l),
(1456,756,l),
(1932,1486,ls),
(2016,1614,o),
(2074,1656,o),
(2236,1612,c),
(2348,2020,l),
(2058,2120,o),
(1722,2090,o),
(1522,1760,cs),
(1180,1196,l),
(668,2048,l),
(72,2048,l)
);
}
);
width = 2380;
},
{
background = {
shapes = (
{
closed = 1;
nodes = (
(828,996,l),
(828,1044,l),
(780,1044,l),
(780,996,l)
);
},
{
closed = 1;
nodes = (
(772,972,l),
(772,0,l),
(836,0,l),
(836,972,l),
(1474,1902,ls),
(1544,2004,o),
(1653,2016,o),
(1720,1972,c),
(1764,2014,l),
(1699,2087,o),
(1516,2081,o),
(1430,1956,cs),
(802,1040,l),
(116,2048,l),
(36,2048,l)
);
}
);
};
layerId = "B1F27B51-9973-4381-9301-4FE46FE1CA59";
shapes = (
{
closed = 1;
nodes = (
(796,996,l),
(796,1044,l),
(748,1044,l),
(748,996,l)
);
},
{
closed = 1;
nodes = (
(740,972,l),
(740,0,l),
(804,0,l),
(804,972,l),
(1454,1918,ls),
(1524,2019,o),
(1633,2031,o),
(1700,1988,c),
(1744,2030,l),
(1679,2102,o),
(1495,2096,o),
(1410,1972,cs),
(770,1040,l),
(84,2048,l),
(4,2048,l)
);
}
);
width = 1690;
},
{
layerId = "CD0E3B44-F66A-4791-B84C-A1128DC61275";
shapes = (
{
closed = 1;
nodes = (
(948,1048,l),
(948,1096,l),
(900,1096,l),
(900,1048,l)
);
},
{
closed = 1;
nodes = (
(796,842,l),
(796,0,l),
(1052,0,l),
(1052,842,l),
(1598,1734,ls),
(1670,1852,o),
(1758,1866,o),
(1856,1826,c),
(1920,2032,l),
(1722,2124,o),
(1514,2066,o),
(1382,1842,cs),
(924,1076,l),
(346,2048,l),
(54,2048,l)
);
}
);
width = 1954;
}
);
note = "!post:RemoveOverlap";
unicode = 435;
userData = {
com.typemytype.robofont.guideline.magnetic.1p4TietnVi = 5;
com.typemytype.robofont.guideline.magnetic.a19mK3ffcr = 5;
interface.gridadjust.original = "{'width': 1843, 'leftMargin': 18, 'rightMargin': -41}";
"interface.width-adjustments" = (
-16
);
};
}
{
glyphname = Ezhreversed;
layers = (
{
anchors = (
{
name = top;
pos = (968,2304);
}
);
layerId = "5C20EF92-B63D-42A8-8878-93C2863E0093";
shapes = (
{
closed = 1;
nodes = (
(1304,188,l),
(1296,-13,o),
(1162,-148,o),
(980,-148,cs),
(767,-148,o),
(648,36,o),
(648,294,cs),
(648,584,o),
(801,760,o),
(1012,760,cs),
(1280,760,l),
(1280,1144,l),
(784,1576,l),
(784,1592,l),
(1752,1592,l),
(1752,2048,l),
(116,2048,l),
(116,1648,l),
(744,1108,l),
(744,1088,l),
(331,1043,o),
(64,734,o),
(64,304,cs),
(64,-225,o),
(446,-608,o),
(972,-608,cs),
(1482,-608,o),
(1856,-274,o),
(1864,188,c)
);
}
);
width = 1940;
},
{
anchors = (
{
name = top;
pos = (944,2304);
}
);
layerId = "B1F27B51-9973-4381-9301-4FE46FE1CA59";
shapes = (
{
closed = 1;
nodes = (
(1684,100,l),
(1684,-274,o),
(1373,-544,o),
(968,-544,cs),
(553,-544,o),
(248,-233,o),
(248,198,cs),
(248,648,o),
(605,970,o),
(1116,992,cs),
(1208,992,l),
(1208,1056,l),
(316,2022,l),
(316,1984,l),
(1640,1984,l),
(1640,2048,l),
(252,2048,l),
(252,1996,l),
(1112,1064,l),
(1112,1056,l),
(560,1032,o),
(184,676,o),
(184,198,cs),
(184,-216,o),
(469,-608,o),
(968,-608,cs),
(1401,-608,o),
(1748,-316,o),
(1748,100,c)
);
}
);
width = 1888;
},
{
anchors = (
{
name = top;
pos = (940,2304);
}
);
layerId = "CD0E3B44-F66A-4791-B84C-A1128DC61275";
shapes = (
{
closed = 1;
nodes = (
(1506,90,l),
(1488,-186,o),
(1244,-376,o),
(952,-376,cs),
(608,-376,o),
(390,-106,o),
(390,246,cs),
(390,642,o),
(670,892,o),
(1066,892,cs),
(1222,892,l),
(1222,1104,l),
(542,1802,l),
(542,1818,l),
(1650,1818,l),
(1650,2048,l),
(190,2048,l),
(190,1862,l),
(912,1112,l),
(912,1092,l),
(458,1072,o),
(138,730,o),
(138,250,cs),
(138,-248,o),
(466,-606,o),
(956,-606,cs),
(1396,-606,o),
(1744,-322,o),
(1766,90,c)
);
}
);
width = 1880;
}
);
metricLeft = "=|Ezh";
metricRight = "=|Ezh";
note = "mirror of Ezh";
unicode = 440;
userData = {
interface.gridadjust.original = "{'width': 1821, 'leftMargin': 160, 'rightMargin': 110}";
"interface.width-adjustments" = (
-16
);
};
}
{
glyphname = uni01F6;
kernLeft = B;
kernRight = u;
layers = (
{
background = {
shapes = (
{
ref = H;
}
);
};
layerId = "5C20EF92-B63D-42A8-8878-93C2863E0093";
shapes = (
{
closed = 1;
nodes = (
(2736,-28,o),
(3040,256,o),
(3040,716,cs),
(3040,1468,l),
(2484,1468,l),
(2484,716,ls),
(2484,536,o),
(2388,428,o),
(2232,428,cs),
(2076,428,o),
(1980,536,o),
(1980,716,cs),
(1980,2048,l),
(1424,2048,l),
(1424,1248,l),
(688,1248,l),
(688,2048,l),
(132,2048,l),
(132,0,l),
(688,0,l),
(688,800,l),
(1424,800,l),
(1424,716,ls),
(1424,256,o),
(1732,-28,o),
(2232,-28,cs)
);
}
);
width = 3180;
},
{
layerId = "B1F27B51-9973-4381-9301-4FE46FE1CA59";
shapes = (
{
closed = 1;
nodes = (
(2576,-32,o),
(2816,143,o),
(2816,608,cs),
(2816,1576,l),
(2752,1576,l),
(2752,608,ls),
(2752,218,o),
(2580,31,o),
(2244,32,cs),
(1910,33,o),
(1720,218,o),
(1720,608,cs),
(1720,2048,l),
(1656,2048,l),
(1656,1056,l),
(352,1056,l),
(352,2048,l),
(288,2048,l),
(288,0,l),
(352,0,l),
(352,992,l),
(1656,992,l),
(1656,608,ls),
(1656,162,o),
(1899,-32,o),
(2244,-32,cs)
);
}
);
width = 3056;
},
{
layerId = "CD0E3B44-F66A-4791-B84C-A1128DC61275";
shapes = (
{
closed = 1;
nodes = (
(2630,-28,o),
(2904,198,o),
(2904,650,cs),
(2904,1534,l),
(2648,1534,l),
(2648,650,ls),
(2648,344,o),
(2504,206,o),
(2240,206,cs),
(1974,206,o),
(1820,344,o),
(1820,650,cs),
(1820,2048,l),
(1564,2048,l),
(1564,1138,l),
(480,1138,l),
(480,2048,l),
(226,2048,l),
(226,0,l),
(480,0,l),
(480,914,l),
(1564,914,l),
(1564,650,ls),
(1564,206,o),
(1838,-28,o),
(2240,-28,cs)
);
}
);
width = 3098;
}
);
metricLeft = H;
metricRight = u;
unicode = 502;
userData = {
interface.gridadjust.original = "{'width': 3059, 'leftMargin': 228, 'rightMargin': 176}";
"interface.width-adjustments" = (
-16
);
};
}
{
glyphname = uni021C;
layers = (
{
background = {
shapes = (
{
closed = 1;
nodes = (
(1280,632,o),
(1760,872,o),
(1760,1460,cs),
(1760,1832,o),
(1436,2028,o),
(956,2028,cs),
(552,2028,o),
(172,1828,o),
(172,1448,c),
(708,1448,l),
(708,1560,o),
(828,1600,o),
(956,1600,cs),
(1156,1600,o),
(1228,1516,o),
(1228,1364,cs),
(1228,1124,o),
(1092,1024,o),
(340,804,c),
(340,400,l)
);
},
{
closed = 1;
nodes = (
(1156,696,o),
(1252,688,o),
(1252,504,cs),
(1252,204,o),
(948,-64,o),
(340,-176,c),
(340,-600,l),
(1176,-516,o),
(1788,-100,o),
(1788,492,cs),
(1788,820,o),
(1488,1024,o),
(1044,988,c),
(992,672,l)
);
}
);
};
layerId = "5C20EF92-B63D-42A8-8878-93C2863E0093";
shapes = (
{
closed = 1;
nodes = (
(1398,681,o),
(1760,971,o),
(1760,1460,cs),
(1760,1884,o),
(1459,2076,o),
(956,2076,cs),
(497,2076,o),
(172,1835,o),
(172,1496,c),
(708,1496,l),
(708,1591,o),
(801,1648,o),
(956,1648,cs),
(1144,1648,o),
(1228,1575,o),
(1228,1384,cs),
(1228,1137,o),
(1071,1038,o),
(340,824,c),
(340,420,l)
);
},
{
closed = 1;
nodes = (
(1190,721,o),
(1252,681,o),
(1252,504,cs),
(1252,183,o),
(911,-71,o),
(340,-176,c),
(340,-600,l),
(1211,-513,o),
(1788,-77,o),
(1788,492,cs),
(1788,842,o),
(1485,1044,o),
(1044,1008,c),
(992,692,l)
);
}
);
width = 1960;
},
{
background = {
shapes = (
{
closed = 1;
nodes = (
(965,678,o),
(1449,1095,o),
(1450,1520,cs),
(1451,1825,o),
(1210,2034,o),
(832,2034,cs),
(462,2034,o),
(181,1801,o),
(180,1492,c),
(244,1492,l),
(242,1762,o),
(500,1970,o),
(832,1970,cs),
(1171,1970,o),
(1383,1793,o),
(1386,1524,cs),
(1391,1135,o),
(938,748,o),
(280,556,c),
(280,492,l)
);
},
{
closed = 1;
nodes = (
(1318,879,o),
(1420,689,o),
(1420,440,cs),
(1420,-23,o),
(1144,-259,o),
(280,-534,c),
(280,-600,l),
(1188,-316,o),
(1486,-58,o),
(1484,444,cs),
(1483,709,o),
(1379,904,o),
(1176,1018,c),
(1136,968,l)
);
},
{
closed = 1;
nodes = (
(965,678,o),
(1449,1095,o),
(1450,1520,cs),
(1451,1825,o),
(1202,2034,o),
(840,2034,cs),
(454,2034,o),
(181,1801,o),
(180,1492,c),
(244,1492,l),
(242,1762,o),
(492,1970,o),
(840,1970,cs),
(1163,1970,o),
(1383,1793,o),
(1386,1524,cs),
(1391,1135,o),
(938,748,o),
(280,556,c),
(280,492,l)
);
},
{
closed = 1;
nodes = (
(1318,879,o),
(1420,697,o),
(1420,428,cs),
(1420,-15,o),
(1144,-259,o),
(280,-534,c),
(280,-600,l),
(1188,-316,o),
(1486,-50,o),
(1484,432,cs),
(1483,717,o),
(1379,904,o),
(1176,1018,c),
(1136,968,l)
);
}
);
};
layerId = "B1F27B51-9973-4381-9301-4FE46FE1CA59";
shapes = (
{
closed = 1;
nodes = (
(933,698,o),
(1417,1107,o),
(1418,1546,cs),
(1419,1859,o),
(1170,2076,o),
(808,2076,cs),
(422,2076,o),
(149,1843,o),
(148,1534,c),
(212,1534,l),
(210,1804,o),
(460,2012,o),
(808,2012,cs),
(1131,2012,o),
(1351,1827,o),
(1354,1550,cs),
(1358,1147,o),
(906,768,o),
(248,576,c),
(248,512,l)
);
},
{
closed = 1;
nodes = (
(1286,899,o),
(1388,711,o),
(1388,434,cs),
(1388,-21,o),
(1112,-259,o),
(248,-534,c),
(248,-600,l),
(1156,-316,o),
(1454,-56,o),
(1452,438,cs),
(1451,731,o),
(1347,924,o),
(1144,1038,c),
(1104,988,l)
);
}
);
width = 1600;
},
{
layerId = "CD0E3B44-F66A-4791-B84C-A1128DC61275";
shapes = (
{
closed = 1;
nodes = (
(1012,622,o),
(1550,990,o),
(1550,1490,cs),
(1550,1866,o),
(1260,2076,o),
(862,2076,cs),
(452,2076,o),
(158,1860,o),
(158,1520,c),
(448,1520,l),
(448,1710,o),
(610,1840,o),
(862,1840,cs),
(1118,1840,o),
(1260,1702,o),
(1260,1462,cs),
(1260,1080,o),
(914,864,o),
(284,676,c),
(284,462,l)
);
},
{
closed = 1;
nodes = (
(1228,830,o),
(1288,700,o),
(1288,468,cs),
(1288,-42,o),
(918,-240,o),
(284,-368,c),
(284,-600,l),
(1034,-450,o),
(1582,-200,o),
(1582,450,cs),
(1582,782,o),
(1446,966,o),
(1214,1048,c),
(1076,888,l)
);
}
);
width = 1736;
}
);
unicode = 540;
userData = {
interface.gridadjust.original = "{'width': 1690, 'leftMargin': 124, 'rightMargin': 146}";
"interface.width-adjustments" = (
-16
);
};
}
{
glyphname = uni0222;
layers = (
{
background = {
shapes = (
{
closed = 1;
nodes = (
(507,1312,o),
(167,1112,o),
(168,664,cs),
(167,228,o),
(503,-28,o),
(972,-28,cs),
(1000,-28,ls),
(1463,-28,o),
(1795,228,o),
(1796,668,cs),
(1795,1112,o),
(1459,1312,o),
(1000,1312,cs),
(972,1312,l)
);
},
{
closed = 1;
nodes = (
(1171,940,o),
(1247,816,o),
(1248,668,cs),
(1247,516,o),
(1171,392,o),
(1000,392,cs),
(972,392,ls),
(803,392,o),
(715,516,o),
(716,664,cs),
(715,824,o),
(807,940,o),
(972,940,cs),
(1000,940,l)
);
},
{
closed = 1;
nodes = (
(763,1372,o),
(715,1428,o),
(716,1520,cs),
(715,1584,o),
(747,1604,o),
(816,1616,c),
(816,2032,l),
(423,2040,o),
(167,1876,o),
(168,1520,cs),
(167,1160,o),
(499,1004,o),
(968,1004,cs),
(996,1004,ls),
(1459,1004,o),
(1803,1160,o),
(1804,1520,cs),
(1803,1876,o),
(1539,2040,o),
(1152,2032,c),
(1152,1616,l),
(1215,1604,o),
(1255,1584,o),
(1256,1520,cs),
(1255,1416,o),
(1179,1372,o),
(996,1372,cs),
(968,1372,l)
);
}
);
};
layerId = "5C20EF92-B63D-42A8-8878-93C2863E0093";
shapes = (
{
closed = 1;
nodes = (
(461,1312,o),
(167,1075,o),
(168,664,cs),
(167,245,o),
(484,-28,o),
(972,-28,cs),
(1000,-28,ls),
(1483,-28,o),
(1795,245,o),
(1796,668,cs),
(1795,1076,o),
(1503,1312,o),
(1000,1312,cs),
(972,1312,l)
);
},
{
closed = 1;
nodes = (
(1152,940,o),
(1247,836,o),
(1248,668,cs),
(1247,496,o),
(1153,392,o),
(1000,392,cs),
(972,392,ls),
(817,392,o),
(715,501,o),
(716,664,cs),
(715,832,o),
(815,940,o),
(972,940,cs),
(1000,940,l)
);
},
{
closed = 1;
nodes = (
(787,1372,o),
(717,1400,o),
(716,1532,cs),
(715,1609,o),
(740,1647,o),
(816,1660,c),
(816,2076,l),
(399,2084,o),
(167,1877,o),
(168,1532,cs),
(169,1181,o),
(454,1004,o),
(968,1004,cs),
(996,1004,ls),
(1509,1004,o),
(1805,1184,o),
(1804,1532,cs),
(1803,1874,o),
(1566,2085,o),
(1152,2076,c),
(1152,1660,l),
(1227,1646,o),
(1255,1607,o),
(1256,1532,cs),
(1257,1404,o),
(1178,1372,o),
(996,1372,cs),
(968,1372,l)
);
}
);
width = 1964;
},
{
background = {
shapes = (
{
closed = 1;
nodes = (
(310,1102,o),
(80,896,o),
(80,538,cs),
(80,171,o),
(332,-28,o),
(788,-28,cs),
(806,-28,ls),
(1258,-28,o),
(1512,170,o),
(1512,538,cs),
(1512,895,o),
(1281,1102,o),
(820,1102,cs),
(772,1102,ls)
);
},
{
closed = 1;
nodes = (
(1246,1038,o),
(1448,854,o),
(1448,538,cs),
(1448,210,o),
(1226,36,o),
(806,36,cs),
(786,36,ls),
(364,36,o),
(144,212,o),
(144,538,cs),
(144,856,o),
(342,1038,o),
(772,1038,cs),
(820,1038,ls)
);
},
{
closed = 1;
nodes = (
(384,1102,o),
(172,1260,o),
(172,1536,cs),
(172,1756,o),
(290,1885,o),
(462,1922,c),
(462,1990,l),
(252,1946,o),
(108,1792,o),
(108,1536,cs),
(108,1222,o),
(352,1038,o),
(772,1038,cs),
(820,1038,ls),
(1242,1038,o),
(1484,1226,o),
(1484,1536,cs),
(1484,1807,o),
(1319,1966,o),
(1092,2002,c),
(1092,1936,l),
(1284,1906,o),
(1420,1770,o),
(1420,1536,cs),
(1420,1262,o),
(1205,1102,o),
(822,1102,cs),
(772,1102,ls)
);
}
);
};
layerId = "B1F27B51-9973-4381-9301-4FE46FE1CA59";
shapes = (
{
closed = 1;
nodes = (
(278,1142,o),
(48,936,o),
(48,558,cs),
(48,171,o),
(300,-28,o),
(756,-28,cs),
(774,-28,ls),
(1226,-28,o),
(1480,170,o),
(1480,558,cs),
(1480,935,o),
(1249,1142,o),
(788,1142,cs),
(740,1142,ls)
);
},
{
closed = 1;
nodes = (
(1214,1078,o),
(1416,894,o),
(1416,558,cs),
(1416,210,o),
(1194,36,o),
(774,36,cs),
(754,36,ls),
(332,36,o),
(112,212,o),
(112,558,cs),
(112,896,o),
(310,1078,o),
(740,1078,cs),
(788,1078,ls)
);
},
{
closed = 1;
nodes = (
(352,1142,o),
(140,1292,o),
(140,1602,cs),
(140,1834,o),
(258,1971,o),
(430,2008,c),
(430,2076,l),
(220,2032,o),
(76,1870,o),
(76,1602,cs),
(76,1254,o),
(320,1078,o),
(740,1078,cs),
(788,1078,ls),
(1210,1078,o),
(1452,1258,o),
(1452,1602,cs),
(1452,1885,o),
(1287,2052,o),
(1060,2088,c),
(1060,2022,l),
(1252,1992,o),
(1388,1848,o),
(1388,1602,cs),
(1388,1294,o),
(1173,1142,o),
(790,1142,cs),
(740,1142,ls)
);
}
);
width = 1528;
},
{
layerId = "CD0E3B44-F66A-4791-B84C-A1128DC61275";
shapes = (
{
closed = 1;
nodes = (
(420,1214,o),
(90,1006,o),
(90,598,cs),
(90,178,o),
(422,-28,o),
(850,-28,cs),
(882,-28,ls),
(1312,-28,o),
(1644,178,o),
(1644,602,cs),
(1644,1006,o),
(1312,1214,o),
(882,1214,cs),
(850,1214,l,{
name = hr00;
})
);
},
{
closed = 1;
nodes = (
(1168,994,o),
(1352,868,o),
(1352,602,cs),
(1352,328,o),
(1168,212,o),
(882,212,cs),
(850,212,ls),
(566,212,o),
(380,328,o),
(380,598,cs),
(380,868,o),
(566,994,o),
(850,994,cs),
(882,994,l)
);
},
{
closed = 1;
nodes = (
(592,1236,o),
(380,1276,o),
(380,1552,cs),
(380,1726,o),
(466,1812,o),
(636,1856,c),
(636,2076,l),
(334,2060,o),
(90,1896,o),
(90,1552,cs),
(90,1138,o),
(440,1016,o),
(838,1016,cs),
(894,1016,ls),
(1294,1016,o),
(1644,1138,o),
(1644,1552,cs),
(1644,1896,o),
(1404,2060,o),
(1096,2076,c),
(1096,1856,l),
(1266,1812,o),
(1354,1726,o),
(1354,1552,cs),
(1354,1276,o),
(1144,1236,o),
(894,1236,cs),
(838,1236,l)
);
}
);
width = 1734;
}
);
unicode = 546;
userData = {
interface.gridadjust.original = "{'width': 1873, 'leftMargin': 161, 'rightMargin': 161}";
"interface.width-adjustments" = (
-16
);
};
}
{
glyphname = drthook;
kernLeft = c;
kernRight = rthook;
layers = (
{
layerId = "5C20EF92-B63D-42A8-8878-93C2863E0093";
shapes = (
{
closed = 1;
nodes = (
(1865,-576,o),
(1961,-564,o),
(2016,-560,c),
(2016,-152,l),
(1973,-156,o),
(1933,-160,o),
(1892,-160,cs),
(1797,-160,o),
(1684,-140,o),
(1684,-48,cs),
(1684,340,l),
(1136,340,l),
(1136,-48,ls),
(1136,-500,o),
(1405,-576,o),
(1740,-576,cs)
);
},
{
ref = d;
}
);
width = 1824;
},
{
layerId = "B1F27B51-9973-4381-9301-4FE46FE1CA59";
shapes = (
{
closed = 1;
nodes = (
(1549,-572,o),
(1586,-570,o),
(1620,-566,c),
(1620,-502,l),
(1585,-506,o),
(1548,-508,o),
(1522,-508,cs),
(1381,-508,o),
(1332,-445,o),
(1332,-276,cs),
(1332,20,l,{
name = hr00;
}),
(1268,20,l),
(1268,-276,ls),
(1268,-483,o),
(1346,-572,o),
(1522,-572,cs)
);
},
{
alignment = -1;
ref = d;
}
);
width = 1588;
},
{
layerId = "CD0E3B44-F66A-4791-B84C-A1128DC61275";
shapes = (
{
closed = 1;
nodes = (
(1694,-576,o),
(1748,-576,o),
(1784,-564,c),
(1784,-358,l),
(1762,-362,o),
(1734,-366,o),
(1706,-366,cs),
(1580,-366,o),
(1482,-320,o),
(1482,-162,cs),
(1482,294,l),
(1240,294,l),
(1240,-162,ls),
(1240,-430,o),
(1418,-576,o),
(1644,-576,cs)
);
},
{
alignment = -1;
ref = d;
}
);
width = 1678;
}
);
metricLeft = d;
unicode = 598;
userData = {
interface.gridadjust.original = "{'width': 1664, 'leftMargin': 256, 'rightMargin': -14}";
"interface.width-adjustments" = (
-16
);
};
}
{
glyphname = erev;
layers = (
{
layerId = "5C20EF92-B63D-42A8-8878-93C2863E0093";
shapes = (
{
closed = 1;
nodes = (
(1285,-28,o),
(1585,320,o),
(1584,716,cs),
(1584,768,ls),
(1584,1196,o),
(1337,1556,o),
(816,1556,cs),
(377,1556,o),
(100,1284,o),
(100,812,cs),
(100,596,l),
(1392,596,l),
(1392,912,l),
(600,912,l),
(600,932,ls),
(600,1075,o),
(687,1144,o),
(814,1144,cs),
(1057,1144,o),
(1064,896,o),
(1064,768,cs),
(1064,716,ls),
(1065,500,o),
(937,388,o),
(714,388,cs),
(605,388,o),
(469,416,o),
(376,520,c),
(144,224,l),
(245,100,o),
(465,-28,o),
(772,-28,cs)
);
}
);
width = 1680;
},
{
layerId = "B1F27B51-9973-4381-9301-4FE46FE1CA59";
shapes = (
{
closed = 1;
nodes = (
(1005,-28,o),
(1252,255,o),
(1252,740,cs),
(1252,744,ls),
(1252,1221,o),
(1002,1560,o),
(646,1560,cs),
(319,1560,o),
(108,1271,o),
(108,812,cs),
(108,748,l),
(1220,748,l),
(1220,812,l),
(172,812,l),
(172,816,ls),
(172,1236,o),
(348,1496,o),
(646,1496,cs),
(956,1496,o),
(1188,1189,o),
(1188,760,cs),
(1188,752,ls),
(1188,292,o),
(973,36,o),
(636,36,cs),
(425,36,o),
(262,137,o),
(176,302,c),
(110,288,l),
(205,94,o),
(396,-28,o),
(636,-28,cs)
);
}
);
width = 1360;
},
{
layerId = "CD0E3B44-F66A-4791-B84C-A1128DC61275";
shapes = (
{
closed = 1;
nodes = (
(1108,-28,o),
(1378,266,o),
(1378,712,cs),
(1378,768,ls),
(1378,1240,o),
(1112,1556,o),
(708,1556,cs),
(328,1556,o),
(102,1272,o),
(102,800,cs),
(102,678,l),
(1214,678,l),
(1214,900,l),
(384,900,l),
(384,920,l),
(404,1192,o),
(530,1332,o),
(724,1332,cs),
(968,1332,o),
(1096,1116,o),
(1096,768,cs),
(1096,712,ls),
(1096,400,o),
(942,196,o),
(678,196,cs),
(528,196,o),
(390,262,o),
(288,396,c),
(118,264,l),
(248,72,o),
(442,-28,o),
(688,-28,cs)
);
}
);
width = 1480;
}
);
unicode = 600;
userData = {
interface.gridadjust.original = "{'width': 1502, 'leftMargin': 102, 'rightMargin': 130}";
"interface.width-adjustments" = (
-16
);
};
}
{
glyphname = epsilon1rev;
kernLeft = epsilongreek;
kernRight = epsilongreek;
layers = (
{
anchors = (
{
name = top;
pos = (808,1792);
}
);
layerId = "5C20EF92-B63D-42A8-8878-93C2863E0093";
shapes = (
{
closed = 1;
nodes = (
(552,808,l),
(552,612,l),
(792,612,ls),
(898,612,o),
(1038,592,o),
(1040,480,cs),
(1038,420,o),
(970,348,o),
(816,348,cs),
(650,348,o),
(578,384,o),
(580,440,c),
(68,440,l),
(66,116,o),
(426,-28,o),
(772,-28,cs),
(1206,-28,o),
(1550,140,o),
(1552,420,cs),
(1550,672,o),
(1314,808,o),
(928,808,c)
);
},
{
closed = 1;
nodes = (
(928,752,l),
(1274,752,o),
(1526,916,o),
(1528,1120,c),
(1526,1404,o),
(1206,1556,o),
(772,1556,cs),
(402,1556,o),
(86,1384,o),
(88,1088,c),
(608,1088,l),
(606,1164,o),
(694,1180,o),
(808,1180,cs),
(950,1180,o),
(1006,1116,o),
(1008,1064,c),
(1006,996,o),
(918,952,o),
(792,952,cs),
(552,952,l),
(552,752,l)
);
}
);
width = 1676;
},
{
anchors = (
{
name = top;
pos = (720,1792);
}
);
layerId = "B1F27B51-9973-4381-9301-4FE46FE1CA59";
shapes = (
{
closed = 1;
nodes = (
(628,826,l),
(628,762,l),
(780,762,ls),
(1024,762,o),
(1223,615,o),
(1222,388,cs),
(1221,179,o),
(1034,36,o),
(740,36,cs),
(435,36,o),
(268,200,o),
(216,452,c),
(156,452,l),
(200,167,o),
(400,-28,o),
(740,-28,cs),
(1084,-28,o),
(1286,151,o),
(1286,392,cs),
(1286,664,o),
(1054,825,o),
(736,826,c)
);
},
{
closed = 1;
nodes = (
(736,762,l),
(1069,760,o),
(1255,896,o),
(1254,1140,cs),
(1253,1391,o),
(1051,1556,o),
(744,1556,cs),
(470,1556,o),
(278,1408,o),
(232,1128,c),
(296,1128,l),
(346,1379,o),
(505,1492,o),
(744,1492,cs),
(1014,1492,o),
(1187,1359,o),
(1190,1148,cs),
(1193,945,o),
(1042,826,o),
(780,826,cs),
(628,826,l),
(628,762,l)
);
}
);
width = 1534;
},
{
anchors = (
{
name = top;
pos = (756,1792);
}
);
layerId = "CD0E3B44-F66A-4791-B84C-A1128DC61275";
shapes = (
{
closed = 1;
nodes = (
(598,800,l),
(598,686,l),
(784,686,ls),
(998,686,o),
(1134,574,o),
(1134,430,cs),
(1134,288,o),
(984,192,o),
(754,192,cs),
(530,192,o),
(416,274,o),
(376,448,c),
(122,448,l),
(156,158,o),
(400,-28,o),
(764,-28,cs),
(1122,-28,o),
(1388,150,o),
(1388,416,cs),
(1388,582,o),
(1286,800,o),
(810,800,c)
);
},
{
closed = 1;
nodes = (
(810,736,l),
(1276,736,o),
(1360,940,o),
(1360,1104,cs),
(1360,1388,o),
(1120,1556,o),
(768,1556,cs),
(418,1556,o),
(188,1390,o),
(150,1112,c),
(404,1112,l),
(436,1248,o),
(564,1340,o),
(768,1340,cs),
(978,1340,o),
(1114,1242,o),
(1114,1104,cs),
(1114,976,o),
(1004,894,o),
(784,894,cs),
(598,894,l),
(598,736,l)
);
}
);
width = 1582;
}
);
metricLeft = a;
metricRight = a;
note = "epsilon mirrored";
unicode = 604;
userData = {
interface.gridadjust.original = "{'width': 1517, 'leftMargin': 135, 'rightMargin': 135}";
"interface.width-adjustments" = (
-16
);
};
}
{
glyphname = epsilon1revclosed;
kernLeft = epsilongreek;
kernRight = epsilongreek;
layers = (
{
layerId = "5C20EF92-B63D-42A8-8878-93C2863E0093";
shapes = (
{
closed = 1;
nodes = (
(1239,-28,o),
(1547,140,o),
(1548,420,cs),
(1547,672,o),
(1347,808,o),
(976,808,c),
(824,808,l),
(824,620,l),
(840,620,ls),
(951,620,o),
(1027,588,o),
(1028,480,cs),
(1027,420,o),
(995,352,o),
(864,352,cs),
(723,352,o),
(619,460,o),
(620,784,c),
(104,784,l),
(103,204,o),
(491,-28,o),
(824,-28,cs)
);
},
{
closed = 1;
nodes = (
(1303,752,o),
(1519,916,o),
(1520,1120,cs),
(1519,1404,o),
(1239,1556,o),
(824,1556,cs),
(467,1556,o),
(103,1340,o),
(104,784,c),
(620,784,l),
(619,1132,o),
(767,1180,o),
(860,1180,cs),
(979,1180,o),
(999,1116,o),
(1000,1064,cs),
(999,996,o),
(951,944,o),
(840,944,cs),
(824,944,l),
(824,752,l),
(976,752,ls)
);
}
);
width = 1688;
},
{
layerId = "B1F27B51-9973-4381-9301-4FE46FE1CA59";
shapes = (
{
closed = 1;
nodes = (
(1003,-28,o),
(1220,139,o),
(1220,392,cs),
(1220,653,o),
(1002,825,o),
(670,826,c),
(562,826,l),
(562,762,l),
(714,762,ls),
(971,762,o),
(1157,604,o),
(1156,388,cs),
(1155,176,o),
(964,36,o),
(674,36,cs),
(324,36,o),
(152,279,o),
(152,772,c),
(88,772,l),
(88,244,o),
(287,-28,o),
(674,-28,cs)
);
},
{
closed = 1;
nodes = (
(1003,760,o),
(1189,896,o),
(1188,1140,cs),
(1187,1391,o),
(985,1556,o),
(678,1556,cs),
(291,1556,o),
(88,1285,o),
(88,768,c),
(152,768,l),
(152,1253,o),
(325,1492,o),
(678,1492,cs),
(948,1492,o),
(1121,1359,o),
(1124,1148,cs),
(1127,945,o),
(976,826,o),
(714,826,cs),
(562,826,l),
(562,762,l),
(670,762,l)
);
}
);
width = 1328;
},
{
layerId = "CD0E3B44-F66A-4791-B84C-A1128DC61275";
shapes = (
{
closed = 1;
nodes = (
(1156,-28,o),
(1420,150,o),
(1420,416,cs),
(1420,582,o),
(1320,800,o),
(844,800,c),
(638,800,l),
(638,686,l),
(818,686,ls),
(1032,686,o),
(1166,574,o),
(1166,430,cs),
(1166,288,o),
(1020,192,o),
(800,192,cs),
(496,192,o),
(348,418,o),
(348,792,c),
(106,792,l),
(106,280,o),
(346,-28,o),
(798,-28,cs)
);
},
{
closed = 1;
nodes = (
(1310,736,o),
(1392,940,o),
(1392,1104,cs),
(1392,1388,o),
(1154,1556,o),
(802,1556,cs),
(348,1556,o),
(106,1268,o),
(106,792,c),
(348,792,l),
(348,1134,o),
(502,1340,o),
(814,1340,cs),
(1014,1340,o),
(1146,1242,o),
(1146,1104,cs),
(1146,976,o),
(1038,894,o),
(818,894,cs),
(638,894,l),
(638,736,l),
(844,736,l)
);
}
);
width = 1542;
}
);
metricLeft = "=|epsilonclosed";
metricRight = "=|epsilonclosed";
note = "mirror of epsilonclosed";
unicode = 606;
userData = {
interface.gridadjust.original = "{'width': 1478, 'leftMargin': 135, 'rightMargin': 135}";
"interface.width-adjustments" = (
-16
);
};
}
{
glyphname = Gsmallcap;
layers = (
{
layerId = "5C20EF92-B63D-42A8-8878-93C2863E0093";
shapes = (
{
closed = 1;
nodes = (
(1000,840,l),
(1000,516,l),
(1264,516,l),
(1264,404,l),
(1212,380,o),
(1192,388,o),
(1020,388,cs),
(832,388,o),
(752,492,o),
(752,636,cs),
(752,864,ls),
(752,1012,o),
(824,1108,o),
(988,1108,cs),
(1136,1108,o),
(1192,1080,o),
(1220,972,c),
(1740,972,l),
(1696,1372,o),
(1420,1516,o),
(988,1516,cs),
(540,1516,o),
(224,1252,o),
(224,860,cs),
(224,636,ls),
(224,244,o),
(556,-24,o),
(1020,-24,cs),
(1476,-24,o),
(1640,112,o),
(1756,228,c),
(1756,840,l)
);
}
);
width = 1968;
},
{
layerId = "B1F27B51-9973-4381-9301-4FE46FE1CA59";
shapes = (
{
closed = 1;
nodes = (
(852,668,l),
(852,604,l),
(1336,604,l),
(1336,230,l),
(1277,136,o),
(998,30,o),
(816,32,cs),
(456,32,o),
(212,276,o),
(212,636,cs),
(212,860,ls),
(212,1207,o),
(464,1451,o),
(824,1452,cs),
(1118,1452,o),
(1299,1305,o),
(1338,1036,c),
(1400,1036,l),
(1376,1330,o),
(1153,1516,o),
(824,1516,cs),
(430,1516,o),
(147,1241,o),
(148,860,cs),
(148,636,ls),
(147,241,o),
(418,-30,o),
(816,-32,cs),
(1046,-31,o),
(1334,87,o),
(1400,208,c),
(1400,668,l)
);
}
);
width = 1598;
},
{
layerId = "CD0E3B44-F66A-4791-B84C-A1128DC61275";
shapes = (
{
closed = 1;
nodes = (
(908,762,l),
(908,540,l),
(1292,540,l),
(1292,310,l),
(1248,274,o),
(1108,196,o),
(892,196,cs),
(622,196,o),
(426,386,o),
(426,636,cs),
(426,860,ls),
(426,1106,o),
(630,1296,o),
(884,1296,cs),
(1110,1296,o),
(1252,1198,o),
(1276,1012,c),
(1530,1012,l),
(1502,1302,o),
(1304,1516,o),
(884,1516,cs),
(472,1516,o),
(174,1248,o),
(174,860,cs),
(174,636,ls),
(174,244,o),
(468,-28,o),
(892,-28,cs),
(1264,-28,o),
(1466,124,o),
(1536,216,c),
(1536,762,l)
);
}
);
width = 1738;
}
);
unicode = 610;
userData = {
interface.gridadjust.original = "{'width': 1700, 'leftMargin': 154, 'rightMargin': 159}";
"interface.width-adjustments" = (
-16
);
};
}
{
glyphname = henghook;
kernLeft = B;
kernRight = a;
layers = (
{
layerId = "5C20EF92-B63D-42A8-8878-93C2863E0093";
shapes = (
{
closed = 1;
nodes = (
(1136,-48,ls),
(1136,-140,o),
(1022,-160,o),
(928,-160,cs),
(882,-160,o),
(846,-156,o),
(804,-152,c),
(804,-560,l),
(866,-564,o),
(942,-576,o),
(1076,-576,cs),
(1410,-576,o),
(1688,-500,o),
(1688,-48,cs),
(1688,0,l),
(1136,0,l)
);
},
{
ref = hhook;
}
);
width = 1820;
},
{
layerId = "B1F27B51-9973-4381-9301-4FE46FE1CA59";
shapes = (
{
closed = 1;
nodes = (
(1232,-232,ls),
(1232,-420,o),
(1160,-508,o),
(1018,-508,cs),
(983,-508,o),
(950,-503,o),
(924,-496,c),
(924,-554,l),
(948,-566,o),
(984,-572,o),
(1024,-572,cs),
(1198,-572,o),
(1296,-454,o),
(1296,-232,cs),
(1296,0,l),
(1232,0,l)
);
},
{
alignment = -1;
ref = hhook;
}
);
width = 1536;
},
{
layerId = "CD0E3B44-F66A-4791-B84C-A1128DC61275";
shapes = (
{
closed = 1;
nodes = (
(1172,-162,ls),
(1172,-320,o),
(1076,-366,o),
(950,-366,cs),
(920,-366,o),
(892,-362,o),
(872,-358,c),
(872,-564,l),
(908,-576,o),
(962,-576,o),
(1012,-576,cs),
(1238,-576,o),
(1416,-430,o),
(1416,-162,cs),
(1416,0,l),
(1172,0,l)
);
},
{
alignment = -1;
ref = hhook;
}
);
width = 1614;
}
);
metricLeft = h;
metricRight = h;
unicode = 615;
userData = {
interface.gridadjust.original = "{'width': 1552, 'leftMargin': 188, 'rightMargin': 182}";
"interface.width-adjustments" = (
-16
);
};
}
{
glyphname = lyogh;
kernLeft = B;
kernRight = a;
layers = (
{
background = {
shapes = (
{
closed = 1;
nodes = (
(132,112,l),
(644,112,l),
(644,2048,l),
(132,2048,l)
);
},
{
closed = 1;
nodes = (
(596,-324,l),
(744,-460,o),
(968,-540,o),
(1232,-540,cs),
(1732,-540,o),
(2088,-284,o),
(2084,76,c),
(2088,316,o),
(1928,576,o),
(1444,636,c),
(1444,652,l),
(2016,1172,l),
(2012,1536,l),
(512,1536,l),
(512,1104,l),
(1352,1104,l),
(1352,1088,l),
(920,704,l),
(920,336,l),
(1204,336,ls),
(1388,336,o),
(1496,248,o),
(1496,124,cs),
(1496,-4,o),
(1392,-92,o),
(1236,-92,cs),
(1132,-92,o),
(1048,-57,o),
(1000,0,c)
);
}
);
};
layerId = "5C20EF92-B63D-42A8-8878-93C2863E0093";
shapes = (
{
closed = 1;
nodes = (
(132,112,l),
(644,112,l),
(644,2048,l),
(132,2048,l)
);
},
{
closed = 1;
nodes = (
(596,-392,l),
(744,-528,o),
(968,-608,o),
(1232,-608,cs),
(1732,-608,o),
(2078,-352,o),
(2084,36,cs),
(2088,296,o),
(1928,576,o),
(1444,636,c),
(1444,652,l),
(2016,1172,l),
(2012,1536,l),
(512,1536,l),
(512,1104,l),
(1352,1104,l),
(1352,1088,l),
(920,704,l),
(920,336,l),
(1204,336,ls),
(1404,336,o),
(1496,242,o),
(1496,92,cs),
(1496,-72,o),
(1392,-160,o),
(1236,-160,cs),
(1132,-160,o),
(1048,-125,o),
(1000,-68,c)
);
}
);
width = 2148;
},
{
associatedMasterId = "5C20EF92-B63D-42A8-8878-93C2863E0093";
background = {
shapes = (
{
pos = (24,0);
ref = dzeabkhasiancyrillic;
}
);
};
layerId = "6F0E2A52-0992-4C26-9448-87ADD36DA0AD";
name = "Oct 9 18, 18:02";
shapes = (
{
closed = 1;
nodes = (
(684,2048,l),
(132,2048,l),
(132,112,ls),
(136,-268,o),
(476,-540,o),
(960,-540,cs),
(1460,-540,o),
(1816,-284,o),
(1812,76,c),
(1816,316,o),
(1626,588,o),
(1252,636,c),
(1252,652,l),
(1824,1172,l),
(1820,1536,l),
(320,1536,l),
(320,1104,l),
(1200,1104,l),
(1200,1088,l),
(768,704,l),
(768,336,l),
(932,336,ls),
(1116,336,o),
(1224,248,o),
(1224,124,cs),
(1224,-4,o),
(1120,-92,o),
(964,-92,cs),
(804,-92,o),
(684,-4,o),
(684,124,cs)
);
}
);
width = 1888;
},
{
background = {
shapes = (
{
closed = 1;
nodes = (
(336,0,l),
(400,0,l),
(400,2048,l),
(336,2048,l)
);
},
{
closed = 1;
nodes = (
(320,-366,l),
(430,-474,o),
(592,-540,o),
(776,-540,cs),
(1153,-540,o),
(1384,-268,o),
(1384,56,cs),
(1384,465,o),
(1108,673,o),
(734,692,c),
(734,700,l),
(1332,1484,l),
(1332,1536,l),
(352,1536,l),
(352,1472,l),
(1236,1472,l),
(1236,1464,l),
(650,696,l),
(650,632,l),
(714,632,ls),
(1073,632,o),
(1320,414,o),
(1320,56,cs),
(1320,-226,o),
(1121,-476,o),
(776,-476,cs),
(598,-476,o),
(444,-409,o),
(346,-300,c)
);
}
);
};
layerId = "B1F27B51-9973-4381-9301-4FE46FE1CA59";
shapes = (
{
closed = 1;
nodes = (
(304,0,l),
(368,0,l),
(368,2048,l),
(304,2048,l)
);
},
{
closed = 1;
nodes = (
(288,-436,l),
(398,-544,o),
(560,-610,o),
(744,-610,cs),
(1121,-610,o),
(1352,-338,o),
(1352,48,cs),
(1352,465,o),
(1076,673,o),
(702,692,c),
(702,700,l),
(1300,1484,l),
(1300,1536,l),
(320,1536,l),
(320,1472,l),
(1204,1472,l),
(1204,1464,l),
(618,696,l),
(618,632,l),
(682,632,ls),
(1041,632,o),
(1288,414,o),
(1288,48,cs),
(1288,-296,o),
(1089,-546,o),
(744,-546,cs),
(566,-546,o),
(412,-479,o),
(314,-370,c)
);
}
);
width = 1536;
},
{
layerId = "CD0E3B44-F66A-4791-B84C-A1128DC61275";
shapes = (
{
closed = 1;
nodes = (
(226,2,l),
(468,2,l),
(468,2048,l),
(226,2048,l)
);
},
{
closed = 1;
nodes = (
(396,-430,l),
(522,-542,o),
(702,-610,o),
(916,-610,cs),
(1322,-610,o),
(1612,-346,o),
(1612,54,cs),
(1612,416,o),
(1374,638,o),
(1018,676,c),
(1018,692,l),
(1570,1352,l),
(1570,1536,l),
(360,1536,l),
(360,1310,l),
(1234,1310,l),
(1234,1294,l),
(724,684,l),
(724,480,l),
(918,480,ls),
(1178,480,o),
(1360,322,o),
(1360,54,cs),
(1360,-214,o),
(1178,-384,o),
(920,-384,cs),
(776,-384,o),
(656,-336,o),
(574,-254,c)
);
}
);
width = 1750;
}
);
metricLeft = H;
metricRight = B;
unicode = 622;
userData = {
interface.gridadjust.original = "{'width': 1711, 'leftMargin': 210, 'rightMargin': 171}";
"interface.width-adjustments" = (
-16
);
};
}
{
glyphname = omegaclosed;
layers = (
{
background = {
shapes = (
{
closed = 1;
nodes = (
(783,1516,o),
(299,1236,o),
(300,652,cs),
(299,308,o),
(455,-28,o),
(968,-28,cs),
(1307,-28,o),
(1547,256,o),
(1548,772,cs),
(1548,968,l),
(1156,968,l),
(1156,704,ls),
(1155,472,o),
(1075,388,o),
(984,388,cs),
(847,388,o),
(811,440,o),
(812,648,cs),
(811,860,o),
(987,1104,o),
(1436,1104,c),
(1436,1516,l)
);
},
{
closed = 1;
nodes = (
(1879,1104,o),
(2055,860,o),
(2056,648,cs),
(2055,440,o),
(2019,388,o),
(1884,388,cs),
(1791,388,o),
(1711,472,o),
(1712,704,cs),
(1712,968,l),
(1320,968,l),
(1320,772,ls),
(1319,256,o),
(1559,-28,o),
(1900,-28,cs),
(2407,-28,o),
(2571,304,o),
(2572,648,cs),
(2571,1236,o),
(2083,1516,o),
(1436,1516,c),
(1436,1104,l)
);
}
);
};
guides = (
{
angle = 90;
pos = (940,0);
}
);
layerId = "5C20EF92-B63D-42A8-8878-93C2863E0093";
shapes = (
{
closed = 1;
nodes = (
(784,1556,o),
(300,1256,o),
(300,652,cs),
(302,288,o),
(478,-28,o),
(930,-28,cs),
(1330,-28,o),
(1548,256,o),
(1548,772,cs),
(1548,968,l),
(1156,968,l),
(1156,704,ls),
(1156,472,o),
(1084,388,o),
(974,388,cs),
(872,388,o),
(814,464,o),
(812,648,cs),
(812,900,o),
(988,1144,o),
(1436,1144,c),
(1436,1556,l)
);
},
{
closed = 1;
nodes = (
(1885,1144,o),
(2061,900,o),
(2060,648,cs),
(2059,464,o),
(2001,388,o),
(1898,388,cs),
(1789,388,o),
(1716,472,o),
(1716,704,cs),
(1716,968,l),
(1324,968,l),
(1324,772,ls),
(1324,256,o),
(1543,-28,o),
(1942,-28,cs),
(2395,-28,o),
(2571,288,o),
(2572,652,cs),
(2574,1256,o),
(2089,1556,o),
(1436,1556,c),
(1436,1144,l)
);
}
);
width = 2868;
},
{
background = {
shapes = (
{
closed = 1;
nodes = (
(400,1519,o),
(64,1222,o),
(64,720,cs),
(64,275,o),
(263,-23,o),
(562,-28,cs),
(837,-32,o),
(1004,219,o),
(1004,636,cs),
(1004,884,l),
(940,884,l),
(940,616,ls),
(940,264,o),
(791,36,o),
(562,36,cs),
(314,36,o),
(126,332,o),
(128,720,cs),
(130,1188,o),
(436,1455,o),
(968,1456,c),
(968,1520,l)
);
},
{
closed = 1;
nodes = (
(1502,1455,o),
(1809,1190,o),
(1816,718,cs),
(1822,337,o),
(1631,36,o),
(1382,36,cs),
(1152,36,o),
(1004,263,o),
(1004,616,cs),
(1004,884,l),
(940,884,l),
(940,636,ls),
(940,220,o),
(1105,-28,o),
(1382,-28,cs),
(1679,-28,o),
(1878,271,o),
(1880,720,cs),
(1882,1216,o),
(1536,1519,o),
(964,1520,c),
(964,1456,l)
);
}
);
};
layerId = "B1F27B51-9973-4381-9301-4FE46FE1CA59";
shapes = (
{
closed = 1;
nodes = (
(368,1559,o),
(32,1262,o),
(32,720,cs),
(32,275,o),
(231,-23,o),
(530,-28,cs),
(805,-32,o),
(972,219,o),
(972,636,cs),
(972,884,l),
(908,884,l),
(908,616,ls),
(908,264,o),
(755,36,o),
(532,36,cs),
(278,36,o),
(94,332,o),
(96,720,cs),
(98,1228,o),
(404,1495,o),
(942,1496,c),
(942,1560,l)
);
},
{
closed = 1;
nodes = (
(1476,1495,o),
(1781,1228,o),
(1784,720,cs),
(1786,332,o),
(1602,36,o),
(1348,36,cs),
(1125,36,o),
(972,264,o),
(972,616,cs),
(972,884,l),
(908,884,l),
(908,636,ls),
(908,219,o),
(1075,-32,o),
(1350,-28,cs),
(1649,-24,o),
(1848,275,o),
(1848,720,cs),
(1848,1262,o),
(1512,1559,o),
(938,1560,c),
(938,1496,l)
);
}
);
width = 1880;
},
{
layerId = "CD0E3B44-F66A-4791-B84C-A1128DC61275";
shapes = (
{
closed = 1;
nodes = (
(404,1556,o),
(130,1124,o),
(130,684,cs),
(130,354,o),
(274,-28,o),
(680,-28,cs),
(1002,-28,o),
(1178,216,o),
(1178,652,cs),
(1178,910,l),
(986,910,l),
(986,650,ls),
(986,320,o),
(854,196,o),
(702,196,cs),
(482,196,o),
(412,452,o),
(412,688,cs),
(412,1052,o),
(584,1332,o),
(1126,1332,c),
(1126,1556,l)
);
},
{
closed = 1;
nodes = (
(1668,1332,o),
(1840,1052,o),
(1840,688,cs),
(1840,452,o),
(1770,196,o),
(1548,196,cs),
(1398,196,o),
(1264,320,o),
(1264,650,cs),
(1264,910,l),
(1072,910,l),
(1072,652,ls),
(1072,216,o),
(1248,-28,o),
(1570,-28,cs),
(1976,-28,o),
(2120,354,o),
(2120,684,cs),
(2120,1124,o),
(1848,1556,o),
(1126,1556,c),
(1126,1332,l)
);
}
);
width = 2250;
}
);
unicode = 631;
userData = {
interface.gridadjust.original = "{'width': 2316, 'leftMargin': 165, 'rightMargin': 165}";
"interface.width-adjustments" = (
-16
);
};
}
{
glyphname = rturnascend;
layers = (
{
layerId = "5C20EF92-B63D-42A8-8878-93C2863E0093";
shapes = (
{
closed = 1;
nodes = (
(576,0,l),
(1060,0,l),
(1060,2112,l),
(544,2112,l),
(544,424,l)
);
},
{
closed = 1;
nodes = (
(120,-28,o),
(168,-28,o),
(216,-28,c),
(484,-28,o),
(660,240,o),
(660,656,c),
(568,748,l),
(576,560,o),
(480,480,o),
(256,480,c),
(220,480,o),
(128,488,o),
(88,492,c),
(84,-12,l)
);
}
);
width = 1140;
},
{
layerId = "B1F27B51-9973-4381-9301-4FE46FE1CA59";
shapes = (
{
closed = 1;
nodes = (
(642,0,l),
(696,0,l),
(696,2112,l),
(632,2112,l),
(632,324,l)
);
},
{
closed = 1;
nodes = (
(169,-18,o),
(194,-20,o),
(224,-20,cs),
(491,-20,o),
(673,191,o),
(674,504,c),
(632,504,l),
(632,237,o),
(460,44,o),
(220,44,cs),
(194,44,o),
(168,47,o),
(140,52,c),
(140,-12,l)
);
}
);
width = 842;
},
{
layerId = "CD0E3B44-F66A-4791-B84C-A1128DC61275";
shapes = (
{
closed = 1;
nodes = (
(580,0,l),
(852,0,l),
(852,2112,l),
(572,2112,l),
(572,236,l)
);
},
{
closed = 1;
nodes = (
(140,-16,o),
(198,-28,o),
(236,-28,c),
(550,-28,o),
(688,272,o),
(688,624,c),
(614,584,l),
(588,380,o),
(476,238,o),
(248,238,c),
(200,238,o),
(166,242,o),
(118,250,c),
(118,-8,l)
);
}
);
width = 970;
}
);
unicode = 634;
userData = {
interface.gridadjust.original = "{'width': 956, 'leftMargin': 41, 'rightMargin': 189}";
"interface.width-adjustments" = (
-16
);
};
}
{
glyphname = upsilonlatin;
layers = (
{
background = {
shapes = (
{
closed = 1;
nodes = (
(764,384,o),
(684,484,o),
(684,612,cs),
(684,808,o),
(820,988,o),
(820,1212,cs),
(820,1460,o),
(636,1516,o),
(224,1516,c),
(224,1132,l),
(280,1132,o),
(284,1092,o),
(284,1072,cs),
(284,956,o),
(172,776,o),
(172,464,cs),
(172,284,o),
(324,-28,o),
(984,-28,cs),
(1640,-28,o),
(1800,284,o),
(1800,464,cs),
(1800,776,o),
(1680,956,o),
(1680,1072,cs),
(1680,1092,o),
(1684,1132,o),
(1740,1132,c),
(1740,1516,l),
(1340,1516,o),
(1152,1460,o),
(1152,1212,cs),
(1152,988,o),
(1280,808,o),
(1280,612,cs),
(1280,484,o),
(1208,384,o),
(984,384,cs)
);
}
);
};
layerId = "5C20EF92-B63D-42A8-8878-93C2863E0093";
shapes = (
{
closed = 1;
nodes = (
(764,384,o),
(684,484,o),
(684,612,cs),
(684,808,o),
(820,988,o),
(820,1252,cs),
(820,1500,o),
(636,1556,o),
(224,1556,c),
(224,1172,l),
(280,1172,o),
(284,1132,o),
(284,1112,cs),
(284,956,o),
(172,776,o),
(172,464,cs),
(172,284,o),
(324,-28,o),
(984,-28,cs),
(1640,-28,o),
(1800,284,o),
(1800,464,cs),
(1800,776,o),
(1680,956,o),
(1680,1112,cs),
(1680,1132,o),
(1684,1172,o),
(1740,1172,c),
(1740,1556,l),
(1340,1556,o),
(1152,1500,o),
(1152,1252,cs),
(1152,988,o),
(1280,808,o),
(1280,612,cs),
(1280,484,o),
(1208,384,o),
(984,384,cs)
);
}
);
width = 1964;
},
{
background = {
shapes = (
{
closed = 1;
nodes = (
(444,36,o),
(232,222,o),
(232,562,cs),
(232,950,o),
(496,1018,o),
(496,1266,cs),
(496,1426,o),
(341,1516,o),
(124,1516,c),
(124,1452,l),
(309,1450,o),
(434,1386,o),
(432,1260,cs),
(429,1057,o),
(172,956,o),
(168,580,cs),
(165,275,o),
(311,-28,o),
(832,-28,cs),
(1353,-28,o),
(1499,275,o),
(1496,580,cs),
(1492,956,o),
(1235,1057,o),
(1232,1260,cs),
(1230,1386,o),
(1355,1450,o),
(1540,1452,c),
(1540,1516,l),
(1323,1516,o),
(1168,1426,o),
(1168,1266,cs),
(1168,1018,o),
(1432,950,o),
(1432,562,cs),
(1432,222,o),
(1220,36,o),
(832,36,cs)
);
}
);
};
layerId = "B1F27B51-9973-4381-9301-4FE46FE1CA59";
shapes = (
{
closed = 1;
nodes = (
(412,36,o),
(200,222,o),
(200,562,cs),
(200,950,o),
(464,1022,o),
(464,1310,cs),
(464,1470,o),
(309,1560,o),
(92,1560,c),
(92,1496,l),
(277,1494,o),
(402,1430,o),
(400,1304,cs),
(396,1061,o),
(140,956,o),
(136,580,cs),
(133,275,o),
(279,-28,o),
(800,-28,cs),
(1321,-28,o),
(1467,275,o),
(1464,580,cs),
(1460,956,o),
(1204,1061,o),
(1200,1304,cs),
(1198,1430,o),
(1323,1494,o),
(1508,1496,c),
(1508,1560,l),
(1291,1560,o),
(1136,1470,o),
(1136,1310,cs),
(1136,1022,o),
(1400,950,o),
(1400,562,cs),
(1400,222,o),
(1188,36,o),
(800,36,cs)
);
}
);
width = 1596;
},
{
layerId = "CD0E3B44-F66A-4791-B84C-A1128DC61275";
shapes = (
{
closed = 1;
nodes = (
(490,196,o),
(426,444,o),
(426,600,cs),
(426,850,o),
(606,1020,o),
(606,1224,cs),
(606,1320,o),
(580,1556,o),
(138,1556,c),
(138,1332,l),
(202,1332,o),
(326,1320,o),
(326,1190,cs),
(326,988,o),
(144,874,o),
(144,546,cs),
(144,272,o),
(292,-28,o),
(866,-28,cs),
(1444,-28,o),
(1588,272,o),
(1588,546,cs),
(1588,874,o),
(1410,988,o),
(1410,1190,cs),
(1410,1320,o),
(1532,1332,o),
(1596,1332,c),
(1596,1556,l),
(1152,1556,o),
(1128,1320,o),
(1128,1224,cs),
(1128,1020,o),
(1306,850,o),
(1306,600,cs),
(1306,444,o),
(1242,196,o),
(866,196,cs)
);
}
);
width = 1734;
}
);
unicode = 650;
userData = {
interface.gridadjust.original = "{'width': 1734, 'leftMargin': 138, 'rightMargin': 138}";
"interface.width-adjustments" = (
-16
);
};
}
{
glyphname = zrthook;
kernLeft = z;
kernRight = rthook;
layers = (
{
guides = (
{
orientation = center;
angle = 90;
pos = (600,656);
}
);
layerId = "5C20EF92-B63D-42A8-8878-93C2863E0093";
shapes = (
{
closed = 1;
nodes = (
(1164,-76,ls),
(1164,-408,o),
(1348,-600,o),
(1676,-600,cs),
(1748,-600,o),
(1800,-596,o),
(1876,-580,c),
(1876,-244,l),
(1828,-248,o),
(1800,-252,o),
(1748,-252,cs),
(1648,-252,o),
(1504,-216,o),
(1504,-76,cs),
(1504,0,l),
(1164,0,l)
);
},
{
ref = z;
}
);
width = 1876;
},
{
layerId = "B1F27B51-9973-4381-9301-4FE46FE1CA59";
shapes = (
{
closed = 1;
nodes = (
(1160,-276,ls),
(1160,-483,o),
(1238,-572,o),
(1414,-572,cs),
(1442,-572,o),
(1478,-570,o),
(1512,-566,c),
(1512,-502,l),
(1477,-506,o),
(1440,-508,o),
(1414,-508,cs),
(1273,-508,o),
(1224,-445,o),
(1224,-276,cs),
(1224,20,l,{
name = hr00;
}),
(1160,20,l)
);
},
{
alignment = -1;
ref = z;
}
);
width = 1456;
},
{
layerId = "CD0E3B44-F66A-4791-B84C-A1128DC61275";
shapes = (
{
closed = 1;
nodes = (
(1118,-190,ls),
(1118,-454,o),
(1294,-600,o),
(1526,-600,cs),
(1570,-600,o),
(1626,-596,o),
(1664,-584,c),
(1664,-376,l),
(1642,-384,o),
(1606,-384,o),
(1586,-384,cs),
(1458,-384,o),
(1358,-348,o),
(1358,-190,cs),
(1358,0,l),
(1118,0,l)
);
},
{
alignment = -1;
ref = z;
}
);
width = 1642;
}
);
metricLeft = z;
unicode = 656;
userData = {
interface.gridadjust.original = "{'width': 1535, 'leftMargin': 122, 'rightMargin': -13}";
"interface.width-adjustments" = (
-16
);
};
}
{
glyphname = zcurl;
kernLeft = z;
kernRight = z;
layers = (
{
layerId = "5C20EF92-B63D-42A8-8878-93C2863E0093";
shapes = (
{
closed = 1;
nodes = (
(1580,0,ls),
(1942,0,o),
(2126,248,o),
(2128,492,cs),
(2126,740,o),
(1934,900,o),
(1716,900,cs),
(1430,900,o),
(1202,636,o),
(776,16,cs),
(612,-220,l),
(932,-408,l),
(1252,24,ls),
(1542,416,o),
(1590,504,o),
(1660,504,cs),
(1690,504,o),
(1714,484,o),
(1716,472,cs),
(1714,428,o),
(1698,416,o),
(1616,416,cs),
(776,416,l),
(776,0,l)
);
},
{
closed = 1;
nodes = (
(832,416,l),
(1480,1248,l),
(1480,1536,l),
(200,1536,l),
(200,1120,l),
(804,1120,l),
(156,284,l),
(156,0,l),
(1332,0,l),
(1332,416,l)
);
}
);
width = 2180;
},
{
layerId = "B1F27B51-9973-4381-9301-4FE46FE1CA59";
shapes = (
{
closed = 1;
nodes = (
(1140,0,l),
(1335,0,o),
(1488,139,o),
(1488,312,cs),
(1488,485,o),
(1335,624,o),
(1136,624,cs),
(955,624,o),
(819,506,o),
(618,196,cs),
(388,-158,l),
(442,-190,l),
(670,160,ls),
(859,450,o),
(980,560,o),
(1136,560,cs),
(1298,560,o),
(1424,449,o),
(1424,312,cs),
(1424,175,o),
(1300,64,o),
(1140,64,c),
(1010,64,l),
(1010,0,l)
);
},
{
closed = 1;
nodes = (
(260,64,l),
(1184,1472,l),
(1184,1536,l),
(244,1536,l),
(244,1472,l),
(1110,1472,l),
(184,64,l),
(184,0,l),
(1104,0,l),
(1104,64,l)
);
}
);
width = 1516;
},
{
layerId = "CD0E3B44-F66A-4791-B84C-A1128DC61275";
shapes = (
{
closed = 1;
nodes = (
(1066,0,ls),
(1508,0,o),
(1662,280,o),
(1662,464,cs),
(1662,654,o),
(1500,790,o),
(1308,790,cs),
(1032,790,o),
(854,508,o),
(512,28,cs),
(392,-142,l),
(578,-268,l),
(790,28,ls),
(1030,370,o),
(1134,558,o),
(1290,558,cs),
(1358,558,o),
(1424,524,o),
(1424,444,cs),
(1424,338,o),
(1308,224,o),
(1072,224,cs),
(906,224,l),
(906,0,l)
);
},
{
closed = 1;
nodes = (
(482,224,l),
(1338,1346,l),
(1338,1536,l),
(150,1536,l),
(150,1312,l),
(1024,1312,l),
(166,202,l),
(166,0,l),
(1040,0,l),
(1040,224,l)
);
}
);
width = 1700;
}
);
metricLeft = z;
unicode = 657;
userData = {
interface.gridadjust.original = "{'width': 1713, 'leftMargin': 122, 'rightMargin': 41}";
"interface.width-adjustments" = (
-16
);
};
}
{
glyphname = glottalstop;
layers = (
{
guides = (
{
pos = (-136,2140);
}
);
layerId = "5C20EF92-B63D-42A8-8878-93C2863E0093";
shapes = (
{
closed = 1;
nodes = (
(648,380,l),
(820,380,ls),
(1293,380,o),
(1544,696,o),
(1544,1140,cs),
(1544,1320,ls),
(1544,1760,o),
(1293,2076,o),
(804,2076,cs),
(425,2076,o),
(137,1864,o),
(140,1496,c),
(624,1496,l),
(621,1608,o),
(693,1664,o),
(820,1664,cs),
(1017,1664,o),
(1024,1504,o),
(1024,1320,cs),
(1024,1140,ls),
(1024,912,o),
(989,788,o),
(820,788,cs),
(648,788,l,{
name = hr00;
})
);
},
{
closed = 1;
nodes = (
(616,788,l),
(616,0,l),
(1128,0,l),
(1128,788,l)
);
}
);
width = 1684;
},
{
layerId = "B1F27B51-9973-4381-9301-4FE46FE1CA59";
shapes = (
{
closed = 1;
nodes = (
(556,662,l),
(580,662,l),
(1027,660,o),
(1260,877,o),
(1260,1296,cs),
(1260,1448,ls),
(1260,1844,o),
(1048,2076,o),
(688,2076,cs),
(341,2076,o),
(108,1877,o),
(88,1564,c),
(152,1564,l),
(166,1837,o),
(373,2010,o),
(688,2010,cs),
(1016,2010,o),
(1196,1810,o),
(1196,1448,cs),
(1196,1296,ls),
(1196,908,o),
(991,722,o),
(568,724,c),
(556,724,l,{
name = hr00;
})
);
},
{
closed = 1;
nodes = (
(544,724,l),
(544,0,l),
(608,0,l),
(608,724,l)
);
}
);
width = 1350;
},
{
layerId = "CD0E3B44-F66A-4791-B84C-A1128DC61275";
shapes = (
{
closed = 1;
nodes = (
(544,532,l),
(704,532,ls),
(1160,532,o),
(1374,876,o),
(1374,1272,cs),
(1374,1336,ls),
(1374,1732,o),
(1160,2076,o),
(704,2076,cs),
(386,2076,o),
(122,1840,o),
(106,1578,c),
(372,1578,l),
(388,1732,o),
(530,1852,o),
(704,1852,cs),
(1014,1852,o),
(1096,1586,o),
(1096,1336,cs),
(1096,1272,ls),
(1096,1026,o),
(1010,756,o),
(704,756,cs),
(544,756,l)
);
},
{
closed = 1;
nodes = (
(544,756,l),
(544,0,l),
(836,0,l),
(836,756,l)
);
}
);
width = 1480;
}
);
unicode = 660;
userData = {
interface.gridadjust.original = "{'width': 1480, 'leftMargin': 88, 'rightMargin': 127}";
"interface.width-adjustments" = (
-16
);
};
}
{
glyphname = dzcurl;
kernLeft = c;
kernRight = z;
layers = (
{
background = {
shapes = (
{
ref = dzaltone;
}
);
};
layerId = "5C20EF92-B63D-42A8-8878-93C2863E0093";
shapes = (
{
closed = 1;
nodes = (
(3164,0,ls),
(3526,0,o),
(3710,248,o),
(3712,492,cs),
(3710,740,o),
(3518,900,o),
(3300,900,cs),
(3014,900,o),
(2789,634,o),
(2360,16,cs),
(2196,-220,l),
(2516,-408,l),
(2836,24,ls),
(3126,416,o),
(3174,504,o),
(3244,504,cs),
(3274,504,o),
(3298,484,o),
(3300,472,cs),
(3298,428,o),
(3282,416,o),
(3200,416,cs),
(2360,416,l),
(2360,0,l)
);
},
{
closed = 1;
nodes = (
(2416,416,l),
(3064,1248,l),
(3064,1536,l),
(1464,1536,l),
(1464,1120,l),
(2388,1120,l),
(1740,284,l),
(1740,0,l),
(2916,0,l),
(2916,416,l)
);
},
{
alignment = -1;
ref = d;
}
);
width = 3764;
},
{
background = {
shapes = (
{
ref = dzaltone;
}
);
};
layerId = "B1F27B51-9973-4381-9301-4FE46FE1CA59";
shapes = (
{
closed = 1;
nodes = (
(2476,0,l),
(2672,0,o),
(2824,140,o),
(2824,312,cs),
(2824,486,o),
(2672,624,o),
(2472,624,cs),
(2292,624,o),
(2156,506,o),
(1954,196,cs),
(1724,-158,l),
(1778,-190,l),
(2006,160,ls),
(2195,450,o),
(2316,560,o),
(2472,560,cs),
(2634,560,o),
(2760,450,o),
(2760,312,cs),
(2760,176,o),
(2636,64,o),
(2476,64,c),
(2346,64,l),
(2346,0,l)
);
},
{
closed = 1;
nodes = (
(1596,64,l),
(2520,1472,l),
(2520,1536,l),
(1300,1536,l),
(1300,1472,l),
(2446,1472,l),
(1520,64,l),
(1520,0,l),
(2440,0,l),
(2440,64,l)
);
},
{
alignment = -1;
ref = d;
}
);
width = 2852;
},
{
layerId = "CD0E3B44-F66A-4791-B84C-A1128DC61275";
shapes = (
{
closed = 1;
nodes = (
(2526,0,ls),
(2968,0,o),
(3120,280,o),
(3120,464,cs),
(3120,654,o),
(2960,790,o),
(2768,790,cs),
(2490,790,o),
(2314,508,o),
(1972,28,cs),
(1850,-142,l),
(2038,-268,l),
(2248,28,ls),
(2490,368,o),
(2592,558,o),
(2750,558,cs),
(2818,558,o),
(2884,524,o),
(2884,444,cs),
(2884,338,o),
(2766,224,o),
(2530,224,cs),
(2366,224,l),
(2366,0,l)
);
},
{
closed = 1;
nodes = (
(1942,224,l),
(2796,1346,l),
(2796,1536,l),
(1388,1536,l),
(1388,1312,l),
(2484,1312,l),
(1624,202,l),
(1624,0,l),
(2500,0,l),
(2500,224,l)
);
},
{
alignment = -1;
ref = d;
}
);
width = 3158;
}
);
metricLeft = d;
metricRight = zcurl;
unicode = 677;
userData = {
interface.gridadjust.original = "{'width': 2985, 'leftMargin': 256, 'rightMargin': 41}";
"interface.width-adjustments" = (
-16
);
};
}
{
glyphname = uni02AB;
layers = (
{
layerId = "5C20EF92-B63D-42A8-8878-93C2863E0093";
shapes = (
{
closed = 1;
nodes = (
(984,416,l),
(984,0,l),
(2204,0,l),
(2204,416,l)
);
},
{
closed = 1;
nodes = (
(2188,1536,l),
(1816,1536,l),
(864,284,l),
(864,0,l),
(1236,0,l),
(2188,1248,l)
);
},
{
closed = 1;
nodes = (
(396,1536,l),
(396,1120,l),
(2024,1120,l),
(2024,1536,l)
);
},
{
closed = 1;
nodes = (
(140,2048,l),
(140,0,l),
(692,0,l),
(692,2048,l)
);
}
);
width = 2368;
},
{
layerId = "B1F27B51-9973-4381-9301-4FE46FE1CA59";
shapes = (
{
closed = 1;
nodes = (
(554,64,l),
(554,0,l),
(1574,0,l),
(1574,64,l)
);
},
{
closed = 1;
nodes = (
(1534,1536,l),
(1502,1536,l),
(534,64,l),
(534,0,l),
(566,0,l),
(1534,1472,l)
);
},
{
closed = 1;
nodes = (
(254,1536,l),
(254,1472,l),
(1520,1472,l),
(1520,1536,l)
);
},
{
closed = 1;
nodes = (
(224,2048,l),
(224,0,l),
(288,0,l),
(288,2048,l)
);
}
);
width = 1660;
},
{
layerId = "CD0E3B44-F66A-4791-B84C-A1128DC61275";
shapes = (
{
closed = 1;
nodes = (
(776,224,l),
(776,0,l),
(1864,0,l),
(1864,224,l)
);
},
{
closed = 1;
nodes = (
(1844,1536,l),
(1702,1536,l),
(672,202,l),
(672,0,l),
(818,0,l),
(1844,1346,l)
);
},
{
closed = 1;
nodes = (
(334,1536,l),
(334,1312,l),
(1724,1312,l),
(1724,1536,l)
);
},
{
closed = 1;
nodes = (
(194,2048,l),
(194,0,l),
(438,0,l),
(438,2048,l)
);
}
);
width = 2002;
}
);
unicode = 683;
userData = {
interface.gridadjust.original = "{'width': 1767, 'leftMargin': 256, 'rightMargin': 98}";
"interface.width-adjustments" = (
-16
);
};
}
{
color = 1;
glyphname = h.sups;
kernLeft = B.sups;
kernRight = a.sups;
layers = (
{
layerId = "5C20EF92-B63D-42A8-8878-93C2863E0093";
shapes = (
{
closed = 1;
nodes = (
(452,1700,o),
(520,1760,o),
(612,1760,cs),
(704,1760,o),
(752,1704,o),
(752,1596,cs),
(752,1024,l),
(1116,1024,l),
(1116,1660,ls),
(1116,1920,o),
(976,2060,o),
(760,2060,cs),
(584,2060,o),
(500,1976,o),
(456,1864,c),
(440,1864,l),
(440,2388,l),
(88,2388,l),
(88,1024,l),
(452,1024,l),
(452,1576,ls)
);
}
);
userData = {
RMXScaler = {
height = 66.6;
verticalShift = 1024;
weight = -300;
width = 66.6;
};
};
width = 1204;
},
{
layerId = "B1F27B51-9973-4381-9301-4FE46FE1CA59";
shapes = (
{
closed = 1;
nodes = (
(204,1876,o),
(332,2000,o),
(512,2000,cs),
(684,2000,o),
(804,1880,o),
(804,1704,cs),
(804,1024,l),
(868,1024,l),
(868,1704,ls),
(868,1920,o),
(720,2060,o),
(516,2060,cs),
(376,2060,o),
(260,1992,o),
(212,1884,c),
(204,1884,l),
(204,2388,l),
(144,2388,l),
(144,1024,l),
(204,1024,l),
(204,1700,ls)
);
}
);
userData = {
RMXScaler = {
height = 66.6;
verticalShift = 1024;
width = 66.6;
};
};
width = 1012;
},
{
layerId = "CD0E3B44-F66A-4791-B84C-A1128DC61275";
shapes = (
{
closed = 1;
nodes = (
(324,1786,o),
(424,1878,o),
(556,1878,cs),
(686,1878,o),
(774,1790,o),
(774,1646,cs),
(774,1024,l),
(988,1024,l),
(988,1684,ls),
(988,1916,o),
(844,2060,o),
(636,2060,cs),
(484,2060,o),
(376,1988,o),
(328,1872,c),
(320,1872,l),
(320,2388,l),
(110,2388,l),
(110,1024,l),
(324,1024,l),
(324,1638,ls)
);
}
);
userData = {
RMXScaler = {
height = 66.6;
verticalShift = 1024;
weight = -50;
width = 66.6;
};
};
width = 1098;
}
);
metricLeft = l.sups;
metricRight = m.sups;
unicode = 688;
userData = {
RMXScaler = {
source = h;
};
};
}
{
glyphname = hhooksuper;
layers = (
{
layerId = "5C20EF92-B63D-42A8-8878-93C2863E0093";
shapes = (
{
closed = 1;
nodes = (
(538,2116,o),
(582,2196,o),
(720,2196,cs),
(746,2196,o),
(766,2196,o),
(804,2184,c),
(804,2480,l),
(794,2480,o),
(646,2488,o),
(596,2488,cs),
(342,2488,o),
(198,2416,o),
(200,2076,cs),
(200,900,l),
(540,900,l),
(540,2032,l)
);
},
{
closed = 1;
nodes = (
(498,1620,o),
(558,1724,o),
(720,1724,cs),
(850,1724,o),
(894,1640,o),
(896,1464,cs),
(896,900,l),
(1240,900,l),
(1240,1596,ls),
(1238,1892,o),
(1090,2016,o),
(848,2016,cs),
(582,2016,o),
(434,1792,o),
(436,1480,c),
(500,1484,l)
);
}
);
width = 1432;
},
{
layerId = "B1F27B51-9973-4381-9301-4FE46FE1CA59";
shapes = (
{
closed = 1;
nodes = (
(214,2388,o),
(240,2420,o),
(320,2420,cs),
(348,2420,o),
(372,2416,o),
(406,2408,c),
(406,2472,l),
(374,2480,o),
(350,2484,o),
(320,2484,cs),
(202,2484,o),
(154,2426,o),
(154,2268,cs),
(154,900,l),
(214,900,l),
(214,2268,ls)
);
},
{
closed = 1;
nodes = (
(206,1772,o),
(342,1956,o),
(538,1956,cs),
(696,1956,o),
(814,1836,o),
(814,1660,cs),
(814,900,l),
(878,900,l),
(878,1660,ls),
(878,1872,o),
(736,2016,o),
(546,2016,cs),
(386,2016,o),
(174,1908,o),
(174,1636,c),
(206,1636,l)
);
}
);
width = 1038;
},
{
layerId = "CD0E3B44-F66A-4791-B84C-A1128DC61275";
shapes = (
{
closed = 1;
nodes = (
(424,2218,o),
(460,2236,o),
(496,2236,cs),
(532,2236,o),
(574,2228,o),
(594,2224,c),
(594,2456,l),
(524,2472,o),
(458,2484,o),
(386,2484,cs),
(212,2484,o),
(170,2354,o),
(170,2158,cs),
(170,896,l),
(424,896,l),
(424,2142,l)
);
},
{
closed = 1;
nodes = (
(392,1662,o),
(460,1806,o),
(616,1806,cs),
(728,1806,o),
(800,1738,o),
(800,1546,cs),
(800,896,l),
(1054,896,l),
(1054,1596,ls),
(1054,1892,o),
(918,2016,o),
(702,2016,cs),
(468,2016,o),
(328,1792,o),
(328,1480,c),
(392,1484,l)
);
}
);
width = 1224;
}
);
unicode = 689;
userData = {
interface.gridadjust.original = "{'width': 1156, 'leftMargin': 138, 'rightMargin': 137}";
"interface.width-adjustments" = (
-16
);
};
}
{
color = 1;
glyphname = j.sups;
kernLeft = jdotless.sups;
kernRight = idotless.sups;
layers = (
{
layerId = "5C20EF92-B63D-42A8-8878-93C2863E0093";
shapes = (
{
closed = 1;
nodes = (
(84,1024,ls),
(84,964,o),
(80,928,o),
(-12,928,cs),
(-24,928,o),
(-38,928,o),
(-54,928,c),
(-52,644,l),
(-38,644,o),
(8,644,o),
(8,644,cs),
(296,636,o),
(448,748,o),
(448,1016,cs),
(448,2048,l),
(84,2048,l)
);
},
{
closed = 1;
nodes = (
(372,2144,o),
(460,2228,o),
(460,2332,cs),
(460,2436,o),
(372,2520,o),
(268,2520,cs),
(164,2520,o),
(72,2436,o),
(72,2332,cs),
(72,2228,o),
(164,2144,o),
(268,2144,cs)
);
}
);
userData = {
RMXScaler = {
height = 66.6;
verticalShift = 1024;
weight = -300;
width = 66.6;
};
};
width = 536;
},
{
layerId = "B1F27B51-9973-4381-9301-4FE46FE1CA59";
shapes = (
{
closed = 1;
nodes = (
(144,888,ls),
(144,772,o),
(64,700,o),
(-36,700,cs),
(-41,700,o),
(-48,700,o),
(-56,700,c),
(-56,640,l),
(-48,640,o),
(-41,640,o),
(-36,640,cs),
(100,640,o),
(208,736,o),
(208,888,cs),
(208,2048,l),
(144,2048,l)
);
},
{
closed = 1;
nodes = (
(208,2236,o),
(232,2260,o),
(232,2288,cs),
(232,2316,o),
(208,2340,o),
(176,2340,cs),
(148,2340,o),
(124,2316,o),
(124,2288,cs),
(124,2260,o),
(148,2236,o),
(176,2236,cs)
);
}
);
userData = {
RMXScaler = {
height = 66.6;
verticalShift = 1024;
width = 66.6;
};
};
width = 356;
},
{
associatedMasterId = "B1F27B51-9973-4381-9301-4FE46FE1CA59";
layerId = "B844F59E-9DA1-4756-A587-237D5FCBA3B9";
name = "May 15, 21 16:44";
shapes = (
{
closed = 1;
nodes = (
(144,888,ls),
(144,772,o),
(64,700,o),
(-36,700,cs),
(-44,700,o),
(-48,700,o),
(-56,700,c),
(-60,644,l),
(-48,640,o),
(-48,640,o),
(-36,640,cs),
(100,640,o),
(208,736,o),
(208,888,cs),
(208,2048,l),
(144,2048,l)
);
},
{
closed = 1;
nodes = (
(208,2236,o),
(232,2260,o),
(232,2288,cs),
(232,2316,o),
(208,2340,o),
(176,2340,cs),
(148,2340,o),
(124,2316,o),
(124,2288,cs),
(124,2260,o),
(148,2236,o),
(176,2236,cs)
);
}
);
userData = {
RMXScaler = {
height = 66.6;
verticalShift = 1024;
width = 66.6;
};
};
width = 356;
},
{
associatedMasterId = "5C20EF92-B63D-42A8-8878-93C2863E0093";
layerId = "EC305A2E-CE9E-46FB-BC5B-E915BEBD0C15";
name = "May 15, 21 16:44";
shapes = (
{
closed = 1;
nodes = (
(108,1024,ls),
(108,964,o),
(104,928,o),
(12,928,cs),
(0,928,o),
(-16,928,o),
(-32,932,c),
(-28,644,l),
(-4,644,o),
(32,644,o),
(32,644,cs),
(320,636,o),
(472,748,o),
(472,1016,cs),
(472,2048,l),
(108,2048,l)
);
},
{
closed = 1;
nodes = (
(396,2144,o),
(484,2228,o),
(484,2332,cs),
(484,2436,o),
(396,2520,o),
(292,2520,cs),
(188,2520,o),
(96,2436,o),
(96,2332,cs),
(96,2228,o),
(188,2144,o),
(292,2144,cs)
);
}
);
userData = {
RMXScaler = {
height = 66.6;
verticalShift = 1024;
weight = -300;
width = 66.6;
};
};
width = 584;
},
{
layerId = "CD0E3B44-F66A-4791-B84C-A1128DC61275";
shapes = (
{
closed = 1;
nodes = (
(112,954,l),
(112,866,o),
(66,814,o),
(-30,814,cs),
(-38,814,o),
(-50,814,o),
(-62,814,c),
(-62,644,l),
(-50,644,o),
(-30,644,o),
(-18,644,cs),
(192,644,o),
(328,740,o),
(328,950,c),
(328,2048,l),
(112,2048,l)
);
},
{
closed = 1;
nodes = (
(288,2186,o),
(344,2244,o),
(344,2308,cs),
(344,2374,o),
(288,2430,o),
(218,2430,cs),
(154,2430,o),
(98,2374,o),
(98,2308,cs),
(98,2240,o),
(154,2186,o),
(218,2186,cs)
);
}
);
userData = {
RMXScaler = {
height = 66.6;
verticalShift = 1024;
weight = -50;
width = 66.6;
};
};
width = 442;
}
);
unicode = 690;
userData = {
RMXScaler = {
source = j;
};
};
}
{
color = 1;
glyphname = w.sups;
kernLeft = w.sups;
kernRight = w.sups;
layers = (
{
layerId = "5C20EF92-B63D-42A8-8878-93C2863E0093";
shapes = (
{
closed = 1;
nodes = (
(664,1024,l),
(804,1564,l),
(824,1564,l),
(964,1024,l),
(1336,1024,l),
(1612,2048,l),
(1244,2048,l),
(1132,1468,l),
(1120,1468,l),
(996,2048,l),
(632,2048,l),
(512,1464,l),
(500,1464,l),
(384,2048,l),
(16,2048,l),
(292,1024,l)
);
}
);
userData = {
RMXScaler = {
height = 66.6;
verticalShift = 1024;
weight = -300;
width = 66.6;
};
};
width = 1628;
},
{
layerId = "B1F27B51-9973-4381-9301-4FE46FE1CA59";
shapes = (
{
closed = 1;
nodes = (
(440,1024,l),
(712,1940,l),
(716,1940,l),
(988,1024,l),
(1064,1024,l),
(1368,2048,l),
(1300,2048,l),
(1028,1112,l),
(1020,1112,l),
(744,2048,l),
(684,2048,l),
(404,1112,l),
(400,1112,l),
(124,2048,l),
(60,2048,l),
(364,1024,l)
);
}
);
userData = {
RMXScaler = {
height = 66.6;
verticalShift = 1024;
width = 66.6;
};
};
width = 1428;
},
{
layerId = "CD0E3B44-F66A-4791-B84C-A1128DC61275";
shapes = (
{
closed = 1;
nodes = (
(548,1024,l),
(750,1752,l),
(764,1752,l),
(966,1024,l),
(1198,1024,l),
(1484,2048,l),
(1266,2048,l),
(1076,1288,l),
(1066,1288,l),
(864,2048,l),
(650,2048,l),
(452,1288,l),
(444,1288,l),
(250,2048,l),
(30,2048,l),
(318,1024,l)
);
}
);
userData = {
RMXScaler = {
height = 66.6;
verticalShift = 1024;
weight = -50;
width = 66.6;
};
};
width = 1514;
}
);
unicode = 695;
userData = {
RMXScaler = {
source = w;
};
};
}
{
glyphname = ringhalfright;
layers = (
{
anchors = (
{
name = _rhalfring;
pos = (196,1568);
}
);
guides = (
{
pos = (258,2016);
}
);
layerId = "5C20EF92-B63D-42A8-8878-93C2863E0093";
shapes = (
{
closed = 1;
nodes = (
(220,1524,o),
(348,1632,o),
(348,1792,cs),
(348,1956,o),
(220,2072,o),
(64,2072,c),
(64,1878,l),
(117,1878,o),
(156,1842,o),
(156,1792,cs),
(156,1746,o),
(117,1712,o),
(64,1712,c),
(64,1524,l)
);
}
);
width = 456;
},
{
anchors = (
{
name = _rhalfring;
pos = (140,1632);
}
);
layerId = "B1F27B51-9973-4381-9301-4FE46FE1CA59";
shapes = (
{
closed = 1;
nodes = (
(161,1528,o),
(284,1647,o),
(284,1802,cs),
(284,1959,o),
(163,2076,o),
(0,2076,c),
(0,2012,l),
(128,2012,o),
(220,1924,o),
(220,1802,cs),
(220,1682,o),
(126,1592,o),
(0,1592,c),
(0,1528,l)
);
}
);
width = 360;
},
{
anchors = (
{
name = _rhalfring;
pos = (198,1584);
}
);
layerId = "CD0E3B44-F66A-4791-B84C-A1128DC61275";
shapes = (
{
closed = 1;
nodes = (
(242,1528,o),
(370,1636,o),
(370,1796,cs),
(370,1960,o),
(242,2076,o),
(86,2076,c),
(86,1946,l),
(160,1946,o),
(224,1882,o),
(224,1796,cs),
(224,1716,o),
(160,1654,o),
(86,1654,c),
(86,1528,l)
);
}
);
width = 452;
}
);
unicode = 702;
userData = {
interface.gridadjust.original = "{'width': 393, 'leftMargin': 55, 'rightMargin': 55}";
"interface.width-adjustments" = (
-16
);
};
}
{
glyphname = ringhalfleft;
layers = (
{
layerId = "5C20EF92-B63D-42A8-8878-93C2863E0093";
shapes = (
{
closed = 1;
nodes = (
(392,1712,l),
(339,1712,o),
(300,1746,o),
(300,1792,cs),
(300,1842,o),
(339,1878,o),
(392,1878,c),
(392,2072,l),
(236,2072,o),
(108,1956,o),
(108,1792,cs),
(108,1632,o),
(236,1524,o),
(392,1524,c)
);
}
);
width = 456;
},
{
layerId = "B1F27B51-9973-4381-9301-4FE46FE1CA59";
shapes = (
{
closed = 1;
nodes = (
(360,1592,l),
(234,1592,o),
(140,1682,o),
(140,1802,cs),
(140,1924,o),
(232,2012,o),
(360,2012,c),
(360,2076,l),
(197,2076,o),
(76,1959,o),
(76,1802,cs),
(76,1647,o),
(199,1528,o),
(360,1528,c)
);
}
);
width = 360;
},
{
layerId = "CD0E3B44-F66A-4791-B84C-A1128DC61275";
shapes = (
{
closed = 1;
nodes = (
(370,1654,l),
(290,1654,o),
(232,1716,o),
(232,1796,cs),
(232,1882,o),
(290,1946,o),
(370,1946,c),
(370,2076,l),
(214,2076,o),
(86,1960,o),
(86,1796,cs),
(86,1636,o),
(214,1528,o),
(370,1528,c)
);
}
);
width = 452;
}
);
unicode = 703;
userData = {
interface.gridadjust.original = "{'width': 393, 'leftMargin': 55, 'rightMargin': 55}";
"interface.width-adjustments" = (
-16
);
};
}
{
color = (204,240,242,1);
glyphname = arrowheadleftmod;
layers = (
{
layerId = "5C20EF92-B63D-42A8-8878-93C2863E0093";
shapes = (
{
closed = 1;
nodes = (
(840,1320,l),
(1468,1516,l),
(1468,1844,l),
(332,1488,l),
(332,1240,l)
);
},
{
closed = 1;
nodes = (
(1468,1128,l),
(840,1312,l),
(332,1396,l),
(332,1148,l),
(1468,792,l)
);
}
);
width = 1800;
},
{
layerId = "B1F27B51-9973-4381-9301-4FE46FE1CA59";
shapes = (
{
closed = 1;
nodes = (
(256,1338,l),
(1120,1736,l),
(1120,1806,l),
(148,1358,l),
(148,1292,l)
);
},
{
closed = 1;
nodes = (
(1120,910,l),
(256,1308,l),
(148,1354,l),
(148,1288,l),
(1120,840,l)
);
}
);
width = 1200;
},
{
layerId = "CD0E3B44-F66A-4791-B84C-A1128DC61275";
shapes = (
{
closed = 1;
nodes = (
(492,1348,l),
(1112,1586,l),
(1112,1828,l),
(110,1422,l),
(110,1252,l)
);
},
{
closed = 1;
nodes = (
(1112,1062,l),
(492,1296,l),
(110,1396,l),
(110,1230,l),
(1112,820,l)
);
}
);
width = 1222;
}
);
unicode = 706;
userData = {
interface.gridadjust.original = "{'width': 1137, 'leftMargin': 69, 'rightMargin': 69}";
"interface.width-adjustments" = (
-16
);
};
}
{
glyphname = colontriangularmod;
layers = (
{
layerId = "5C20EF92-B63D-42A8-8878-93C2863E0093";
shapes = (
{
closed = 1;
nodes = (
(424,1068,l),
(460,1068,l),
(720,1488,l),
(164,1488,l)
);
},
{
closed = 1;
nodes = (
(720,0,l),
(460,420,l),
(424,420,l),
(164,0,l)
);
}
);
width = 888;
},
{
layerId = "B1F27B51-9973-4381-9301-4FE46FE1CA59";
shapes = (
{
closed = 1;
nodes = (
(296,1256,l),
(320,1256,l),
(452,1488,l),
(164,1488,l)
);
},
{
closed = 1;
nodes = (
(452,0,l),
(320,236,l),
(296,236,l),
(164,0,l)
);
}
);
width = 606;
},
{
layerId = "CD0E3B44-F66A-4791-B84C-A1128DC61275";
shapes = (
{
closed = 1;
nodes = (
(344,1182,l),
(372,1182,l),
(554,1488,l),
(162,1488,l)
);
},
{
closed = 1;
nodes = (
(554,0,l),
(372,306,l),
(344,306,l),
(162,0,l)
);
}
);
width = 712;
}
);
unicode = 720;
userData = {
interface.gridadjust.original = "{'width': 609, 'leftMargin': 110, 'rightMargin': 110}";
"interface.width-adjustments" = (
-16
);
};
}
{
color = (204,240,242,1);
glyphname = ogonek;
layers = (
{
anchors = (
{
name = _ogonek;
pos = (708,0);
}
);
layerId = "5C20EF92-B63D-42A8-8878-93C2863E0093";
shapes = (
{
closed = 1;
nodes = (
(615,-556,o),
(695,-524,o),
(748,-496,c),
(684,-248,l),
(659,-252,o),
(635,-264,o),
(600,-264,cs),
(547,-264,o),
(507,-228,o),
(508,-160,cs),
(507,-80,o),
(579,-40,o),
(708,0,c),
(252,136,l),
(135,84,o),
(87,-120,o),
(140,-292,cs),
(191,-460,o),
(323,-556,o),
(508,-556,cs)
);
}
);
width = 880;
},
{
anchors = (
{
name = _ogonek;
pos = (342,0);
}
);
layerId = "B1F27B51-9973-4381-9301-4FE46FE1CA59";
shapes = (
{
closed = 1;
nodes = (
(366,-608,o),
(420,-586,o),
(478,-544,c),
(440,-492,l),
(392,-527,o),
(353,-544,o),
(294,-544,cs),
(192,-544,o),
(122,-492,o),
(122,-374,cs),
(122,-249,o),
(204,-138,o),
(342,0,c),
(278,0,l),
(147,-123,o),
(58,-228,o),
(58,-374,cs),
(58,-527,o),
(156,-608,o),
(294,-608,cs)
);
}
);
width = 612;
},
{
anchors = (
{
name = _ogonek;
pos = (536,0);
}
);
associatedMasterId = "B1F27B51-9973-4381-9301-4FE46FE1CA59";
background = {
shapes = (
{
closed = 1;
nodes = (
(444,-600,o),
(516,-568,o),
(560,-540,c),
(544,-364,l),
(516,-380,o),
(468,-400,o),
(408,-400,cs),
(328,-400,o),
(304,-364,o),
(304,-304,cs),
(304,-184,o),
(416,-88,o),
(536,0,c),
(428,84,l),
(164,-36,o),
(64,-188,o),
(64,-336,cs),
(64,-508,o),
(184,-600,o),
(348,-600,cs)
);
},
{
closed = 0;
nodes = (
(-84,38,l),
(-382,-98,o),
(-476,-184,o),
(-476,-336,cs),
(-476,-482,o),
(-392,-576,o),
(-256,-576,cs),
(-186,-576,o),
(-94,-552,o),
(-40,-516,c)
);
},
{
closed = 0;
nodes = (
(516,38,l),
(306,-80,o),
(204,-204,o),
(204,-354,cs),
(204,-506,o),
(308,-576,o),
(408,-576,cs),
(478,-576,o),
(534,-546,o),
(572,-518,c)
);
}
);
};
layerId = "52D975C4-1382-4F77-8F34-B262951668A6";
name = "Sep 4 19, 07:14";
shapes = (
{
closed = 1;
nodes = (
(506,-527,o),
(458,-544,o),
(408,-544,cs),
(306,-544,o),
(236,-468,o),
(236,-354,cs),
(236,-219,o),
(332,-114,o),
(536,0,c),
(482,42,l),
(274,-80,o),
(172,-198,o),
(172,-354,cs),
(172,-503,o),
(270,-608,o),
(408,-608,cs),
(471,-608,o),
(534,-586,o),
(592,-544,c),
(554,-492,l)
);
}
);
width = 676;
},
{
anchors = (
{
name = _ogonek;
pos = (580,0);
}
);
layerId = "CD0E3B44-F66A-4791-B84C-A1128DC61275";
shapes = (
{
closed = 1;
nodes = (
(488,-598,o),
(562,-566,o),
(606,-538,c),
(588,-362,l),
(560,-376,o),
(512,-396,o),
(454,-396,cs),
(374,-396,o),
(350,-360,o),
(350,-300,cs),
(350,-182,o),
(460,-86,o),
(580,0,c),
(464,86,l),
(204,-34,o),
(106,-186,o),
(106,-334,cs),
(108,-506,o),
(228,-598,o),
(392,-598,cs)
);
}
);
width = 712;
}
);
unicode = 731;
userData = {
interface.gridadjust.original = "{'width': 776, 'leftMargin': 66, 'rightMargin': 214}";
"interface.width-adjustments" = (
-16
);
};
}
{
color = (204,240,242,1);
glyphname = hungarumlaut;
layers = (
{
anchors = (
{
name = _top;
pos = (536,1776);
},
{
name = mkmktop_acc;
pos = (536,2268);
}
);
background = {
shapes = (
{
closed = 1;
nodes = (
(980,1704,l),
(1280,2152,l),
(808,2152,l),
(616,1704,l)
);
},
{
closed = 1;
nodes = (
(410,1704,l),
(710,2152,l),
(238,2152,l),
(46,1704,l)
);
}
);
};
guides = (
{
pos = (-144,1240);
},
{
pos = (-144,764);
}
);
layerId = "5C20EF92-B63D-42A8-8878-93C2863E0093";
shapes = (
{
closed = 1;
nodes = (
(984,1704,l),
(1368,2112,l),
(944,2112,l),
(620,1704,l)
);
},
{
closed = 1;
nodes = (
(412,1704,l),
(760,2112,l),
(336,2112,l),
(40,1704,l)
);
}
);
width = 1480;
},
{
anchors = (
{
name = _top;
pos = (420,1776);
},
{
name = mkmktop_acc;
pos = (420,2204);
}
);
layerId = "B1F27B51-9973-4381-9301-4FE46FE1CA59";
shapes = (
{
closed = 1;
nodes = (
(534,1680,l),
(910,2112,l),
(830,2112,l),
(470,1680,l)
);
},
{
closed = 1;
nodes = (
(240,1680,l),
(536,2112,l),
(456,2112,l),
(176,1680,l)
);
}
);
width = 712;
},
{
anchors = (
{
name = _top;
pos = (466,1776);
},
{
name = mkmktop_acc;
pos = (466,2228);
}
);
layerId = "CD0E3B44-F66A-4791-B84C-A1128DC61275";
shapes = (
{
closed = 1;
nodes = (
(738,1688,l),
(1102,2112,l),
(834,2112,l),
(526,1688,l)
);
},
{
closed = 1;
nodes = (
(302,1688,l),
(600,2112,l),
(336,2112,l),
(110,1688,l)
);
}
);
width = 1004;
}
);
unicode = 733;
}
{
color = (204,240,242,1);
glyphname = qofdagesh;
layers = (
{
layerId = "5C20EF92-B63D-42A8-8878-93C2863E0093";
shapes = (
{
closed = 1;
nodes = (
(1000,2208,l),
(800,2408,l),
(148,1776,l),
(352,1572,l)
);
},
{
closed = 1;
nodes = (
(996,1772,l),
(352,2412,l),
(148,2208,l),
(792,1568,l)
);
}
);
width = 1144;
},
{
layerId = "B1F27B51-9973-4381-9301-4FE46FE1CA59";
shapes = (
{
closed = 1;
nodes = (
(686,2118,l),
(642,2166,l),
(174,1682,l),
(218,1638,l)
);
},
{
closed = 1;
nodes = (
(690,1680,l),
(226,2168,l),
(182,2120,l),
(646,1634,l)
);
}
);
width = 862;
},
{
layerId = "CD0E3B44-F66A-4791-B84C-A1128DC61275";
shapes = (
{
closed = 1;
nodes = (
(822,2138,l),
(684,2276,l),
(146,1734,l),
(284,1596,l)
);
},
{
closed = 1;
nodes = (
(822,1732,l),
(288,2280,l),
(150,2138,l),
(684,1592,l)
);
}
);
width = 968;
}
);
unicode = 735;
userData = {
interface.gridadjust.original = "{'width': 894, 'leftMargin': 110, 'rightMargin': 110}";
"interface.width-adjustments" = (
-16
);
};
}
{
color = (204,240,242,1);
glyphname = tonebarmidmod.cn;
layers = (
{
layerId = "5C20EF92-B63D-42A8-8878-93C2863E0093";
shapes = (
{
closed = 1;
nodes = (
(528,2004,l),
(528,0,l),
(1044,0,l),
(1044,2004,l)
);
},
{
closed = 1;
nodes = (
(104,1208,l),
(104,796,l),
(1000,796,l),
(1000,1208,l)
);
}
);
width = 1140;
},
{
layerId = "B1F27B51-9973-4381-9301-4FE46FE1CA59";
shapes = (
{
closed = 1;
nodes = (
(592,2004,l),
(592,0,l),
(656,0,l),
(656,2004,l)
);
},
{
closed = 1;
nodes = (
(208,1038,l),
(208,974,l),
(632,974,l),
(632,1038,l)
);
}
);
width = 866;
},
{
layerId = "CD0E3B44-F66A-4791-B84C-A1128DC61275";
shapes = (
{
closed = 1;
nodes = (
(524,2004,l),
(524,0,l),
(806,0,l),
(806,2004,l)
);
},
{
closed = 1;
nodes = (
(166,1114,l),
(166,890,l),
(738,890,l),
(738,1114,l)
);
}
);
width = 972;
}
);
unicode = 743;
userData = {
interface.gridadjust.original = "{'width': 919, 'leftMargin': 55, 'rightMargin': 234}";
"interface.width-adjustments" = (
-16
);
};
}
{
color = (204,240,242,1);
glyphname = uni02EB;
layers = (
{
guides = (
{
pos = (-128,624);
}
);
layerId = "5C20EF92-B63D-42A8-8878-93C2863E0093";
shapes = (
{
closed = 1;
nodes = (
(524,828,l),
(524,412,l),
(1316,412,l),
(1316,828,l)
);
},
{
closed = 1;
nodes = (
(200,1248,l),
(200,0,l),
(720,0,l),
(720,1248,l)
);
}
);
width = 1508;
},
{
layerId = "B1F27B51-9973-4381-9301-4FE46FE1CA59";
shapes = (
{
closed = 1;
nodes = (
(160,668,l),
(160,604,l),
(544,604,l),
(544,668,l)
);
},
{
closed = 1;
nodes = (
(100,1248,l),
(100,0,l),
(164,0,l),
(164,1248,l)
);
}
);
width = 644;
},
{
layerId = "CD0E3B44-F66A-4791-B84C-A1128DC61275";
shapes = (
{
closed = 1;
nodes = (
(298,742,l),
(298,518,l),
(840,518,l),
(840,742,l)
);
},
{
closed = 1;
nodes = (
(134,1248,l),
(134,0,l),
(416,0,l),
(416,1248,l)
);
}
);
width = 974;
}
);
unicode = 747;
userData = {
interface.gridadjust.original = "{'width': 941, 'leftMargin': 188, 'rightMargin': 55}";
"interface.width-adjustments" = (
-16
);
};
}
{
color = (204,240,242,1);
glyphname = uni02F0;
layers = (
{
layerId = "5C20EF92-B63D-42A8-8878-93C2863E0093";
shapes = (
{
closed = 1;
nodes = (
(636,-100,l),
(456,-100,l),
(192,-764,l),
(432,-764,l),
(572,-400,l)
);
},
{
closed = 1;
nodes = (
(964,-764,l),
(700,-100,l),
(524,-100,l),
(584,-400,l),
(728,-764,l)
);
}
);
width = 1156;
},
{
layerId = "B1F27B51-9973-4381-9301-4FE46FE1CA59";
shapes = (
{
closed = 1;
nodes = (
(456,-100,l),
(402,-100,l),
(152,-740,l),
(220,-740,l),
(388,-312,l)
);
},
{
closed = 1;
nodes = (
(700,-740,l),
(466,-100,l),
(410,-100,l),
(476,-312,l),
(632,-740,l)
);
}
);
width = 856;
},
{
layerId = "CD0E3B44-F66A-4791-B84C-A1128DC61275";
shapes = (
{
closed = 1;
nodes = (
(534,-100,l),
(416,-100,l),
(130,-748,l),
(298,-748,l),
(466,-346,l)
);
},
{
closed = 1;
nodes = (
(834,-748,l),
(552,-100,l),
(434,-100,l),
(502,-346,l),
(666,-748,l)
);
}
);
width = 964;
}
);
unicode = 752;
userData = {
interface.gridadjust.original = "{'width': 843, 'leftMargin': 69, 'rightMargin': 69}";
"interface.width-adjustments" = (
-16
);
};
}
{
color = (204,240,242,1);
glyphname = uni02F1;
layers = (
{
layerId = "5C20EF92-B63D-42A8-8878-93C2863E0093";
shapes = (
{
closed = 1;
nodes = (
(532,-416,l),
(976,-296,l),
(976,-76,l),
(180,-312,l),
(180,-472,l)
);
},
{
closed = 1;
nodes = (
(976,-544,l),
(532,-428,l),
(180,-368,l),
(180,-536,l),
(976,-764,l)
);
}
);
width = 1156;
},
{
layerId = "B1F27B51-9973-4381-9301-4FE46FE1CA59";
shapes = (
{
closed = 1;
nodes = (
(318,-382,l),
(746,-214,l),
(746,-146,l),
(106,-396,l),
(106,-450,l)
);
},
{
closed = 1;
nodes = (
(746,-626,l),
(318,-470,l),
(106,-404,l),
(106,-460,l),
(746,-694,l)
);
}
);
width = 856;
},
{
layerId = "CD0E3B44-F66A-4791-B84C-A1128DC61275";
shapes = (
{
closed = 1;
nodes = (
(400,-412,l),
(838,-254,l),
(838,-100,l),
(134,-362,l),
(134,-472,l)
);
},
{
closed = 1;
nodes = (
(838,-594,l),
(400,-444,l),
(134,-380,l),
(134,-486,l),
(838,-752,l)
);
}
);
width = 968;
}
);
unicode = 753;
userData = {
interface.gridadjust.original = "{'width': 837, 'leftMargin': 69, 'rightMargin': 68}";
"interface.width-adjustments" = (
-16
);
};
}
{
color = (204,240,242,1);
glyphname = uni02FC;
layers = (
{
layerId = "5C20EF92-B63D-42A8-8878-93C2863E0093";
shapes = (
{
closed = 1;
nodes = (
(936,-616,l),
(936,-44,l),
(628,-44,l),
(628,-616,l)
);
},
{
closed = 1;
nodes = (
(936,-616,l),
(936,-328,l),
(324,-328,l),
(324,-616,l)
);
}
);
width = 1260;
},
{
layerId = "B1F27B51-9973-4381-9301-4FE46FE1CA59";
shapes = (
{
closed = 1;
nodes = (
(400,-536,l),
(400,-88,l),
(336,-88,l),
(336,-536,l)
);
},
{
closed = 1;
nodes = (
(400,-536,l),
(400,-472,l),
(-16,-472,l),
(-16,-536,l)
);
}
);
width = 384;
},
{
layerId = "CD0E3B44-F66A-4791-B84C-A1128DC61275";
shapes = (
{
closed = 1;
nodes = (
(632,-656,l),
(632,-122,l),
(420,-122,l),
(420,-656,l)
);
},
{
closed = 1;
nodes = (
(632,-656,l),
(632,-460,l),
(82,-460,l),
(82,-656,l)
);
}
);
width = 710;
}
);
unicode = 764;
userData = {
interface.gridadjust.original = "{'width': 767, 'leftMargin': 110, 'rightMargin': 110}";
"interface.width-adjustments" = (
-16
);
};
}
{
color = (204,240,242,1);
glyphname = uni02FE;
layers = (
{
layerId = "5C20EF92-B63D-42A8-8878-93C2863E0093";
shapes = (
{
closed = 1;
nodes = (
(464,-320,l),
(464,-616,l),
(1168,-616,l),
(1168,-320,l)
);
},
{
closed = 1;
nodes = (
(272,-44,l),
(272,-616,l),
(584,-616,l),
(584,-44,l)
);
}
);
width = 1440;
},
{
layerId = "B1F27B51-9973-4381-9301-4FE46FE1CA59";
shapes = (
{
closed = 1;
nodes = (
(88,-616,l),
(88,-680,l),
(1028,-680,l),
(1028,-616,l)
);
},
{
closed = 1;
nodes = (
(68,-172,l),
(68,-680,l),
(132,-680,l),
(132,-172,l)
);
}
);
width = 1094;
},
{
layerId = "CD0E3B44-F66A-4791-B84C-A1128DC61275";
shapes = (
{
closed = 1;
nodes = (
(328,-484,l),
(328,-656,l),
(1078,-656,l),
(1078,-484,l)
);
},
{
closed = 1;
nodes = (
(142,-122,l),
(142,-656,l),
(354,-656,l),
(354,-122,l)
);
}
);
width = 1220;
}
);
unicode = 766;
userData = {
interface.gridadjust.original = "{'width': 1156, 'leftMargin': 110, 'rightMargin': 110}";
"interface.width-adjustments" = (
-16
);
};
}
{
color = (250,227,227,1);
glyphname = anglesupnosp;
layers = (
{
layerId = "5C20EF92-B63D-42A8-8878-93C2863E0093";
shapes = (
{
closed = 1;
nodes = (
(-620,1984,l),
(-620,2280,l),
(-1412,2280,l),
(-1412,1984,l)
);
},
{
closed = 1;
nodes = (
(-428,1764,l),
(-428,2280,l),
(-736,2280,l),
(-736,1764,l)
);
}
);
width = 0;
},
{
layerId = "B1F27B51-9973-4381-9301-4FE46FE1CA59";
shapes = (
{
closed = 1;
nodes = (
(-24,2216,l),
(-24,2280,l),
(-816,2280,l),
(-816,2216,l)
);
},
{
closed = 1;
nodes = (
(4,1764,l),
(4,2280,l),
(-60,2280,l),
(-60,1764,l)
);
}
);
width = 0;
},
{
layerId = "CD0E3B44-F66A-4791-B84C-A1128DC61275";
shapes = (
{
closed = 1;
nodes = (
(-294,2108,l),
(-294,2280,l),
(-1052,2280,l),
(-1052,2108,l)
);
},
{
closed = 1;
nodes = (
(-114,1764,l),
(-114,2280,l),
(-324,2280,l),
(-324,1764,l)
);
}
);
width = 2;
}
);
unicode = 794;
}
{
color = (250,227,227,1);
glyphname = cedillanosp;
layers = (
{
layerId = "5C20EF92-B63D-42A8-8878-93C2863E0093";
shapes = (
{
closed = 1;
nodes = (
(-1236,-188,l),
(-1100,-192,o),
(-1048,-220,o),
(-1048,-276,cs),
(-1048,-344,o),
(-1092,-372,o),
(-1160,-372,c),
(-1148,-668,l),
(-788,-668,o),
(-596,-524,o),
(-596,-308,cs),
(-596,-152,o),
(-704,-88,o),
(-812,-72,c),
(-796,20,l),
(-1192,20,l)
);
}
);
width = 0;
},
{
layerId = "B1F27B51-9973-4381-9301-4FE46FE1CA59";
shapes = (
{
closed = 1;
nodes = (
(-836,-132,l),
(-690,-129,o),
(-615,-189,o),
(-614,-304,cs),
(-613,-402,o),
(-673,-447,o),
(-822,-452,c),
(-820,-516,l),
(-644,-510,o),
(-551,-445,o),
(-550,-304,cs),
(-549,-180,o),
(-622,-93,o),
(-758,-72,c),
(-744,8,l),
(-808,8,l)
);
}
);
width = 0;
},
{
layerId = "CD0E3B44-F66A-4791-B84C-A1128DC61275";
shapes = (
{
closed = 1;
nodes = (
(-1008,-188,l),
(-856,-200,o),
(-792,-224,o),
(-792,-316,cs),
(-792,-406,o),
(-888,-442,o),
(-1006,-442,c),
(-998,-602,l),
(-720,-602,o),
(-574,-482,o),
(-574,-308,cs),
(-574,-148,o),
(-680,-88,o),
(-784,-72,c),
(-764,0,l),
(-964,0,l)
);
}
);
width = 6;
}
);
unicode = 807;
}
{
color = (250,227,227,1);
glyphname = caronbelowcmb;
layers = (
{
layerId = "5C20EF92-B63D-42A8-8878-93C2863E0093";
shapes = (
{
closed = 1;
nodes = (
(-832,-528,l),
(-340,-140,l),
(-340,-120,l),
(-748,-120,l),
(-980,-288,l),
(-1212,-120,l),
(-1608,-120,l),
(-1608,-148,l),
(-1128,-528,l)
);
}
);
width = 0;
},
{
layerId = "B1F27B51-9973-4381-9301-4FE46FE1CA59";
shapes = (
{
closed = 1;
nodes = (
(-736,-606,l),
(-368,-290,l),
(-368,-282,l),
(-448,-282,l),
(-744,-534,l),
(-1038,-282,l),
(-1120,-282,l),
(-1120,-290,l),
(-752,-606,l)
);
}
);
width = 0;
},
{
layerId = "CD0E3B44-F66A-4791-B84C-A1128DC61275";
shapes = (
{
closed = 1;
nodes = (
(-752,-570,l),
(-404,-190,l),
(-404,-174,l),
(-634,-174,l),
(-838,-406,l),
(-1034,-174,l),
(-1264,-174,l),
(-1264,-190,l),
(-920,-570,l)
);
}
);
width = 12;
}
);
unicode = 812;
}
{
color = (250,227,227,1);
glyphname = brevesubnosp;
layers = (
{
anchors = (
{
name = _bottom;
pos = (-968,-4);
}
);
layerId = "5C20EF92-B63D-42A8-8878-93C2863E0093";
shapes = (
{
closed = 1;
nodes = (
(-762,-184,o),
(-822,-272,o),
(-964,-272,cs),
(-1114,-272,o),
(-1170,-188,o),
(-1168,-104,c),
(-1512,-104,l),
(-1514,-372,o),
(-1294,-548,o),
(-968,-548,cs),
(-626,-548,o),
(-418,-356,o),
(-416,-104,c),
(-760,-104,l)
);
}
);
width = 0;
},
{
anchors = (
{
name = _bottom;
pos = (-744,4);
}
);
layerId = "B1F27B51-9973-4381-9301-4FE46FE1CA59";
shapes = (
{
closed = 1;
nodes = (
(-594,-254,o),
(-650,-312,o),
(-754,-312,cs),
(-858,-312,o),
(-914,-254,o),
(-914,-148,c),
(-978,-148,l),
(-978,-289,o),
(-894,-376,o),
(-754,-376,cs),
(-614,-376,o),
(-530,-289,o),
(-530,-148,c),
(-594,-148,l)
);
}
);
width = 0;
},
{
anchors = (
{
name = _bottom;
pos = (-838,0);
}
);
layerId = "CD0E3B44-F66A-4791-B84C-A1128DC61275";
shapes = (
{
closed = 1;
nodes = (
(-646,-234,o),
(-702,-330,o),
(-842,-330,cs),
(-978,-330,o),
(-1034,-238,o),
(-1034,-132,c),
(-1256,-132,l),
(-1256,-344,o),
(-1096,-506,o),
(-838,-506,cs),
(-584,-506,o),
(-422,-352,o),
(-422,-132,c),
(-646,-132,l)
);
}
);
width = 6;
}
);
unicode = 814;
}
{
color = (250,227,227,1);
glyphname = breveinvsubnosp;
layers = (
{
layerId = "5C20EF92-B63D-42A8-8878-93C2863E0093";
shapes = (
{
closed = 1;
nodes = (
(-418,-304,o),
(-630,-120,o),
(-968,-120,cs),
(-1306,-120,o),
(-1518,-304,o),
(-1520,-564,c),
(-1172,-564,l),
(-1170,-480,o),
(-1114,-400,o),
(-968,-400,cs),
(-822,-400,o),
(-766,-480,o),
(-768,-564,c),
(-420,-564,l)
);
}
);
width = 0;
},
{
layerId = "B1F27B51-9973-4381-9301-4FE46FE1CA59";
shapes = (
{
closed = 1;
nodes = (
(-522,-235,o),
(-606,-148,o),
(-746,-148,cs),
(-886,-148,o),
(-970,-235,o),
(-970,-376,c),
(-906,-376,l),
(-906,-270,o),
(-850,-212,o),
(-746,-212,cs),
(-642,-212,o),
(-586,-270,o),
(-586,-376,c),
(-522,-376,l)
);
}
);
width = 0;
},
{
layerId = "CD0E3B44-F66A-4791-B84C-A1128DC61275";
shapes = (
{
closed = 1;
nodes = (
(-420,-296,o),
(-578,-144,o),
(-836,-144,cs),
(-1094,-144,o),
(-1256,-296,o),
(-1256,-514,c),
(-1032,-514,l),
(-1032,-410,o),
(-980,-314,o),
(-836,-314,cs),
(-700,-314,o),
(-644,-406,o),
(-644,-514,c),
(-420,-514,l)
);
}
);
width = 8;
}
);
unicode = 815;
}
{
color = (250,227,227,1);
glyphname = slashshortnosp;
layers = (
{
layerId = "5C20EF92-B63D-42A8-8878-93C2863E0093";
shapes = (
{
closed = 1;
nodes = (
(-620,1684,l),
(-1576,-204,l),
(-1312,-204,l),
(-352,1684,l)
);
}
);
width = 0;
},
{
layerId = "B1F27B51-9973-4381-9301-4FE46FE1CA59";
shapes = (
{
closed = 1;
nodes = (
(-368,1648,l),
(-1252,-172,l),
(-1174,-172,l),
(-290,1648,l)
);
}
);
width = 0;
},
{
layerId = "CD0E3B44-F66A-4791-B84C-A1128DC61275";
shapes = (
{
closed = 1;
nodes = (
(-488,1660,l),
(-1400,-184,l),
(-1218,-184,l),
(-306,1660,l)
);
}
);
width = 2;
}
);
unicode = 823;
}
{
color = (250,227,227,1);
glyphname = uni034A;
layers = (
{
layerId = "5C20EF92-B63D-42A8-8878-93C2863E0093";
shapes = (
{
closed = 1;
nodes = (
(-570,1728,o),
(-430,1924,o),
(-432,2116,c),
(-716,2132,l),
(-714,2048,o),
(-770,2020,o),
(-824,2020,cs),
(-958,2020,o),
(-1078,2128,o),
(-1228,2128,cs),
(-1422,2128,o),
(-1562,1932,o),
(-1564,1740,c),
(-1280,1724,l),
(-1278,1808,o),
(-1230,1840,o),
(-1172,1840,cs),
(-1026,1840,o),
(-942,1728,o),
(-768,1728,cs)
);
},
{
closed = 1;
nodes = (
(-748,2132,l),
(-936,2216,l),
(-1160,1664,l),
(-968,1580,l)
);
}
);
width = 0;
},
{
layerId = "B1F27B51-9973-4381-9301-4FE46FE1CA59";
shapes = (
{
closed = 1;
nodes = (
(-455,1796,o),
(-341,1878,o),
(-312,2000,c),
(-376,2016,l),
(-397,1922,o),
(-485,1860,o),
(-576,1860,cs),
(-723,1860,o),
(-783,2024,o),
(-968,2024,cs),
(-1104,2024,o),
(-1213,1937,o),
(-1232,1812,c),
(-1168,1804,l),
(-1155,1895,o),
(-1072,1960,o),
(-968,1960,cs),
(-798,1960,o),
(-747,1796,o),
(-576,1796,cs)
);
},
{
closed = 1;
nodes = (
(-590,2070,l),
(-638,2112,l),
(-922,1728,l),
(-874,1686,l)
);
}
);
width = 0;
},
{
layerId = "CD0E3B44-F66A-4791-B84C-A1128DC61275";
shapes = (
{
closed = 1;
nodes = (
(-512,1744,o),
(-380,1878,o),
(-380,2084,c),
(-562,2100,l),
(-562,2016,o),
(-622,1950,o),
(-698,1950,cs),
(-842,1950,o),
(-910,2078,o),
(-1062,2078,cs),
(-1236,2078,o),
(-1368,1932,o),
(-1368,1728,c),
(-1180,1720,l),
(-1180,1804,o),
(-1126,1872,o),
(-1050,1872,cs),
(-898,1872,o),
(-868,1744,o),
(-684,1744,cs)
);
},
{
closed = 1;
nodes = (
(-642,2082,l),
(-774,2166,l),
(-1034,1714,l),
(-900,1630,l)
);
}
);
width = 4;
}
);
unicode = 842;
}
{
color = (250,227,227,1);
glyphname = uni0351;
layers = (
{
layerId = "5C20EF92-B63D-42A8-8878-93C2863E0093";
shapes = (
{
closed = 1;
nodes = (
(-848,1724,l),
(-930,1724,o),
(-978,1776,o),
(-976,1848,cs),
(-978,1924,o),
(-930,1976,o),
(-848,1976,c),
(-848,2112,l),
(-1026,2112,o),
(-1158,1992,o),
(-1156,1848,cs),
(-1158,1704,o),
(-1026,1592,o),
(-848,1592,c)
);
}
);
width = 0;
},
{
layerId = "B1F27B51-9973-4381-9301-4FE46FE1CA59";
shapes = (
{
closed = 1;
nodes = (
(-500,1632,l),
(-604,1632,o),
(-664,1685,o),
(-664,1776,cs),
(-664,1867,o),
(-604,1920,o),
(-500,1920,c),
(-500,1984,l),
(-639,1984,o),
(-728,1902,o),
(-728,1776,cs),
(-728,1650,o),
(-639,1568,o),
(-500,1568,c)
);
}
);
width = 0;
},
{
layerId = "CD0E3B44-F66A-4791-B84C-A1128DC61275";
shapes = (
{
closed = 1;
nodes = (
(-616,1654,l),
(-696,1654,o),
(-756,1722,o),
(-756,1798,cs),
(-756,1882,o),
(-696,1948,o),
(-616,1948,c),
(-616,2076,l),
(-772,2076,o),
(-900,1956,o),
(-900,1798,cs),
(-900,1638,o),
(-772,1530,o),
(-616,1530,c)
);
}
);
width = 0;
}
);
unicode = 849;
}
{
color = (250,227,227,1);
glyphname = tildedoublecmb;
layers = (
{
layerId = "5C20EF92-B63D-42A8-8878-93C2863E0093";
shapes = (
{
closed = 1;
nodes = (
(-1366,1764,o),
(-1242,1792,o),
(-1104,1792,cs),
(-678,1792,o),
(288,1704,o),
(896,1704,cs),
(1156,1704,o),
(1352,1796,o),
(1376,2028,c),
(1104,2108,l),
(1076,2016,o),
(972,1984,o),
(808,1984,cs),
(416,1984,o),
(-714,2064,o),
(-1180,2064,cs),
(-1458,2064,o),
(-1614,1984,o),
(-1680,1748,c),
(-1408,1664,l)
);
}
);
width = 0;
},
{
layerId = "B1F27B51-9973-4381-9301-4FE46FE1CA59";
shapes = (
{
closed = 1;
nodes = (
(-995,1895,o),
(-912,1960,o),
(-690,1960,cs),
(-338,1960,o),
(523,1796,o),
(830,1796,cs),
(1045,1796,o),
(1159,1878,o),
(1188,2000,c),
(1124,2016,l),
(1103,1922,o),
(1015,1860,o),
(836,1860,cs),
(547,1860,o),
(-323,2024,o),
(-688,2024,cs),
(-944,2024,o),
(-1053,1937,o),
(-1072,1812,c),
(-1008,1804,l)
);
}
);
width = 0;
},
{
layerId = "CD0E3B44-F66A-4791-B84C-A1128DC61275";
shapes = (
{
closed = 1;
nodes = (
(-1140,1826,o),
(-1040,1878,o),
(-908,1878,cs),
(-480,1878,o),
(348,1740,o),
(854,1740,cs),
(1088,1740,o),
(1256,1866,o),
(1284,2052,c),
(1130,2100,l),
(1098,1984,o),
(986,1934,o),
(852,1934,cs),
(444,1934,o),
(-476,2076,o),
(-910,2076,cs),
(-1146,2076,o),
(-1306,1922,o),
(-1336,1752,c),
(-1184,1714,l)
);
}
);
width = 12;
}
);
unicode = 864;
}
{
color = (250,227,227,1);
glyphname = uni0368;
layers = (
{
layerId = "5C20EF92-B63D-42A8-8878-93C2863E0093";
shapes = (
{
closed = 1;
nodes = (
(-748,1632,o),
(-600,1744,o),
(-604,1928,c),
(-836,1928,l),
(-832,1860,o),
(-884,1828,o),
(-944,1828,cs),
(-1056,1828,o),
(-1056,1928,o),
(-1056,2020,cs),
(-1056,2032,ls),
(-1056,2120,o),
(-1056,2224,o),
(-944,2224,cs),
(-872,2224,o),
(-836,2172,o),
(-836,2104,c),
(-604,2104,l),
(-600,2296,o),
(-728,2420,o),
(-936,2420,cs),
(-1180,2420,o),
(-1308,2256,o),
(-1308,2032,cs),
(-1308,2020,ls),
(-1308,1792,o),
(-1180,1632,o),
(-936,1632,cs)
);
}
);
width = 0;
},
{
layerId = "B1F27B51-9973-4381-9301-4FE46FE1CA59";
shapes = (
{
closed = 1;
nodes = (
(-604,1632,o),
(-488,1710,o),
(-456,1864,c),
(-518,1864,l),
(-538,1750,o),
(-628,1696,o),
(-740,1696,cs),
(-900,1696,o),
(-988,1804,o),
(-988,1996,cs),
(-988,2028,ls),
(-988,2232,o),
(-892,2356,o),
(-734,2356,cs),
(-616,2356,o),
(-520,2286,o),
(-510,2168,c),
(-450,2168,l),
(-464,2336,o),
(-580,2420,o),
(-728,2420,cs),
(-928,2420,o),
(-1052,2266,o),
(-1052,2028,cs),
(-1052,1996,ls),
(-1052,1774,o),
(-934,1632,o),
(-744,1632,cs)
);
}
);
width = 0;
},
{
layerId = "CD0E3B44-F66A-4791-B84C-A1128DC61275";
shapes = (
{
closed = 1;
nodes = (
(-632,1632,o),
(-492,1752,o),
(-484,1888,c),
(-658,1888,l),
(-668,1828,o),
(-720,1782,o),
(-804,1782,cs),
(-920,1782,o),
(-978,1882,o),
(-978,2012,cs),
(-978,2040,ls),
(-978,2166,o),
(-920,2270,o),
(-804,2270,cs),
(-708,2270,o),
(-660,2204,o),
(-658,2144,c),
(-484,2144,l),
(-492,2292,o),
(-604,2420,o),
(-804,2420,cs),
(-1048,2420,o),
(-1160,2244,o),
(-1160,2040,cs),
(-1160,2012,ls),
(-1160,1812,o),
(-1052,1632,o),
(-804,1632,cs)
);
}
);
width = 0;
}
);
unicode = 872;
}
